<?xml version="1.0" encoding="UTF-8"?><svg id="Layer_2" xmlns="http://www.w3.org/2000/svg" viewBox="0 0 110.25 196"><defs><style>.cls-1{fill:#26d37c;}.cls-1,.cls-2{stroke-width:0px;}.cls-2{fill:#fff;}</style></defs><g id="GUIDELINES"><path class="cls-1" d="M0,0v196h110.25V0H0ZM7.08,98c0-26.54,21.51-48.05,48.05-48.05,13.27,0,25.28,5.38,33.97,14.07,8.7,8.7,14.08,20.71,14.08,33.98v48.05H7.08v-48.05Z"/><polygon class="cls-2" points="17.54 188.12 13.61 184.19 26.54 171.26 13.61 158.33 17.54 154.4 34.4 171.26 17.54 188.12"/><polygon class="cls-2" points="33.05 188.12 29.12 184.19 42.06 171.26 29.12 158.33 33.05 154.4 49.91 171.26 33.05 188.12"/><polygon class="cls-2" points="64.23 188.12 60.3 184.19 73.23 171.26 60.3 158.33 64.23 154.4 81.09 171.26 64.23 188.12"/><polygon class="cls-2" points="48.64 188.12 44.71 184.19 57.64 171.26 44.71 158.33 48.64 154.4 65.5 171.26 48.64 188.12"/><polygon class="cls-2" points="79.74 188.12 75.81 184.19 88.75 171.26 75.81 158.33 79.74 154.4 96.6 171.26 79.74 188.12"/><path class="cls-2" d="M17.54,42.11l-4.28-4.28,12.93-12.93-12.93-12.93,4.28-4.28,17.21,17.21-17.21,17.21ZM13.96,37.83l3.57,3.57,16.51-16.51L17.54,8.39l-3.57,3.57,12.93,12.93-12.93,12.93Z"/><path class="cls-2" d="M33.05,42.11l-4.28-4.28,12.93-12.93-12.93-12.93,4.28-4.28,17.21,17.21-17.21,17.21ZM29.48,37.83l3.57,3.57,16.51-16.51-16.51-16.51-3.57,3.57,12.93,12.93-12.93,12.93Z"/><path class="cls-2" d="M64.23,42.11l-4.28-4.28,12.93-12.93-12.93-12.93,4.28-4.28,17.21,17.21-17.21,17.21ZM60.65,37.83l3.57,3.57,16.51-16.51-16.51-16.51-3.57,3.57,12.93,12.93-12.93,12.93Z"/><path class="cls-2" d="M48.64,42.11l-4.28-4.28,12.93-12.93-12.93-12.93,4.28-4.28,17.21,17.21-17.21,17.21ZM45.06,37.83l3.57,3.57,16.51-16.51-16.51-16.51-3.57,3.57,12.93,12.93-12.93,12.93Z"/><path class="cls-2" d="M79.74,42.11l-4.28-4.28,12.93-12.93-12.93-12.93,4.28-4.28,17.21,17.21-17.21,17.21ZM76.17,37.83l3.57,3.57,16.51-16.51-16.51-16.51-3.57,3.57,12.93,12.93-12.93,12.93Z"/></g></svg>