<?xml version="1.0" encoding="UTF-8"?><svg id="Layer_2" xmlns="http://www.w3.org/2000/svg" viewBox="0 0 110.24 195.99"><defs><style>.cls-1{fill:#26d37c;}.cls-1,.cls-2{stroke-width:0px;}.cls-2{fill:#d81ab4;}</style></defs><g id="GUIDELINES"><path class="cls-1" d="M0,0v195.99h110.24V0H0ZM103.17,58.48v87.56H15.61c-4.71,0-8.54-3.82-8.54-8.54V49.95h87.56c4.72,0,8.54,3.82,8.54,8.53Z"/><path class="cls-1" d="M0,42.87v110.25h110.24V42.87H0ZM103.17,146.04H15.61c-4.71,0-8.54-3.82-8.54-8.54V49.95h87.56c4.72,0,8.54,3.82,8.54,8.53v87.56Z"/><path class="cls-2" d="M24.97,24.98H0s0-24.97,0-24.97c13.8,0,24.97,11.18,24.97,24.97Z"/><path class="cls-2" d="M49.95,24.98h-24.97s0-24.97,0-24.97c13.8,0,24.97,11.18,24.97,24.97Z"/><path class="cls-2" d="M24.97,49.95H0s0-24.97,0-24.97c13.8,0,24.97,11.18,24.97,24.97Z"/><path class="cls-2" d="M85.26,171.02h24.97s0,24.98,0,24.98c-13.8,0-24.97-11.18-24.97-24.98Z"/><path class="cls-2" d="M60.29,171.02h24.97s0,24.98,0,24.98c-13.8,0-24.97-11.18-24.97-24.98Z"/><path class="cls-2" d="M85.26,146.04h24.97s0,24.98,0,24.98c-13.8,0-24.97-11.18-24.97-24.98Z"/></g></svg>