<?xml version="1.0" encoding="UTF-8"?><svg id="Layer_2" xmlns="http://www.w3.org/2000/svg" viewBox="0 0 110.25 195.99"><defs><style>.cls-1{fill:#d81ab4;}.cls-1,.cls-2{stroke-width:0px;}.cls-2{fill:#fff;}</style></defs><g id="GUIDELINES"><path class="cls-1" d="M0,0v195.99h110.25V0H0ZM7.08,49.95h87.56c4.71,0,8.53,3.82,8.53,8.54v87.55H15.62c-4.72,0-8.54-3.82-8.54-8.54V49.95Z"/><path class="cls-2" d="M42.92,15.92c-.42-.34-.84-.71-1.3-1.15-.15-.14-.23-.34-.23-.54,0-.21.09-.41.24-.56.36-.34.69-.63,1.03-.89l3.66-3c.34-.28.49-.7.4-1.13-.09-.43-.39-.76-.81-.89l-4.12-1.25c-.55-.16-1.09-.35-1.65-.57-.2-.08-.36-.23-.44-.43-.08-.2-.08-.41.01-.6.19-.43.39-.82.59-1.2l1.96-3.7h-.45l-1.86,3.51c-.21.39-.4.79-.6,1.23-.13.29-.14.62-.02.92.12.3.36.53.66.66.57.22,1.12.41,1.68.58l4.12,1.24c.28.09.48.31.54.59.06.28-.04.56-.26.74l-3.65,2.99c-.34.27-.69.57-1.05.91-.23.22-.37.53-.37.85,0,.32.13.61.36.83.47.45.9.83,1.32,1.17l3.04,2.49c.22.18.32.46.27.74-.06.28-.26.5-.54.59l-3.78,1.14c-.68.21-1.29.42-1.84.64-.3.12-.54.35-.66.64-.12.29-.12.61,0,.9.28.65.56,1.21.84,1.72l1.94,3.59c.13.25.12.54-.04.78-.16.25-.44.38-.74.35l-4.12-.39c-.65-.06-1.3-.1-1.94-.11h0c-.32,0-.64.13-.86.35-.22.22-.34.52-.33.82,0,.67.03,1.29.09,1.91l.36,3.87c.03.28-.1.54-.34.7-.25.17-.56.19-.82.05l-3.49-1.82c-.52-.28-1.05-.52-1.61-.76-.3-.13-.63-.13-.93,0-.3.13-.53.36-.65.66-.19.49-.34.9-.46,1.28l-1.44,4.45c-.09.27-.31.47-.6.53-.29.06-.58-.04-.77-.27l-2.74-3.28c-.38-.46-.78-.9-1.19-1.3-.22-.23-.52-.35-.84-.36h0c-.32,0-.63.13-.85.35-.35.36-.66.69-.93,1.02l-3.07,3.57c-.19.22-.48.32-.77.26-.28-.06-.5-.25-.58-.52l-1.44-4.46c-.14-.42-.27-.79-.41-1.14-.12-.3-.35-.53-.65-.66-.31-.13-.64-.13-.94,0-.36.16-.72.33-1.1.52l-4.39,2.23c-.26.14-.57.12-.82-.05-.24-.16-.36-.42-.34-.7l.44-4.83c.04-.41.06-.81.07-1.2.01-.32-.11-.62-.33-.85-.23-.23-.55-.36-.88-.36-.45.01-.85.04-1.23.07l-.26.02v.4l.3-.02c.37-.03.76-.05,1.2-.07.23,0,.43.08.59.24.15.15.23.35.22.55-.01.39-.03.78-.07,1.18l-.44,4.83c-.04.43.15.83.51,1.07.37.25.82.28,1.22.07l4.39-2.23c.37-.19.72-.36,1.08-.51.2-.09.43-.09.63,0,.2.08.35.24.43.44.13.33.26.7.4,1.11l1.44,4.46c.13.41.46.7.88.79.08.02.17.03.25.03.34,0,.67-.15.9-.42l3.07-3.57c.27-.32.57-.65.92-1,.15-.15.34-.23.57-.24.21,0,.41.08.56.24.4.4.79.83,1.17,1.28l2.74,3.28c.28.34.71.49,1.15.4.43-.09.77-.38.9-.8l1.44-4.45c.12-.38.26-.78.45-1.26.08-.2.23-.36.44-.44.2-.08.42-.08.62,0,.55.23,1.06.47,1.58.74l3.49,1.82c.39.2.86.17,1.23-.08.36-.24.55-.64.51-1.07l-.36-3.87c-.06-.61-.09-1.22-.09-1.88,0-.2.07-.39.22-.54.15-.15.36-.24.57-.24h0c.63.01,1.28.05,1.91.11l4.12.39c.44.04.87-.16,1.11-.52.24-.36.26-.81.06-1.19l-1.94-3.59c-.27-.5-.54-1.06-.82-1.69-.08-.19-.08-.4,0-.59.08-.2.24-.35.44-.43.54-.22,1.14-.42,1.81-.63l3.78-1.14c.43-.13.73-.46.82-.89.09-.43-.07-.85-.41-1.13l-3.04-2.49Z"/><path class="cls-2" d="M50.49,183.21l-3.66,2.99c-.34.28-.49.7-.4,1.13.09.43.39.76.81.89l4.13,1.24c.5.15,1.02.33,1.64.57.2.08.36.24.44.44.08.19.07.4-.01.59-.19.43-.38.83-.59,1.22l-1.96,3.71h.45l1.86-3.52c.21-.4.41-.8.6-1.24.13-.29.14-.61.02-.9-.12-.3-.36-.54-.67-.66-.63-.24-1.16-.42-1.67-.58l-4.13-1.24c-.28-.09-.48-.31-.54-.59-.06-.28.04-.56.26-.74l3.66-2.99c.39-.32.74-.64,1.04-.91.24-.22.37-.52.37-.84,0-.32-.12-.62-.35-.84-.42-.4-.86-.79-1.32-1.17l-3.04-2.49c-.22-.18-.32-.46-.27-.74.06-.28.26-.5.54-.59l3.78-1.15c.68-.21,1.28-.42,1.83-.64.3-.12.54-.36.66-.65.12-.29.12-.61,0-.9-.24-.55-.51-1.12-.84-1.72l-1.94-3.59c-.13-.25-.12-.54.04-.78.16-.25.44-.38.74-.35l4.12.39c.66.07,1.31.1,1.94.1.31,0,.63-.12.86-.35.22-.22.35-.52.34-.83,0-.69-.04-1.31-.1-1.91l-.36-3.86c-.03-.28.1-.54.34-.71.25-.17.55-.19.82-.05l3.5,1.82c.54.28,1.07.53,1.6.76.3.13.63.13.93,0,.3-.13.53-.36.64-.65.18-.44.33-.88.47-1.29l1.43-4.45c.09-.27.31-.47.6-.52.29-.06.58.04.77.26l2.74,3.28c.36.43.75.87,1.18,1.31.23.23.53.35.85.35h0c.33,0,.63-.13.86-.36.36-.37.66-.7.93-1.01l3.08-3.57c.19-.22.48-.32.77-.26.28.06.5.25.58.52l1.44,4.46c.12.37.25.75.4,1.14.11.3.34.53.64.66.3.13.65.12.94-.01.41-.18.77-.35,1.11-.52l4.39-2.24c.27-.14.57-.12.82.05.24.16.36.42.34.7l-.44,4.83c-.04.4-.06.8-.08,1.21,0,.32.11.62.34.85.23.23.57.35.88.35.39-.01.8-.03,1.23-.06l4.75-.39c.29-.03.57.1.73.35.16.24.17.53.04.78l-2.19,4.15c-.21.4-.41.8-.6,1.22-.13.29-.14.62-.02.92.12.3.35.53.66.65.58.22,1.13.41,1.68.58l4.13,1.24c.28.09.48.31.54.59.06.28-.04.56-.26.74l-3.65,2.99c-.34.26-.68.56-1.05.91-.23.22-.37.53-.37.85,0,.32.13.61.36.83.42.4.86.8,1.32,1.18l3.04,2.49c.22.18.32.45.27.73-.06.29-.26.51-.55.59l-3.78,1.14c-.69.21-1.29.42-1.83.64-.3.12-.54.35-.66.65-.12.29-.12.61,0,.9.27.6.55,1.18.84,1.72l1.61,2.99h.45l-1.71-3.18c-.28-.53-.56-1.1-.82-1.69-.08-.19-.08-.4,0-.59.08-.2.24-.35.44-.43.54-.22,1.13-.42,1.8-.63l3.78-1.14c.43-.13.74-.47.82-.9.08-.43-.07-.84-.41-1.12l-3.04-2.49c-.45-.37-.89-.76-1.3-1.16-.15-.14-.23-.34-.23-.54,0-.21.09-.41.24-.56.36-.34.69-.63,1.03-.89l3.66-3c.34-.28.49-.7.4-1.13-.09-.43-.39-.76-.81-.89l-4.13-1.25c-.55-.16-1.09-.35-1.65-.57-.2-.08-.36-.23-.44-.43-.08-.2-.08-.41.01-.61.19-.42.38-.81.59-1.2l2.19-4.15c.2-.38.18-.83-.06-1.19-.24-.37-.65-.56-1.09-.52l-4.75.39c-.42.04-.82.05-1.2.06-.22,0-.43-.08-.58-.23-.15-.15-.23-.35-.22-.55.02-.39.04-.79.08-1.18l.44-4.83c.04-.43-.15-.83-.51-1.07-.37-.25-.82-.28-1.22-.07l-4.39,2.24c-.33.17-.68.33-1.09.51-.2.09-.43.09-.63,0-.2-.08-.35-.24-.42-.43-.15-.38-.28-.75-.4-1.11l-1.44-4.46c-.13-.41-.46-.7-.88-.79-.43-.09-.86.05-1.15.39l-3.08,3.57c-.26.31-.55.63-.91.99-.3.31-.85.31-1.15,0-.42-.43-.81-.86-1.15-1.28l-2.74-3.28c-.28-.34-.71-.48-1.15-.4-.43.09-.77.38-.9.79l-1.43,4.45c-.13.41-.28.84-.46,1.27-.08.2-.23.35-.43.43-.2.08-.42.08-.62,0-.53-.23-1.04-.47-1.57-.75l-3.5-1.82c-.39-.2-.86-.17-1.23.07-.36.24-.55.65-.51,1.07l.36,3.86c.06.58.09,1.2.1,1.87,0,.21-.08.4-.23.55-.15.15-.35.23-.58.23-.62,0-1.26-.04-1.9-.1l-4.12-.39c-.44-.04-.87.16-1.11.53-.24.36-.26.8-.05,1.18l1.94,3.59c.32.6.59,1.15.82,1.69.08.19.08.39,0,.59-.08.2-.24.35-.44.43-.54.22-1.13.42-1.8.63l-3.78,1.14c-.43.13-.73.46-.82.89-.09.43.07.85.41,1.12l3.04,2.49c.45.37.89.75,1.3,1.15.15.14.23.34.23.55,0,.21-.09.41-.24.55-.29.27-.64.59-1.02.9Z"/></g></svg>