<?xml version="1.0" encoding="UTF-8"?><svg id="Layer_2" xmlns="http://www.w3.org/2000/svg" viewBox="0 0 87.73 86.04"><defs><style>.cls-1{fill:#26d37c;stroke-width:0px;}</style></defs><g id="GUIDELINES"><path class="cls-1" d="M35.43,86.04c-.12,0-.24-.01-.36-.04-.61-.13-1.09-.55-1.27-1.14l-2.23-6.93c-.23-.7-.42-1.24-.62-1.74-.13-.34-.4-.61-.74-.75-.35-.15-.74-.14-1.08,0-.55.24-1.1.5-1.69.8l-6.82,3.48c-.57.29-1.23.25-1.76-.11-.52-.35-.79-.93-.74-1.54l.69-7.51c.05-.6.09-1.22.11-1.84.01-.36-.12-.7-.38-.96-.26-.26-.61-.41-.98-.41h-.03c-.51.02-1.19.04-1.88.1l-7.37.61c-.64.06-1.23-.23-1.58-.75-.34-.52-.38-1.15-.09-1.71l3.41-6.45c.32-.6.62-1.23.92-1.9.15-.33.15-.69.02-1.03-.14-.34-.42-.61-.76-.75-.98-.37-1.79-.65-2.57-.89l-6.41-1.94c-.61-.19-1.05-.67-1.18-1.29-.12-.61.09-1.22.58-1.62l5.68-4.66c.57-.47,1.1-.95,1.6-1.4.27-.25.42-.6.42-.96,0-.36-.14-.7-.4-.95-.66-.63-1.34-1.23-2.02-1.79l-4.72-3.87c-.49-.4-.71-1-.59-1.62.12-.62.57-1.1,1.18-1.29l5.87-1.78c1.02-.31,1.94-.63,2.81-.98.35-.14.62-.4.76-.74.14-.33.13-.69-.01-1.02-.37-.87-.81-1.76-1.29-2.64l-3.01-5.58c-.3-.55-.27-1.19.08-1.71.35-.54.95-.82,1.61-.76l6.4.61c1,.1,2,.16,2.97.17.38,0,.73-.14.99-.4.25-.25.39-.59.39-.94,0-1.02-.06-1.98-.15-2.93l-.56-6.01c-.06-.61.22-1.19.74-1.54.53-.36,1.2-.4,1.77-.11l5.44,2.82c.79.41,1.59.79,2.46,1.17.34.15.72.15,1.07,0,.34-.14.61-.41.74-.75.26-.66.5-1.33.72-1.98l2.22-6.92c.19-.59.68-1.02,1.3-1.15.63-.12,1.25.09,1.66.58l4.26,5.09c.57.68,1.18,1.35,1.81,2,.26.26.6.41.98.41h0c.38,0,.73-.15,1-.42.53-.53.99-1.04,1.42-1.55l4.78-5.56c.42-.48,1.04-.69,1.67-.56.61.13,1.09.55,1.27,1.14l2.24,6.94c.18.56.38,1.15.61,1.74.13.34.39.6.73.74.35.15.74.14,1.09-.01.59-.26,1.16-.53,1.7-.8l6.82-3.48c.57-.29,1.23-.25,1.76.1.52.35.79.93.73,1.54l-.69,7.51c-.05.58-.09,1.18-.12,1.85-.01.36.12.7.38.96.26.27.65.41,1.01.41.55-.02,1.2-.04,1.88-.1l7.38-.61c.63-.05,1.23.23,1.58.75.34.52.38,1.15.09,1.71l-3.41,6.45c-.31.58-.61,1.19-.92,1.87-.15.34-.16.71-.02,1.05.14.34.41.61.75.74.82.32,1.67.61,2.58.89l6.41,1.94c.61.18,1.05.66,1.17,1.29.12.61-.09,1.22-.58,1.62l-5.68,4.66c-.52.41-1.04.86-1.61,1.39h0c-.27.25-.42.6-.42.97,0,.36.14.7.4.95.67.64,1.33,1.23,2.03,1.8l4.72,3.87c.49.4.71,1,.59,1.62-.12.62-.57,1.1-1.18,1.29l-5.88,1.77c-1.03.32-1.96.64-2.82.98-.35.14-.61.4-.75.74-.14.33-.13.69.01,1.02.42.97.84,1.83,1.29,2.64l3.01,5.58c.3.55.27,1.19-.08,1.71-.36.54-.96.81-1.6.75l-6.4-.61c-.98-.09-1.98-.15-2.98-.17h-.01c-.37,0-.72.14-.98.41-.25.25-.39.59-.39.94,0,1.02.06,1.98.15,2.93l.56,6.02c.06.61-.22,1.19-.74,1.54-.53.36-1.2.4-1.77.11l-5.43-2.83c-.81-.43-1.64-.81-2.46-1.16-.34-.15-.73-.15-1.07,0-.35.15-.61.42-.75.76-.28.69-.51,1.34-.71,1.96l-2.23,6.93c-.19.6-.68,1.02-1.3,1.15-.63.12-1.25-.09-1.66-.58l-4.26-5.09c-.59-.72-1.21-1.39-1.82-2-.26-.26-.6-.41-.97-.41h0c-.37,0-.73.15-.98.41-.53.54-1,1.05-1.43,1.56l-4.78,5.55c-.34.39-.8.6-1.3.6ZM29.66,74.99c.23,0,.45.04.67.13.43.18.77.52.93.95.2.51.4,1.06.63,1.76l2.23,6.93c.15.46.52.8,1.01.9.5.11,1-.06,1.33-.45l4.78-5.55c.43-.51.91-1.03,1.45-1.58.32-.33.76-.51,1.24-.51.47,0,.9.18,1.22.51.62.62,1.24,1.3,1.84,2.02l4.26,5.09c.32.39.82.56,1.32.46.5-.1.88-.44,1.03-.91l2.23-6.93c.2-.63.43-1.28.71-1.99.17-.43.5-.77.94-.95.44-.18.91-.18,1.34,0,.83.35,1.66.74,2.48,1.17l5.43,2.83c.46.23.99.2,1.41-.09.41-.28.63-.73.58-1.22l-.56-6.02c-.09-.96-.14-1.93-.15-2.96,0-.45.17-.87.49-1.19.32-.32.77-.51,1.23-.51,0,0,.01,0,.02,0,1.01.02,2.03.08,3.01.17l6.4.61c.52.05,1-.17,1.28-.6.27-.41.3-.91.06-1.35l-3.01-5.58c-.44-.82-.87-1.69-1.3-2.67-.18-.41-.19-.87-.01-1.29.17-.42.52-.76.95-.93.87-.35,1.8-.67,2.85-.99l5.88-1.77c.49-.15.84-.53.94-1.02.1-.48-.08-.96-.47-1.28l-4.72-3.87c-.7-.57-1.37-1.17-2.05-1.82-.33-.32-.51-.74-.51-1.2,0-.47.19-.9.53-1.22h0c.57-.54,1.1-1,1.63-1.41l5.68-4.66c.38-.32.56-.79.46-1.28-.1-.49-.45-.87-.93-1.02l-6.41-1.94c-.92-.28-1.77-.57-2.61-.9-.44-.17-.77-.51-.95-.94s-.17-.9.02-1.33c.31-.69.61-1.31.93-1.89l3.41-6.45c.23-.44.2-.94-.07-1.35-.28-.42-.75-.65-1.26-.6l-7.38.61c-.69.06-1.35.09-1.9.1-.01,0-.02,0-.03,0-.46,0-.91-.19-1.23-.51-.33-.33-.5-.76-.48-1.22.03-.67.07-1.28.12-1.87l.69-7.51c.05-.49-.17-.94-.58-1.22-.42-.29-.95-.32-1.41-.08l-6.82,3.48c-.54.27-1.12.55-1.72.81-.43.19-.93.19-1.36.01-.43-.18-.76-.51-.93-.94-.23-.6-.44-1.19-.62-1.76l-2.24-6.94c-.15-.46-.52-.8-1.01-.9-.5-.1-1,.06-1.33.44l-4.78,5.55c-.44.52-.91,1.03-1.44,1.57-.33.34-.77.52-1.24.52h0c-.47,0-.9-.18-1.23-.51-.64-.66-1.25-1.34-1.83-2.02l-4.26-5.09c-.32-.39-.82-.56-1.32-.46-.5.1-.88.44-1.03.91l-2.22,6.92c-.22.66-.46,1.34-.72,2-.17.43-.5.76-.93.94-.43.18-.91.18-1.34,0-.88-.38-1.69-.76-2.48-1.18l-5.44-2.82c-.46-.23-.98-.2-1.41.08-.41.28-.63.73-.59,1.22l.56,6.01c.09.96.14,1.93.15,2.96,0,.45-.17.87-.49,1.19-.33.33-.76.51-1.23.51,0,0-.01,0-.02,0-.98,0-1.99-.06-3-.17l-6.4-.61c-.52-.05-1,.18-1.28.61-.27.41-.29.91-.06,1.35l3.01,5.58c.48.89.92,1.79,1.3,2.67.18.41.19.87.01,1.29-.17.42-.52.77-.95.93-.88.35-1.81.68-2.84.99l-5.88,1.78c-.49.15-.84.53-.94,1.02-.1.48.08.96.46,1.28l4.73,3.87c.69.56,1.37,1.17,2.04,1.81.33.32.51.74.51,1.2,0,.46-.19.9-.53,1.22-.5.46-1.04.94-1.61,1.41l-5.68,4.66c-.38.32-.56.79-.46,1.28.1.49.45.87.93,1.02l6.41,1.94c.79.24,1.61.52,2.59.9.43.17.78.51.96.94.17.43.17.89-.02,1.3-.3.68-.6,1.31-.93,1.92l-3.41,6.45c-.23.44-.2.94.07,1.35.28.42.74.64,1.25.6l7.37-.61c.7-.06,1.38-.09,1.9-.1.48-.02.94.18,1.27.51.33.33.5.76.48,1.22-.02.63-.06,1.26-.11,1.87l-.69,7.51c-.04.49.17.94.58,1.22.42.29.95.32,1.4.08l6.82-3.48c.59-.3,1.15-.56,1.71-.81.22-.1.46-.15.69-.15Z"/></g></svg>