<?xml version="1.0" encoding="UTF-8"?><svg id="Layer_2" xmlns="http://www.w3.org/2000/svg" viewBox="0 0 39.66 35.59"><defs><style>.cls-1{fill:#d81ab4;stroke-width:0px;}</style></defs><g id="GUIDELINES"><path class="cls-1" d="M39,15.78c.28.24.41.59.34.95-.07.37-.33.65-.69.76l-3.2.96c-.57.18-1.07.36-1.53.54-.17.07-.3.19-.37.36-.07.16-.07.34,0,.5.24.54.47,1.01.7,1.43l1.64,3.04c.17.33.15.7-.05,1.01-.21.31-.57.48-.94.45l-3.49-.34c-.54-.05-1.08-.08-1.62-.09h-.01c-.18,0-.35.08-.48.2-.12.13-.19.29-.19.46,0,.56.03,1.08.08,1.59l.31,3.28c.03.36-.13.7-.43.9-.31.21-.71.24-1.04.07l-2.96-1.54c-.43-.23-.87-.44-1.34-.63-.16-.07-.35-.07-.52,0-.17.07-.3.2-.37.37-.16.41-.28.75-.38,1.07l-1.22,3.77c-.11.35-.39.6-.76.68-.37.07-.73-.06-.97-.35l-2.33-2.77c-.32-.38-.65-.75-.98-1.08-.13-.13-.3-.2-.48-.2-.19,0-.36.07-.48.19-.3.3-.55.58-.78.85l-2.6,3.03c-.2.22-.48.35-.77.35-.07,0-.14-.01-.21-.02-.36-.08-.64-.33-.75-.67l-1.22-3.78c-.11-.35-.22-.66-.33-.94-.07-.17-.2-.3-.37-.37-.17-.07-.36-.07-.53,0-.3.13-.6.28-.91.44l-3.72,1.89c-.34.17-.72.15-1.03-.06-.31-.21-.47-.55-.44-.91l.38-4.09c.03-.34.05-.67.06-1,.01-.18-.06-.34-.18-.47-.13-.13-.31-.21-.5-.2-.38.01-.71.03-1.02.05l-.32.03v-.33l.29-.03c.32-.03.66-.05,1.04-.06.28,0,.55.1.75.3.19.2.29.45.28.72-.01.34-.03.67-.06,1.02l-.38,4.09c-.02.24.09.46.29.6.2.14.46.15.69.04l3.71-1.89c.32-.17.63-.31.93-.45.26-.11.54-.11.8,0,.26.1.45.3.55.56.12.28.23.6.35.96l1.21,3.77c.07.23.26.4.5.45.24.05.49-.04.65-.22l2.6-3.03c.24-.27.5-.56.79-.86.19-.19.46-.3.73-.3s.53.11.72.3c.34.34.68.71,1,1.1l2.32,2.78c.16.19.41.27.65.22.25-.04.44-.21.51-.44l1.22-3.78c.1-.32.22-.67.39-1.08.1-.26.29-.46.55-.56.26-.11.53-.11.79,0,.47.19.91.4,1.36.64l2.95,1.54c.23.11.49.1.7-.04.2-.14.3-.36.28-.6l-.31-3.28c-.05-.52-.07-1.05-.07-1.62-.01-.26.09-.51.28-.69.19-.19.45-.3.73-.3.55.01,1.1.04,1.65.09l3.49.33c.26.02.49-.09.63-.3.13-.2.14-.44.03-.66l-1.64-3.03c-.24-.44-.47-.92-.71-1.46-.11-.25-.11-.52-.01-.77.11-.25.31-.45.56-.54.47-.19.98-.37,1.56-.55l3.2-.96c.24-.07.41-.26.46-.5s-.04-.47-.23-.63l-2.57-2.11c-.36-.29-.73-.61-1.12-.99-.2-.18-.3-.43-.3-.7s.11-.54.31-.72c.31-.3.6-.55.89-.78l3.09-2.53c.19-.16.27-.39.23-.63-.05-.24-.22-.43-.46-.5l-3.49-1.06c-.47-.14-.94-.3-1.43-.49-.26-.1-.45-.3-.56-.55-.1-.25-.09-.53.02-.78.16-.37.33-.71.51-1.04l1.67-3.16h.39l-1.77,3.32c-.17.32-.33.65-.49,1.02-.08.16-.08.35-.01.51.06.17.2.3.37.37.47.18.93.34,1.4.48l3.49,1.06c.36.11.62.39.69.75.07.36-.06.72-.34.96l-3.1,2.54c-.28.22-.57.46-.87.75-.13.13-.21.3-.21.48,0,.17.07.34.2.46.39.37.75.69,1.1.97l2.58,2.11Z"/></g></svg>