<?xml version="1.0" encoding="UTF-8"?><svg id="Layer_2" xmlns="http://www.w3.org/2000/svg" viewBox="0 0 110.25 195.99"><defs><style>.cls-1,.cls-2{stroke-width:0px;}.cls-2{fill:#fff;}</style></defs><g id="GUIDELINES"><path class="cls-1" d="M0,0v195.99h110.25V0H0ZM7.09,49.95h87.54c4.73,0,8.55,3.82,8.55,8.53v87.56H15.62c-4.72,0-8.53-3.82-8.53-8.54V49.95Z"/><path class="cls-2" d="M57.36,42.87H9.01c-2.39-4.52-2.1-9.12-1.86-12.72.31-4.53.35-7.01-2.23-9.56-1.44-1.42-2.84-2.03-4.61-2.23-.05-.01-.1-.02-.15-.02-.02-.01-.03-.01-.05-.01-.03,0-.06-.01-.1-.01V0h8.44c.51.03,1.03.08,1.55.15.32.04.65.09.97.15,3,.54,6.14,1.85,9.1,4.77.02.03.05.04.06.07h.01l.02-.02c5.83,5.77,5.39,12.3,5.07,17.07-.27,3.95-.33,6.34,1.33,8.57.08.11.16.2.25.31l.18.21c.12.13.24.26.38.39,2.57,2.54,5.06,2.48,9.61,2.15,4.33-.32,10.09-.73,15.46,3.46.07.04.13.08.2.14.07.05.13.1.2.15.1.1.21.19.31.27.11.09.21.17.31.26.28.24.56.5.83.77,1.32,1.3,2.32,2.64,3.07,4Z"/><path class="cls-2" d="M110.25,180.19v15.8h-14.9c-.06-.06-.11-.11-.16-.16s-.1-.1-.15-.14h-.01c-2.47-2.24-4.95-2.18-9.31-1.86-4.78.36-11.35.84-17.18-4.93s-5.4-12.3-5.07-17.08c.3-4.54.33-7.03-2.25-9.58l-.13-.13c-.08-.07-.15-.14-.23-.21-2.46-2.19-4.93-2.13-9.26-1.82-4.8.36-11.36.85-17.19-4.92-.68-.67-1.28-1.35-1.78-2.04h47.92c1.37,3.84,1.13,7.61.92,10.67-.3,4.54-.35,7.03,2.23,9.58,2.58,2.54,5.07,2.49,9.64,2.16,4.02-.3,9.29-.69,14.33,2.6.76.5,1.53,1.09,2.27,1.78.05.04.1.08.15.14.05.04.1.08.15.13h.01Z"/></g></svg>