<?xml version="1.0" encoding="UTF-8"?><svg id="Layer_2" xmlns="http://www.w3.org/2000/svg" viewBox="0 0 110.29 196"><defs><style>.cls-1,.cls-2{stroke-width:0px;}.cls-2{fill:#fff;}</style></defs><g id="GUIDELINES"><path class="cls-2" d="M.05,0v196h110.24V0H.05ZM7.11,49.95c8.76,0,16.96,2.34,24.03,6.43v-6.43c8.75,0,16.96,2.34,24.03,6.44v-6.44c26.54,0,48.06,21.52,48.06,48.06s-21.52,48.04-48.06,48.04v-6.43c-7.07,4.09-15.28,6.43-24.03,6.43v-6.43c-7.07,4.09-15.27,6.43-24.03,6.43V49.95Z"/><path class="cls-1" d="M16.89,180.99c-3.96,0-7.17,3.22-7.17,7.17s3.22,7.17,7.17,7.17,7.17-3.22,7.17-7.17-3.22-7.17-7.17-7.17Z"/><path class="cls-1" d="M31.04,174.02c-3.78-3.78-8.8-5.86-14.15-5.86s-10.36,2.08-14.14,5.86c-.92.92-1.74,1.91-2.45,2.96-.11.16-.21.31-.3.47v18.55h7.91c-.09-.09-.17-.19-.25-.29-1.69-2.06-2.7-4.69-2.7-7.55,0-6.58,5.35-11.94,11.93-11.94s11.94,5.36,11.94,11.94c0,2.86-1.01,5.49-2.7,7.55-.08.1-.16.2-.25.29h9.43c.04-.1.08-.19.12-.29.97-2.37,1.47-4.92,1.47-7.55,0-5.34-2.08-10.37-5.86-14.14Z"/><path class="cls-1" d="M47.14,175.38c-1.66-3.91-4.02-7.42-7.04-10.43-3.01-3.01-6.52-5.38-10.43-7.03-4.05-1.72-8.35-2.58-12.78-2.58s-8.73.86-12.77,2.58c-1.32.56-2.59,1.2-3.82,1.92-.1.05-.2.11-.3.18v10.07c.1-.1.2-.19.3-.28,4.39-3.98,10.22-6.41,16.59-6.41,13.66,0,24.76,11.11,24.76,24.76,0,2.63-.41,5.17-1.19,7.55-.02.1-.05.19-.1.29h8.42c.02-.09.04-.19.07-.29.58-2.46.87-4.98.87-7.55,0-4.43-.87-8.73-2.58-12.78Z"/><path class="cls-1" d="M95.77,16.59c-4.02,0-7.3-3.27-7.3-7.3s3.27-7.3,7.3-7.3,7.3,3.27,7.3,7.3-3.27,7.3-7.3,7.3ZM95.77,2.24c-3.89,0-7.05,3.16-7.05,7.05s3.16,7.05,7.05,7.05,7.05-3.16,7.05-7.05-3.16-7.05-7.05-7.05Z"/><path class="cls-1" d="M103.12.05c2.84,2.26,4.46,5.62,4.46,9.23,0,6.51-5.3,11.81-11.81,11.81s-11.81-5.3-11.81-11.81c0-3.61,1.63-6.97,4.46-9.23.02-.02.04-.03.06-.05h-.38c-2.79,2.3-4.39,5.67-4.39,9.28,0,6.65,5.41,12.06,12.06,12.06s12.06-5.41,12.06-12.06c0-3.61-1.6-6.98-4.39-9.28h-.38l.07.05Z"/><path class="cls-1" d="M110.29,22.87s-.08.09-.12.13c-.11.12-.23.24-.34.35-3.76,3.76-8.75,5.82-14.06,5.82s-10.3-2.07-14.05-5.82c-3.76-3.75-5.82-8.75-5.82-14.06,0-3.22.79-6.43,2.29-9.27,0,0,0,0,0,0h-.28c-1.48,2.85-2.26,6.06-2.26,9.28,0,5.38,2.09,10.44,5.9,14.24,3.8,3.8,8.86,5.9,14.23,5.9s10.44-2.09,14.24-5.9c.09-.09.19-.19.28-.29v-.36Z"/><path class="cls-1" d="M110.29,38.59s-.05.03-.08.04c-.52.26-1.08.52-1.7.79-4.04,1.71-8.32,2.57-12.73,2.57s-8.69-.86-12.73-2.57c-3.9-1.66-7.4-4.02-10.39-7.01-3.01-3.01-5.36-6.5-7-10.39-1.71-4.04-2.57-8.32-2.57-12.73,0-3.18.45-6.3,1.34-9.28h-.26c-.88,2.98-1.33,6.1-1.33,9.28,0,4.44.87,8.76,2.59,12.83,1.65,3.92,4.03,7.44,7.06,10.47,3.01,3.02,6.54,5.39,10.47,7.07,4.07,1.72,8.39,2.59,12.83,2.59s8.76-.87,12.83-2.59c.63-.27,1.18-.53,1.69-.78v-.28Z"/><path class="cls-1" d="M95.77,34.17c5.26,0,10.27-1.63,14.52-4.7v-.31s-.06.05-.09.07h0c-4.21,3.07-9.2,4.69-14.42,4.69-13.58,0-24.64-11.05-24.64-24.63,0-3.22.61-6.33,1.83-9.28h-.27c-1.2,2.94-1.81,6.06-1.81,9.28,0,13.72,11.16,24.88,24.89,24.88Z"/></g></svg>