<?xml version="1.0" encoding="UTF-8"?><svg id="Layer_2" xmlns="http://www.w3.org/2000/svg" viewBox="0 0 39.2 38.44"><defs><style>.cls-1{fill:#26d37c;}.cls-1,.cls-2{stroke-width:0px;}.cls-2{fill:#fff;}</style></defs><g id="DESIGN"><path class="cls-1" d="M35.68,18.86c-.28.26-.29.71,0,.97.29.28.6.55.92.81l2.12,1.73c.42.34.29,1.01-.24,1.17l-2.64.79c-.43.13-.85.28-1.27.44-.36.14-.53.55-.38.89.18.41.37.8.58,1.19l1.35,2.5c.26.48-.13,1.04-.68.99l-2.87-.27c-.45-.04-.9-.07-1.34-.07-.39,0-.7.3-.7.68,0,.44.02.88.07,1.32l.25,2.7c.05.53-.53.91-1.01.66l-2.43-1.27c-.36-.19-.73-.36-1.11-.52-.36-.15-.78.03-.92.39-.12.29-.22.58-.32.89l-1,3.11c-.17.51-.84.64-1.19.23l-1.91-2.28c-.26-.31-.53-.62-.82-.9-.27-.28-.72-.27-.99,0-.22.23-.44.46-.65.7l-2.14,2.49c-.35.41-1.02.28-1.18-.23l-1-3.11c-.09-.26-.18-.53-.28-.79-.14-.36-.56-.53-.92-.38-.26.11-.51.23-.76.36l-3.06,1.56c-.48.25-1.06-.13-1.01-.66l.31-3.37c.03-.28.04-.55.05-.83.01-.39-.31-.7-.7-.7-.28,0-.56.02-.85.05l-3.31.27c-.54.05-.92-.51-.67-.99l1.53-2.89c.15-.28.29-.57.41-.86.16-.35-.02-.76-.38-.9-.38-.14-.77-.28-1.16-.4l-2.88-.87c-.52-.16-.66-.82-.24-1.17l2.55-2.09c.25-.2.48-.41.72-.63.28-.27.29-.71,0-.97-.29-.28-.6-.55-.91-.81l-2.12-1.73c-.42-.34-.29-1.01.24-1.17l2.64-.8c.43-.13.85-.28,1.27-.44.36-.14.53-.55.38-.89-.17-.41-.37-.8-.58-1.19l-1.35-2.5c-.26-.48.13-1.04.68-.99l2.87.27c.45.05.9.07,1.34.07.39,0,.7-.3.7-.68,0-.44-.02-.88-.07-1.32l-.25-2.7c-.05-.53.53-.91,1.01-.66l2.44,1.27c.36.19.73.36,1.11.53.36.15.77-.02.92-.38.12-.29.22-.59.32-.89l1-3.1c.17-.51.84-.64,1.19-.23l1.91,2.29c.26.31.53.61.82.9.27.28.72.27,1,0,.22-.22.43-.45.64-.7L22.86.24c.35-.4,1.02-.28,1.18.23l1.01,3.11c.08.26.18.53.28.79.14.36.56.53.92.37.26-.11.51-.23.77-.36l3.06-1.56c.48-.25,1.06.13,1.01.66l-.31,3.37c-.02.28-.04.55-.05.83-.01.39.31.7.7.7.28,0,.56-.02.85-.05l3.31-.27c.54-.05.92.51.67.99l-1.53,2.89c-.15.28-.29.56-.41.84-.16.35,0,.77.37.91.38.15.77.28,1.16.4l2.88.87c.52.16.66.82.24,1.17l-2.55,2.09c-.25.2-.49.41-.72.63Z"/><path class="cls-2" d="M21.98,10.66c-.69.82-1.55,1.11-2.05,1.22-.17.03-.3.05-.36.06l-.5.04c-.03-.38-.14-.95-.51-1.54-.39-.64-.9-1.01-1.25-1.21l.42-.75c.44.25,1.08.71,1.57,1.5.15.25.28.52.37.79.11-.44.32-.95.72-1.44.92-1.1,2.17-1.25,2.41-1.28.02.24.11,1.5-.81,2.6Z"/><path class="cls-2" d="M19.91,12.33c.09-.04.18-.08.27-.11.4-.16.79-.31,1.21-.4s.84-.14,1.27-.15c.62,0,1.24.07,1.83.27,1.49.49,2.48,1.53,3.07,2.96.28.68.46,1.4.48,2.14.11,3.08-.78,6.26-2.7,8.71-1.38,1.76-3.45,2.79-5.66,1.98-.32-.12-.64.02-.96.11-.44.12-.89.19-1.34.17-1.95-.07-3.54-1.63-4.54-3.18-1.41-2.2-2.22-4.84-2.16-7.45.03-1.49.5-2.85,1.53-3.96,1.2-1.29,2.7-1.81,4.45-1.65.61.05,1.2.21,1.76.42.34.13.7.27,1.07.25.14,0,.28-.05.41-.1Z"/></g></svg>