<?xml version="1.0" encoding="UTF-8"?><svg id="Layer_2" xmlns="http://www.w3.org/2000/svg" viewBox="0 0 39.2 38.44"><defs><style>.cls-1,.cls-2,.cls-3{stroke-width:0px;}.cls-2{fill:#d81ab4;}.cls-3{fill:#fff;}</style></defs><g id="DESIGN"><path class="cls-2" d="M35.68,18.86c-.28.26-.29.71,0,.97.29.28.6.55.92.81l2.12,1.73c.42.34.29,1.01-.24,1.17l-2.64.79c-.43.13-.85.28-1.27.44-.36.14-.53.55-.38.89.18.41.37.8.58,1.19l1.35,2.5c.26.48-.13,1.04-.68.99l-2.87-.27c-.45-.04-.9-.07-1.34-.07-.39,0-.7.3-.7.68,0,.44.02.88.07,1.32l.25,2.7c.05.53-.53.91-1.01.66l-2.43-1.27c-.36-.19-.73-.36-1.11-.52-.36-.15-.78.03-.92.39-.12.29-.22.58-.32.89l-1,3.11c-.17.51-.84.64-1.19.23l-1.91-2.28c-.26-.31-.53-.62-.82-.9-.27-.28-.72-.27-.99,0-.22.23-.44.46-.65.7l-2.14,2.49c-.35.41-1.02.28-1.18-.23l-1-3.11c-.09-.26-.18-.53-.28-.79-.14-.36-.56-.53-.92-.38-.26.11-.51.23-.76.36l-3.06,1.56c-.48.25-1.06-.13-1.01-.66l.31-3.37c.03-.28.04-.55.05-.83.01-.39-.31-.7-.7-.7-.28,0-.56.02-.85.05l-3.31.27c-.54.05-.92-.51-.67-.99l1.53-2.89c.15-.28.29-.57.41-.86.16-.35-.02-.76-.38-.9-.38-.14-.77-.28-1.16-.4l-2.88-.87c-.52-.16-.66-.82-.24-1.17l2.55-2.09c.25-.2.48-.41.72-.63.28-.27.29-.71,0-.97-.29-.28-.6-.55-.91-.81l-2.12-1.73c-.42-.34-.29-1.01.24-1.17l2.64-.8c.43-.13.85-.28,1.27-.44.36-.14.53-.55.38-.89-.17-.41-.37-.8-.58-1.19l-1.35-2.5c-.26-.48.13-1.04.68-.99l2.87.27c.45.05.9.07,1.34.07.39,0,.7-.3.7-.68,0-.44-.02-.88-.07-1.32l-.25-2.7c-.05-.53.53-.91,1.01-.66l2.44,1.27c.36.19.73.36,1.11.53.36.15.77-.02.92-.38.12-.29.22-.59.32-.89l1-3.1c.17-.51.84-.64,1.19-.23l1.91,2.29c.26.31.53.61.82.9.27.28.72.27,1,0,.22-.22.43-.45.64-.7L22.86.24c.35-.4,1.02-.28,1.18.23l1.01,3.11c.08.26.18.53.28.79.14.36.56.53.92.37.26-.11.51-.23.77-.36l3.06-1.56c.48-.25,1.06.13,1.01.66l-.31,3.37c-.02.28-.04.55-.05.83-.01.39.31.7.7.7.28,0,.56-.02.85-.05l3.31-.27c.54-.05.92.51.67.99l-1.53,2.89c-.15.28-.29.56-.41.84-.16.35,0,.77.37.91.38.15.77.28,1.16.4l2.88.87c.52.16.66.82.24,1.17l-2.55,2.09c-.25.2-.49.41-.72.63Z"/><path class="cls-3" d="M25.74,17.09c0,2.32-1.39,4.02-2.62,5.86-.22.33-.43.66-.65.98,0,0,0,0,0,0h-6.54s0,0,0,0c-.61-.9-1.31-1.82-1.9-2.79-.77-1.26-1.36-2.6-1.36-4.05,0-3.59,2.95-6.54,6.54-6.54s6.54,2.95,6.54,6.54Z"/><polygon class="cls-1" points="22.47 23.94 22.3 25.18 16.09 25.18 15.93 23.94 22.47 23.94"/><polygon class="cls-1" points="22.21 25.86 22.07 26.97 16.33 26.97 16.19 25.86 22.21 25.86"/><polygon class="cls-1" points="21.97 27.65 21.82 28.87 16.58 28.87 16.42 27.65 21.97 27.65"/></g></svg>