<?xml version="1.0" encoding="UTF-8"?><svg id="Layer_2" xmlns="http://www.w3.org/2000/svg" viewBox="0 0 39.2 38.44"><defs><style>.cls-1,.cls-2{stroke-width:0px;}.cls-2{fill:#26d37c;}</style></defs><g id="DESIGN"><path class="cls-2" d="M35.68,18.86c-.28.26-.29.71,0,.97.29.28.6.55.92.81l2.12,1.73c.42.34.29,1.01-.24,1.17l-2.64.79c-.43.13-.85.28-1.27.44-.36.14-.53.55-.38.89.18.41.37.8.58,1.19l1.35,2.5c.26.48-.13,1.04-.68.99l-2.87-.27c-.45-.04-.9-.07-1.34-.07-.39,0-.7.3-.7.68,0,.44.02.88.07,1.32l.25,2.7c.05.53-.53.91-1.01.66l-2.43-1.27c-.36-.19-.73-.36-1.11-.52-.36-.15-.78.03-.92.39-.12.29-.22.58-.32.89l-1,3.11c-.17.51-.84.64-1.19.23l-1.91-2.28c-.26-.31-.53-.62-.82-.9-.27-.28-.72-.27-.99,0-.22.23-.44.46-.65.7l-2.14,2.49c-.35.41-1.02.28-1.18-.23l-1-3.11c-.09-.26-.18-.53-.28-.79-.14-.36-.56-.53-.92-.38-.26.11-.51.23-.76.36l-3.06,1.56c-.48.25-1.06-.13-1.01-.66l.31-3.37c.03-.28.04-.55.05-.83.01-.39-.31-.7-.7-.7-.28,0-.56.02-.85.05l-3.31.27c-.54.05-.92-.51-.67-.99l1.53-2.89c.15-.28.29-.57.41-.86.16-.35-.02-.76-.38-.9-.38-.14-.77-.28-1.16-.4l-2.88-.87c-.52-.16-.66-.82-.24-1.17l2.55-2.09c.25-.2.48-.41.72-.63.28-.27.29-.71,0-.97-.29-.28-.6-.55-.91-.81l-2.12-1.73c-.42-.34-.29-1.01.24-1.17l2.64-.8c.43-.13.85-.28,1.27-.44.36-.14.53-.55.38-.89-.17-.41-.37-.8-.58-1.19l-1.35-2.5c-.26-.48.13-1.04.68-.99l2.87.27c.45.05.9.07,1.34.07.39,0,.7-.3.7-.68,0-.44-.02-.88-.07-1.32l-.25-2.7c-.05-.53.53-.91,1.01-.66l2.44,1.27c.36.19.73.36,1.11.53.36.15.77-.02.92-.38.12-.29.22-.59.32-.89l1-3.1c.17-.51.84-.64,1.19-.23l1.91,2.29c.26.31.53.61.82.9.27.28.72.27,1,0,.22-.22.43-.45.64-.7L22.86.24c.35-.4,1.02-.28,1.18.23l1.01,3.11c.08.26.18.53.28.79.14.36.56.53.92.37.26-.11.51-.23.77-.36l3.06-1.56c.48-.25,1.06.13,1.01.66l-.31,3.37c-.02.28-.04.55-.05.83-.01.39.31.7.7.7.28,0,.56-.02.85-.05l3.31-.27c.54-.05.92.51.67.99l-1.53,2.89c-.15.28-.29.56-.41.84-.16.35,0,.77.37.91.38.15.77.28,1.16.4l2.88.87c.52.16.66.82.24,1.17l-2.55,2.09c-.25.2-.49.41-.72.63Z"/><path class="cls-1" d="M13.54,23.31c-.62-1.5-1.23-2.96-1.82-4.4-.04-.1-1.23.45-1.34.5-.73.33-1.36.8-1.47,1.65,0,.05-.01.1-.02.16-.07.85.2,1.76.79,2.38.75.78,1.71.62,2.62.24.41-.17.82-.35,1.24-.52Z"/><path class="cls-1" d="M12.3,18.63c.61,1.48,1.22,2.95,1.84,4.44,2.86.09,5.69.18,8.62.27-1.54-3.72-3.04-7.33-4.56-11-1.99,2.12-3.94,4.2-5.91,6.3Z"/><path class="cls-1" d="M23.84,20.22c-1.17-2.83-2.35-5.66-3.52-8.5-.16-.38-.35-.69-.81-.69-.6,0-.92.55-.66,1.17,1.47,3.57,2.95,7.14,4.43,10.71.24.57.61.78,1.07.6.47-.18.6-.62.35-1.21-.29-.69-.58-1.39-.86-2.08Z"/><path class="cls-1" d="M11.9,24.54c.57,1.39,1.13,2.73,1.72,4.15.64-.26,1.2-.5,1.84-.76-.58-1.41-1.15-2.78-1.72-4.16-.64.27-1.22.51-1.84.77Z"/><path class="cls-1" d="M24.51,16.88c-.14-.47-.34-.93-.59-1.35-.39-.69-.86-.77-1.57-.3.43,1.05.87,2.11,1.31,3.16.91-.31,1.11-.64.85-1.51Z"/><path class="cls-1" d="M26.44,15.78l3.62-1.48c.21-.09.32-.33.23-.54-.09-.21-.33-.32-.54-.23l-3.62,1.48c-.21.09-.32.33-.23.54.07.16.22.26.39.26.05,0,.11,0,.16-.03Z"/><path class="cls-1" d="M24.16,13.45c.07.04.14.06.21.06.14,0,.28-.07.36-.21l1.7-2.92c.12-.2.05-.45-.15-.57-.2-.12-.45-.05-.57.15l-1.7,2.92c-.12.2-.05.45.15.57Z"/><path class="cls-1" d="M29.97,18.88l-3.26-.9c-.22-.06-.45.07-.51.29-.06.22.07.45.29.51l3.26.9s.07.02.11.02c.18,0,.35-.12.4-.31.06-.22-.07-.45-.29-.51Z"/></g></svg>