<?xml version="1.0" encoding="UTF-8"?><svg id="Layer_2" xmlns="http://www.w3.org/2000/svg" viewBox="0 0 39.2 38.44"><defs><style>.cls-1,.cls-2,.cls-3{stroke-width:0px;}.cls-2{fill:#26d37c;}.cls-3{fill:#d81ab4;}</style></defs><g id="DESIGN"><path class="cls-3" d="M35.68,18.86c-.28.26-.29.71,0,.97.29.28.6.55.92.81l2.12,1.73c.42.34.29,1.01-.24,1.17l-2.64.79c-.43.13-.85.28-1.27.44-.36.14-.53.55-.38.89.18.41.37.8.58,1.19l1.35,2.5c.26.48-.13,1.04-.68.99l-2.87-.27c-.45-.04-.9-.07-1.34-.07-.39,0-.7.3-.7.68,0,.44.02.88.07,1.32l.25,2.7c.05.53-.53.91-1.01.66l-2.43-1.27c-.36-.19-.73-.36-1.11-.52-.36-.15-.78.03-.92.39-.12.29-.22.58-.32.89l-1,3.11c-.17.51-.84.64-1.19.23l-1.91-2.28c-.26-.31-.53-.62-.82-.9-.27-.28-.72-.27-.99,0-.22.23-.44.46-.65.7l-2.14,2.49c-.35.41-1.02.28-1.18-.23l-1-3.11c-.09-.26-.18-.53-.28-.79-.14-.36-.56-.53-.92-.38-.26.11-.51.23-.76.36l-3.06,1.56c-.48.25-1.06-.13-1.01-.66l.31-3.37c.03-.28.04-.55.05-.83.01-.39-.31-.7-.7-.7-.28,0-.56.02-.85.05l-3.31.27c-.54.05-.92-.51-.67-.99l1.53-2.89c.15-.28.29-.57.41-.86.16-.35-.02-.76-.38-.9-.38-.14-.77-.28-1.16-.4l-2.88-.87c-.52-.16-.66-.82-.24-1.17l2.55-2.09c.25-.2.48-.41.72-.63.28-.27.29-.71,0-.97-.29-.28-.6-.55-.91-.81l-2.12-1.73c-.42-.34-.29-1.01.24-1.17l2.64-.8c.43-.13.85-.28,1.27-.44.36-.14.53-.55.38-.89-.17-.41-.37-.8-.58-1.19l-1.35-2.5c-.26-.48.13-1.04.68-.99l2.87.27c.45.05.9.07,1.34.07.39,0,.7-.3.7-.68,0-.44-.02-.88-.07-1.32l-.25-2.7c-.05-.53.53-.91,1.01-.66l2.44,1.27c.36.19.73.36,1.11.53.36.15.77-.02.92-.38.12-.29.22-.59.32-.89l1-3.1c.17-.51.84-.64,1.19-.23l1.91,2.29c.26.31.53.61.82.9.27.28.72.27,1,0,.22-.22.43-.45.64-.7L22.86.24c.35-.4,1.02-.28,1.18.23l1.01,3.11c.08.26.18.53.28.79.14.36.56.53.92.37.26-.11.51-.23.77-.36l3.06-1.56c.48-.25,1.06.13,1.01.66l-.31,3.37c-.02.28-.04.55-.05.83-.01.39.31.7.7.7.28,0,.56-.02.85-.05l3.31-.27c.54-.05.92.51.67.99l-1.53,2.89c-.15.28-.29.56-.41.84-.16.35,0,.77.37.91.38.15.77.28,1.16.4l2.88.87c.52.16.66.82.24,1.17l-2.55,2.09c-.25.2-.49.41-.72.63Z"/><path class="cls-2" d="M29.25,19.22c0,.09,0,.18,0,.27-.02.6-.09,1.19-.22,1.77-.32,1.48-.97,2.83-1.89,3.98-1.76,2.21-4.47,3.63-7.52,3.64h-.03c-1.47,0-2.85-.33-4.1-.91-2.08-.97-3.75-2.67-4.7-4.76-.55-1.21-.86-2.56-.86-3.98,0-2,.61-3.86,1.65-5.4.19-.29.4-.56.62-.83.92-1.09,2.07-1.97,3.38-2.56.9-.41,1.87-.69,2.9-.8.36-.04.73-.06,1.1-.06s.72.02,1.07.06c1.61.18,3.11.75,4.39,1.63,2.54,1.74,4.2,4.66,4.2,7.97Z"/><path class="cls-1" d="M19.75,12.21c-.26.35-.81.33-1.21.14-.4-.19-.73-.51-1.14-.66-.62-.23-1.37-.04-1.8.47-.43.5-.49,1.28-.16,1.85.17.29.46.54.8.57.34.03.7-.22.72-.56.02-.4-.4-.78-.25-1.15.1-.25.42-.34.68-.27.26.07.46.26.65.44.35.33.72.68.88,1.13.17.46.06,1.05-.37,1.28-.45.24-1.09.03-1.44.4-.3.33-.14.85.05,1.25.18.4.35.92.06,1.25-.25.28-.71.25-1.05.09-.34-.16-.63-.43-.97-.58-.35-.15-.82-.14-1.03.18-.26.38.04.91.44,1.13.4.22.87.26,1.28.45.41.19.77.65.6,1.07-.12.31-.49.46-.83.43-.33-.03-.63-.19-.92-.36-.66-.37-1.33-.74-1.89-1.26-.56-.52-1-1.19-1.08-1.95-.08-.75.19-1.48.24-2.23.04-.57-.23-1.03-.41-1.51.19-.29.4-.56.62-.83.92-1.09,2.07-1.97,3.38-2.56.9-.41,1.87-.69,2.9-.8.07.42.45.79.79,1.1.41.39.8,1.02.46,1.47Z"/><path class="cls-1" d="M29.25,19.22c0,.09,0,.18,0,.27-.02.6-.09,1.19-.22,1.77-.08-.05-.17-.09-.26-.11-.26-.07-.54-.01-.8-.04-.81-.07-1.46-.93-1.31-1.74.1-.52.46-1.12.13-1.53-.43-.53-1.4.02-1.95-.39-.26-.2-.34-.56-.32-.88.03-.33.14-.64.18-.96.11-.96-.4-1.87-.89-2.7-.21-.35-.5-.74-.9-.69-.26.03-.47.25-.73.25-.37,0-.58-.41-.7-.75-.16-.44-.32-.87-.47-1.3-.1-.27-.2-.54-.33-.79,1.61.18,3.11.75,4.39,1.63,2.54,1.74,4.2,4.66,4.2,7.97Z"/><path class="cls-1" d="M17.01,22.13c.38-.59,1.03-1.03,1.58-1.44.25-.19.53-.38.84-.41.29-.02.56.1.82.23.48.23.96.45,1.45.65.32.13.64.25.98.29.38.05.77-.01,1.16.03s.79.21.96.56c.16.34.04.76-.19,1.06s-.54.52-.83.76-.56.54-.64.9c-.05.21-.03.43-.11.63-.1.26-.36.44-.59.59-.64.42-1.27.84-1.91,1.26-.21.14-.45.28-.69.23-.37-.07-.52-.54-.52-.92s.08-.8-.12-1.12c-.24-.38-.76-.46-1.18-.64-.59-.25-1.05-.78-1.22-1.39-.14-.49-.07-.86.21-1.29Z"/></g></svg>