<?xml version="1.0" encoding="UTF-8"?><svg id="Layer_2" xmlns="http://www.w3.org/2000/svg" viewBox="0 0 69.62 28.57"><defs><style>.cls-1{fill:#26d37c;stroke-width:0px;}</style></defs><g id="GUIDELINES"><path class="cls-1" d="M3.51,28.57l-3.51-3.51,10.78-10.78L0,3.51,3.51,0l14.28,14.28L3.51,28.57ZM.47,25.06l3.04,3.04,13.81-13.81L3.51.47.47,3.51l10.78,10.78L.47,25.06Z"/><path class="cls-1" d="M16.43,28.57l-3.51-3.51,10.78-10.78L12.93,3.51l3.51-3.51,14.28,14.28-14.28,14.28ZM13.4,25.06l3.04,3.04,13.81-13.81L16.43.47l-3.04,3.04,10.78,10.78-10.78,10.78Z"/><path class="cls-1" d="M42.41,28.57l-3.51-3.51,10.78-10.78-10.78-10.78,3.51-3.51,14.28,14.28-14.28,14.28ZM39.37,25.06l3.04,3.04,13.81-13.81L42.41.47l-3.04,3.04,10.78,10.78-10.78,10.78Z"/><path class="cls-1" d="M29.42,28.57l-3.51-3.51,10.78-10.78L25.91,3.51l3.51-3.51,14.28,14.28-14.28,14.28ZM26.38,25.06l3.04,3.04,13.81-13.81L29.42.47l-3.04,3.04,10.78,10.78-10.78,10.78Z"/><path class="cls-1" d="M55.34,28.57l-3.51-3.51,10.78-10.78-10.78-10.78,3.51-3.51,14.28,14.28-14.28,14.28ZM52.3,25.06l3.04,3.04,13.81-13.81L55.34.47l-3.04,3.04,10.78,10.78-10.78,10.78Z"/></g></svg>