<?xml version="1.0" encoding="UTF-8"?><svg id="Layer_2" xmlns="http://www.w3.org/2000/svg" viewBox="0 0 104.45 104.45"><defs><style>.cls-1{stroke-width:0px;}</style></defs><g id="GUIDELINES"><path class="cls-1" d="M0,0v104.45h104.45V0H0ZM97.18,44.93l-5.93,4.95c-.59.47-1.15.97-1.68,1.49-.65.63-.66,1.68-.02,2.3.68.67,1.39,1.31,2.13,1.92l4.93,4.11c.98.81.66,2.39-.56,2.76l-6.13,1.88c-1,.31-1.98.66-2.95,1.05-.83.33-1.23,1.29-.88,2.12.41.96.86,1.9,1.35,2.82l3.14,5.93c.6,1.13-.3,2.47-1.58,2.34l-6.68-.65c-1.04-.1-2.09-.16-3.13-.18-.9,0-1.64.72-1.63,1.62,0,1.04.06,2.08.15,3.13l.59,6.39c.12,1.27-1.22,2.16-2.35,1.57l-5.66-3.01c-.85-.45-1.7-.86-2.58-1.24-.84-.36-1.81.06-2.14.91-.27.69-.52,1.38-.74,2.1l-2.33,7.36c-.38,1.22-1.96,1.52-2.77.54l-4.44-5.41c-.61-.74-1.24-1.46-1.91-2.14-.63-.66-1.67-.65-2.3,0-.52.54-1.02,1.09-1.5,1.67l-4.98,5.9c-.82.96-2.38.66-2.75-.55l-2.33-7.36c-.2-.63-.41-1.24-.65-1.86-.33-.85-1.31-1.26-2.15-.89-.6.26-1.18.55-1.77.85l-7.11,3.7c-1.13.59-2.45-.3-2.34-1.57l.72-7.98c.06-.66.1-1.31.12-1.97.03-.91-.72-1.67-1.64-1.65-.65.02-1.31.05-1.97.11l-7.69.65c-1.26.11-2.14-1.22-1.56-2.34l3.56-6.85c.35-.67.66-1.34.96-2.03.36-.82-.04-1.8-.88-2.14-.89-.34-1.78-.67-2.69-.95l-6.69-2.06c-1.21-.37-1.53-1.95-.56-2.76l5.93-4.95c.58-.48,1.13-.98,1.67-1.49.65-.63.66-1.68.02-2.3-.67-.66-1.39-1.3-2.12-1.91l-4.93-4.11c-.98-.81-.66-2.39.56-2.76l6.13-1.89c1-.31,1.98-.66,2.94-1.05.83-.33,1.23-1.29.88-2.12-.41-.96-.86-1.9-1.35-2.82l-3.14-5.93c-.6-1.13.3-2.47,1.58-2.35l6.68.65c1.04.11,2.09.17,3.12.18.89,0,1.63-.72,1.63-1.62,0-1.04-.06-2.08-.15-3.13l-.59-6.38c-.11-1.26,1.22-2.16,2.35-1.57l5.68,3c.85.45,1.7.86,2.58,1.24.83.36,1.8-.05,2.13-.89.27-.7.52-1.4.75-2.12l2.32-7.35c.38-1.22,1.96-1.52,2.77-.54l4.44,5.41c.61.74,1.24,1.45,1.9,2.14.64.66,1.68.65,2.32-.01.51-.53,1.01-1.08,1.49-1.66l4.98-5.9c.82-.96,2.38-.66,2.75.55l2.34,7.37c.19.63.41,1.25.64,1.86.33.85,1.31,1.26,2.15.88.6-.27,1.19-.55,1.78-.85l7.11-3.69c1.13-.59,2.45.3,2.34,1.57l-.72,7.98c-.06.66-.1,1.31-.13,1.97-.03.91.72,1.67,1.64,1.65.65-.02,1.31-.05,1.97-.11l7.7-.65c1.26-.11,2.14,1.22,1.56,2.34l-3.56,6.85c-.35.66-.66,1.32-.96,2-.37.83.02,1.81.86,2.16.89.35,1.78.67,2.7.95l6.69,2.06c1.21.37,1.53,1.95.56,2.76Z"/></g></svg>