<?xml version="1.0" encoding="UTF-8"?><svg id="Layer_2" xmlns="http://www.w3.org/2000/svg" viewBox="0 0 96.43 96.43"><defs><style>.cls-1{fill:#fff;stroke-width:0px;}</style></defs><g id="GUIDELINES"><path class="cls-1" d="M82.71,88.2c-.73,1.37-1.4,2.79-2.03,4.22-.52,1.17-1.02,2.35-1.53,3.52-.07.16-.14.32-.21.48h17.5v-21.36c-.92.43-1.82.9-2.69,1.41-.81.47-1.61.98-2.38,1.53-3.73,2.65-6.51,6.17-8.65,10.18Z"/><path class="cls-1" d="M13.72,8.23c.73-1.37,1.4-2.79,2.03-4.22.52-1.17,1.02-2.35,1.53-3.52.07-.16.14-.32.21-.48H0v21.36c.92-.43,1.82-.9,2.69-1.41.81-.47,1.61-.98,2.38-1.53,3.73-2.65,6.51-6.17,8.65-10.18Z"/></g></svg>