<?xml version="1.0" encoding="UTF-8"?><svg id="Layer_2" xmlns="http://www.w3.org/2000/svg" viewBox="0 0 96.43 78.44"><defs><style>.cls-1{fill:#26d37c;stroke-width:0px;}</style></defs><g id="GUIDELINES"><path class="cls-1" d="M96.43,0v48.88c-4.17-.18-11.39.17-18.45,4.21-4.14,2.36-7.02,5.31-7.46,5.77-3.06,3.17-5.74,7.26-7.04,9.25-1.73,2.65-2.7,4.44-4.69,6.15-2.27,1.95-4.92,3.03-4.92,3.03-.32.12-.62.23-.92.34-.17.04-.33.1-.5.15-.24.07-.46.13-.69.19-4.96,1.24-9.14-.09-15.92-2.51-2.85-1.02-13.04-4.96-23.27-4.02-4.26.39-7.67,1.54-9.89,2.45-.01.01-1.9.82-2.68,1.18V0h96.43Z"/></g></svg>