<?xml version="1.0" encoding="UTF-8"?><svg id="Layer_2" xmlns="http://www.w3.org/2000/svg" viewBox="0 0 119.07 119.07"><defs><style>.cls-1,.cls-2{stroke-width:0px;}.cls-2{fill:#fff;}</style></defs><g id="GUIDELINES"><rect class="cls-1" width="119.07" height="119.07"/><path class="cls-2" d="M101.58,58.58c-.74.7-.75,1.86-.02,2.56.78.74,1.57,1.45,2.41,2.14l5.58,4.57c1.11.9.75,2.66-.63,3.07l-6.94,2.09c-1.13.35-2.25.73-3.35,1.17-.94.37-1.39,1.44-.99,2.35.47,1.07.97,2.11,1.53,3.14l3.55,6.59c.68,1.25-.34,2.75-1.79,2.6l-7.56-.72c-1.18-.11-2.37-.17-3.54-.2-1.01-.01-1.85.8-1.84,1.8.01,1.16.06,2.31.17,3.48l.66,7.11c.13,1.41-1.38,2.4-2.66,1.74l-6.41-3.35c-.96-.5-1.93-.96-2.92-1.37-.95-.4-2.05.07-2.42,1.01-.31.76-.59,1.54-.84,2.33l-2.64,8.19c-.44,1.35-2.22,1.69-3.14.6l-5.03-6.02c-.69-.83-1.41-1.62-2.16-2.38-.71-.73-1.9-.72-2.6,0-.59.6-1.16,1.21-1.7,1.85l-5.65,6.56c-.93,1.07-2.69.73-3.12-.61l-2.64-8.19c-.23-.7-.47-1.38-.74-2.07-.37-.95-1.48-1.41-2.43-.99-.68.29-1.34.61-2.01.95l-8.05,4.11c-1.27.65-2.78-.34-2.65-1.74l.82-8.87c.07-.73.11-1.46.13-2.19.03-1.01-.82-1.85-1.85-1.83-.74.02-1.48.05-2.23.12l-8.71.72c-1.43.12-2.42-1.35-1.77-2.6l4.03-7.62c.39-.74.75-1.49,1.09-2.26.41-.91-.04-2.01-.99-2.38-1-.38-2.02-.74-3.05-1.06l-7.57-2.29c-1.37-.41-1.73-2.17-.63-3.07l6.71-5.5c.65-.53,1.27-1.09,1.9-1.66.74-.7.75-1.86.02-2.56-.76-.73-1.57-1.45-2.4-2.12l-5.58-4.57c-1.11-.9-.75-2.66.63-3.07l6.94-2.1c1.14-.35,2.25-.73,3.33-1.17.94-.37,1.4-1.44.99-2.36-.46-1.07-.97-2.11-1.53-3.14l-3.55-6.59c-.68-1.25.34-2.75,1.79-2.61l7.56.72c1.18.12,2.37.19,3.53.2,1.01.01,1.85-.8,1.84-1.8-.01-1.16-.06-2.31-.17-3.48l-.67-7.1c-.13-1.4,1.38-2.4,2.66-1.74l6.43,3.33c.96.5,1.93.96,2.92,1.38.94.4,2.04-.05,2.41-.99.31-.78.59-1.56.85-2.36l2.63-8.17c.44-1.35,2.22-1.69,3.14-.6l5.03,6.02c.69.82,1.41,1.61,2.15,2.38.72.73,1.91.72,2.63-.01.58-.59,1.15-1.2,1.69-1.84l5.65-6.56c.93-1.07,2.69-.73,3.12.61l2.65,8.2c.22.7.47,1.39.73,2.07.37.95,1.48,1.4,2.43.98.68-.3,1.35-.61,2.02-.95l8.05-4.11c1.27-.66,2.78.34,2.65,1.74l-.82,8.87c-.06.73-.11,1.46-.14,2.19-.03,1.01.82,1.85,1.85,1.83.74-.02,1.48-.05,2.23-.12l8.72-.72c1.43-.12,2.42,1.35,1.77,2.6l-4.03,7.62c-.39.73-.75,1.47-1.09,2.22-.41.93.02,2.02.98,2.4,1,.39,2.02.74,3.06,1.06l7.57,2.29c1.37.41,1.73,2.17.63,3.07l-6.71,5.5c-.67.52-1.3,1.08-1.91,1.66Z"/></g></svg>