<?xml version="1.0" encoding="UTF-8"?><svg id="Layer_2" xmlns="http://www.w3.org/2000/svg" viewBox="0 0 238.14 119.07"><defs><style>.cls-1,.cls-2{stroke-width:0px;}.cls-2{fill:#fff;}</style></defs><g id="GUIDELINES"><rect class="cls-2" x="119.07" width="119.07" height="119.07" transform="translate(357.2 119.07) rotate(180)"/><rect class="cls-2" x="0" y="0" width="119.07" height="119.07"/><path class="cls-1" d="M214.05,106.05c0-4.98,4.03-9.01,9.01-9.01,4.98,0,9.01,4.03,9.01,9.01,0,4.98-4.03,9.01-9.01,9.01-4.98,0-9.01-4.03-9.01-9.01Z"/><path class="cls-1" d="M187.58,106.05c0-4.63,3.75-8.38,8.38-8.38,4.63,0,8.38,3.75,8.38,8.38,0,4.63-3.75,8.38-8.38,8.38-4.63,0-8.38-3.75-8.38-8.38Z"/><path class="cls-1" d="M162.37,106.05c0-4.28,3.47-7.75,7.75-7.75,4.28,0,7.75,3.47,7.75,7.75s-3.47,7.75-7.75,7.75c-4.28,0-7.75-3.47-7.75-7.75Z"/><path class="cls-1" d="M138.42,106.05c0-3.93,3.19-7.12,7.12-7.12,3.93,0,7.12,3.19,7.12,7.12,0,3.93-3.19,7.12-7.12,7.12-3.93,0-7.12-3.19-7.12-7.12Z"/><circle class="cls-1" cx="122.22" cy="106.05" r="6.49" transform="translate(-38.9 121.01) rotate(-46.25)"/><path class="cls-1" d="M94.31,106.05c0-3.24,2.62-5.86,5.86-5.86,3.24,0,5.86,2.62,5.86,5.86,0,3.24-2.62,5.86-5.86,5.86-3.24,0-5.86-2.62-5.86-5.86Z"/><path class="cls-1" d="M74.14,106.05c0-2.89,2.34-5.23,5.23-5.23,2.89,0,5.23,2.34,5.23,5.23s-2.34,5.23-5.23,5.23c-2.89,0-5.23-2.34-5.23-5.23Z"/><path class="cls-1" d="M55.23,106.05c0-2.54,2.06-4.6,4.6-4.6s4.6,2.06,4.6,4.6c0,2.54-2.06,4.6-4.6,4.6-2.54,0-4.6-2.06-4.6-4.6Z"/><path class="cls-1" d="M37.58,106.05c0-2.19,1.78-3.97,3.97-3.97,2.19,0,3.97,1.78,3.97,3.97,0,2.19-1.78,3.97-3.97,3.97-2.19,0-3.97-1.78-3.97-3.97Z"/><path class="cls-1" d="M21.19,106.05c0-1.84,1.49-3.34,3.34-3.34,1.84,0,3.34,1.49,3.34,3.34s-1.49,3.34-3.34,3.34c-1.84,0-3.34-1.49-3.34-3.34Z"/><path class="cls-1" d="M6.07,106.05c0-1.5,1.21-2.71,2.71-2.71s2.71,1.21,2.71,2.71-1.21,2.71-2.71,2.71-2.71-1.21-2.71-2.71Z"/><path class="cls-1" d="M214.05,82.79c0-4.98,4.03-9.01,9.01-9.01,4.98,0,9.01,4.03,9.01,9.01,0,4.98-4.03,9.01-9.01,9.01-4.98,0-9.01-4.03-9.01-9.01Z"/><path class="cls-1" d="M187.58,82.79c0-4.63,3.75-8.38,8.38-8.38,4.63,0,8.38,3.75,8.38,8.38s-3.75,8.38-8.38,8.38c-4.63,0-8.38-3.75-8.38-8.38Z"/><circle class="cls-1" cx="170.12" cy="82.79" r="7.75"/><path class="cls-1" d="M138.42,82.79c0-3.93,3.19-7.12,7.12-7.12s7.12,3.19,7.12,7.12c0,3.93-3.19,7.12-7.12,7.12-3.93,0-7.12-3.19-7.12-7.12Z"/><circle class="cls-1" cx="122.22" cy="82.79" r="6.49" transform="translate(13.57 182.72) rotate(-76.72)"/><path class="cls-1" d="M94.31,82.79c0-3.24,2.62-5.86,5.86-5.86,3.24,0,5.86,2.62,5.86,5.86,0,3.24-2.62,5.86-5.86,5.86-3.24,0-5.86-2.62-5.86-5.86Z"/><path class="cls-1" d="M74.14,82.79c0-2.89,2.34-5.23,5.23-5.23,2.89,0,5.23,2.34,5.23,5.23,0,2.89-2.34,5.23-5.23,5.23-2.89,0-5.23-2.34-5.23-5.23Z"/><path class="cls-1" d="M55.23,82.79c0-2.54,2.06-4.6,4.6-4.6,2.54,0,4.6,2.06,4.6,4.6s-2.06,4.6-4.6,4.6c-2.54,0-4.6-2.06-4.6-4.6Z"/><circle class="cls-1" cx="41.55" cy="82.79" r="3.97"/><path class="cls-1" d="M21.19,82.79c0-1.84,1.49-3.34,3.34-3.34s3.34,1.5,3.34,3.34-1.49,3.34-3.34,3.34c-1.84,0-3.34-1.49-3.34-3.34Z"/><path class="cls-1" d="M6.07,82.79c0-1.5,1.21-2.71,2.71-2.71s2.71,1.21,2.71,2.71c0,1.5-1.21,2.71-2.71,2.71s-2.71-1.21-2.71-2.71Z"/><path class="cls-1" d="M214.05,59.53c0-4.98,4.03-9.01,9.01-9.01,4.98,0,9.01,4.03,9.01,9.01,0,4.98-4.03,9.01-9.01,9.01-4.98,0-9.01-4.03-9.01-9.01Z"/><path class="cls-1" d="M187.58,59.53c0-4.63,3.75-8.38,8.38-8.38,4.63,0,8.38,3.75,8.38,8.38,0,4.63-3.75,8.38-8.38,8.38-4.63,0-8.38-3.75-8.38-8.38Z"/><path class="cls-1" d="M162.37,59.53c0-4.28,3.47-7.75,7.75-7.75,4.28,0,7.75,3.47,7.75,7.75,0,4.28-3.47,7.75-7.75,7.75-4.28,0-7.75-3.47-7.75-7.75Z"/><path class="cls-1" d="M138.42,59.53c0-3.93,3.19-7.12,7.12-7.12,3.93,0,7.12,3.19,7.12,7.12,0,3.93-3.19,7.12-7.12,7.12-3.93,0-7.12-3.19-7.12-7.12Z"/><circle class="cls-1" cx="122.22" cy="59.53" r="6.49" transform="translate(-6.69 102.7) rotate(-44.48)"/><path class="cls-1" d="M94.31,59.53c0-3.24,2.62-5.86,5.86-5.86,3.24,0,5.86,2.62,5.86,5.86s-2.62,5.86-5.86,5.86c-3.24,0-5.86-2.62-5.86-5.86Z"/><path class="cls-1" d="M74.14,59.53c0-2.89,2.34-5.23,5.23-5.23,2.89,0,5.23,2.34,5.23,5.23,0,2.89-2.34,5.23-5.23,5.23-2.89,0-5.23-2.34-5.23-5.23Z"/><path class="cls-1" d="M55.23,59.53c0-2.54,2.06-4.6,4.6-4.6,2.54,0,4.6,2.06,4.6,4.6,0,2.54-2.06,4.6-4.6,4.6-2.54,0-4.6-2.06-4.6-4.6Z"/><path class="cls-1" d="M37.58,59.53c0-2.19,1.78-3.97,3.97-3.97,2.19,0,3.97,1.78,3.97,3.97,0,2.19-1.78,3.97-3.97,3.97-2.19,0-3.97-1.78-3.97-3.97Z"/><path class="cls-1" d="M21.19,59.53c0-1.84,1.49-3.34,3.34-3.34,1.84,0,3.34,1.49,3.34,3.34s-1.49,3.34-3.34,3.34-3.34-1.49-3.34-3.34Z"/><path class="cls-1" d="M6.07,59.53c0-1.5,1.21-2.71,2.71-2.71,1.5,0,2.71,1.21,2.71,2.71,0,1.5-1.21,2.71-2.71,2.71s-2.71-1.21-2.71-2.71Z"/><path class="cls-1" d="M214.05,36.28c0-4.98,4.03-9.01,9.01-9.01,4.98,0,9.01,4.03,9.01,9.01,0,4.98-4.03,9.01-9.01,9.01-4.98,0-9.01-4.03-9.01-9.01Z"/><path class="cls-1" d="M187.58,36.28c0-4.63,3.75-8.38,8.38-8.38,4.63,0,8.38,3.75,8.38,8.38,0,4.63-3.75,8.38-8.38,8.38-4.63,0-8.38-3.75-8.38-8.38Z"/><path class="cls-1" d="M162.37,36.28c0-4.28,3.47-7.75,7.75-7.75,4.28,0,7.75,3.47,7.75,7.75,0,4.28-3.47,7.75-7.75,7.75s-7.75-3.47-7.75-7.75Z"/><path class="cls-1" d="M138.42,36.28c0-3.93,3.19-7.12,7.12-7.12,3.93,0,7.12,3.19,7.12,7.12,0,3.93-3.19,7.12-7.12,7.12-3.93,0-7.12-3.19-7.12-7.12Z"/><circle class="cls-1" cx="122.22" cy="36.28" r="6.49"/><path class="cls-1" d="M94.31,36.28c0-3.24,2.62-5.86,5.86-5.86,3.24,0,5.86,2.62,5.86,5.86s-2.62,5.86-5.86,5.86c-3.24,0-5.86-2.62-5.86-5.86Z"/><path class="cls-1" d="M74.14,36.28c0-2.89,2.34-5.23,5.23-5.23,2.89,0,5.23,2.34,5.23,5.23,0,2.89-2.34,5.23-5.23,5.23-2.89,0-5.23-2.34-5.23-5.23Z"/><path class="cls-1" d="M55.23,36.28c0-2.54,2.06-4.6,4.6-4.6s4.6,2.06,4.6,4.6-2.06,4.6-4.6,4.6c-2.54,0-4.6-2.06-4.6-4.6Z"/><path class="cls-1" d="M37.58,36.28c0-2.19,1.78-3.97,3.97-3.97,2.19,0,3.97,1.78,3.97,3.97s-1.78,3.97-3.97,3.97-3.97-1.78-3.97-3.97Z"/><path class="cls-1" d="M21.19,36.28c0-1.84,1.49-3.34,3.34-3.34,1.84,0,3.34,1.49,3.34,3.34,0,1.84-1.49,3.34-3.34,3.34s-3.34-1.49-3.34-3.34Z"/><path class="cls-1" d="M6.07,36.28c0-1.5,1.21-2.71,2.71-2.71,1.5,0,2.71,1.21,2.71,2.71s-1.21,2.71-2.71,2.71-2.71-1.21-2.71-2.71Z"/><path class="cls-1" d="M214.05,13.02c0-4.98,4.03-9.01,9.01-9.01,4.98,0,9.01,4.03,9.01,9.01,0,4.98-4.03,9.01-9.01,9.01-4.98,0-9.01-4.03-9.01-9.01Z"/><path class="cls-1" d="M187.58,13.02c0-4.63,3.75-8.38,8.38-8.38s8.38,3.75,8.38,8.38c0,4.63-3.75,8.38-8.38,8.38-4.63,0-8.38-3.75-8.38-8.38Z"/><circle class="cls-1" cx="170.12" cy="13.02" r="7.75"/><path class="cls-1" d="M138.42,13.02c0-3.93,3.19-7.12,7.12-7.12s7.12,3.19,7.12,7.12-3.19,7.12-7.12,7.12c-3.93,0-7.12-3.19-7.12-7.12Z"/><circle class="cls-1" cx="122.22" cy="13.02" r="6.49" transform="translate(26.59 90.24) rotate(-45)"/><path class="cls-1" d="M94.31,13.02c0-3.24,2.62-5.86,5.86-5.86,3.24,0,5.86,2.62,5.86,5.86,0,3.24-2.62,5.86-5.86,5.86-3.24,0-5.86-2.62-5.86-5.86Z"/><path class="cls-1" d="M74.14,13.02c0-2.89,2.34-5.23,5.23-5.23,2.89,0,5.23,2.34,5.23,5.23,0,2.89-2.34,5.23-5.23,5.23-2.89,0-5.23-2.34-5.23-5.23Z"/><path class="cls-1" d="M55.23,13.02c0-2.54,2.06-4.6,4.6-4.6,2.54,0,4.6,2.06,4.6,4.6s-2.06,4.6-4.6,4.6c-2.54,0-4.6-2.06-4.6-4.6Z"/><circle class="cls-1" cx="41.55" cy="13.02" r="3.97"/><path class="cls-1" d="M21.19,13.02c0-1.84,1.49-3.34,3.34-3.34s3.34,1.49,3.34,3.34c0,1.84-1.49,3.34-3.34,3.34s-3.34-1.5-3.34-3.34Z"/><path class="cls-1" d="M6.07,13.02c0-1.5,1.21-2.71,2.71-2.71s2.71,1.21,2.71,2.71-1.21,2.71-2.71,2.71-2.71-1.21-2.71-2.71Z"/></g></svg>