<?xml version="1.0" encoding="UTF-8"?><svg id="Layer_2" xmlns="http://www.w3.org/2000/svg" viewBox="0 0 119.36 119.07"><defs><style>.cls-1{fill:#26d37c;}.cls-1,.cls-2,.cls-3{stroke-width:0px;}.cls-2{fill:#d81ab4;}.cls-3{fill:#fff;}</style></defs><g id="GUIDELINES"><rect class="cls-3" x="0" y="0" width="119.07" height="119.07"/><path class="cls-2" d="M118.26,43.45c-41.54,0-75.21,33.67-75.21,75.21,0,.13,0,.27.01.4h21.36c0-.13-.01-.27-.01-.4,0-29.7,24.16-53.86,53.85-53.86.27,0,.54.02.81.02v-21.36c-.27,0-.54-.02-.81-.02Z"/><path class="cls-3" d="M20.95,118.67c0,.13,0,.27.01.4h22.1c0-.13-.01-.27-.01-.4,0-41.54,33.67-75.21,75.21-75.21.27,0,.54.02.81.02v-22.1c-.27,0-.54-.02-.81-.02-53.66,0-97.31,43.65-97.31,97.31Z"/><path class="cls-1" d="M118.06,0h0C55.91.26,5.07,48.3.29,109.29v9.78h20.96c0-.13-.01-.27-.01-.4,0-53.66,43.65-97.31,97.31-97.31.27,0,.54.02.81.02V0h-1.3Z"/></g></svg>