<?xml version="1.0" encoding="UTF-8"?><svg id="Layer_2" xmlns="http://www.w3.org/2000/svg" viewBox="0 0 119.07 119.07"><defs><style>.cls-1{fill:#26d37c;}.cls-1,.cls-2{stroke-width:0px;}.cls-2{fill:#fff;}</style></defs><g id="GUIDELINES"><rect class="cls-1" x="0" y="0" width="119.07" height="119.07" transform="translate(119.07 0) rotate(90)"/><path class="cls-2" d="M48.36,60.51c-.15,0-17.24-.11-17.39-.11s-17.24-.11-17.39-.11C16.5,51.6,28.66,10.85,31.47,0h63.75c-10.23,13.36-20.45,26.71-30.68,40.07,6.49-.08,13.02-.17,19.56-.28,7.17-.12,14.31-.26,21.42-.41-26.8,26.56-53.6,53.12-80.4,79.68,3.07-9.01,6.47-18.33,10.23-27.9,4.23-10.76,8.6-20.98,13-30.66Z"/></g></svg>