<?xml version="1.0" encoding="UTF-8"?><svg id="Layer_2" xmlns="http://www.w3.org/2000/svg" viewBox="0 0 595.34 833.47"><defs><style>.cls-1,.cls-2,.cls-3,.cls-4,.cls-5{stroke-width:0px;}.cls-2{fill:#f9e95d;}.cls-3{fill:#26d37c;}.cls-4{fill:#d81ab4;}.cls-5{fill:#fff;}</style></defs><g id="GUIDELINES"><rect class="cls-1" x="357.2" y="0" width="119.07" height="119.07"/><rect class="cls-5" x="238.14" y="595.34" width="119.07" height="119.07"/><rect class="cls-3" x="119.07" y="238.14" width="119.07" height="119.07" transform="translate(-119.07 476.27) rotate(-90)"/><rect class="cls-1" x="238.14" y="238.14" width="119.07" height="119.07" transform="translate(0 595.34) rotate(-90)"/><rect class="cls-5" x="476.27" y="119.07" width="119.07" height="119.07" transform="translate(714.41 -357.2) rotate(90)"/><rect class="cls-5" x="0" y="357.2" width="119.07" height="119.07" transform="translate(119.07 833.47) rotate(180)"/><polygon class="cls-4" points="22.98 459.73 12.97 449.72 45.95 416.74 12.97 383.75 22.98 373.74 65.98 416.74 22.98 459.73"/><polygon class="cls-4" points="62.54 459.73 52.53 449.72 85.51 416.74 52.53 383.75 62.54 373.74 105.54 416.74 62.54 459.73"/><rect class="cls-5" x="119.07" y="357.2" width="119.07" height="119.07" transform="translate(357.2 833.47) rotate(180)"/><polygon class="cls-4" points="142.05 459.73 132.04 449.72 165.02 416.74 132.04 383.75 142.05 373.74 185.05 416.74 142.05 459.73"/><polygon class="cls-4" points="102.3 459.73 92.28 449.72 125.27 416.74 92.28 383.75 102.3 373.74 145.29 416.74 102.3 459.73"/><polygon class="cls-4" points="181.61 459.73 171.6 449.72 204.58 416.74 171.6 383.75 181.61 373.74 224.61 416.74 181.61 459.73"/><rect class="cls-3" x="357.2" y="357.2" width="119.07" height="119.07" transform="translate(0 833.47) rotate(-90)"/><path class="cls-5" d="M476.27,416.74h-119.07c0-32.89,26.66-59.54,59.54-59.54,32.87,0,59.52,26.66,59.52,59.54Z"/><path class="cls-5" d="M476.27,476.27h-119.07c0-32.89,26.66-59.54,59.54-59.54,32.87,0,59.52,26.66,59.52,59.54Z"/><rect class="cls-3" x="0" y="0" width="119.07" height="119.07"/><path class="cls-5" d="M119.07,103.18v13.81c-2.29-1.12-4.18-2.46-6.87-3.37,0,0-.02-.02-.03-.02-.42-.14-.87-.26-1.35-.38-.03-.02-.09-.02-.14-.03-.44-.1-.91-.19-1.4-.28-.09-.02-.17-.02-.26-.03-.47-.07-.96-.12-1.47-.17-.14,0-.28,0-.42-.02-.54-.03-1.1-.05-1.7-.05v.05c-2.73,0-4.79.37-6.52.93-3.64,1.22-5.8,3.27-9.52,4.44-1.8.61-3.95,1.03-6.85,1.03-11.43,0-11.43-6.4-22.84-6.4-4.19,0-6.85.86-9.09,1.96-1.56.77-2.94,1.63-4.51,2.39-2.29,1.14-4.98,2.05-9.28,2.05h-.12c-11.41,0-11.45-6.36-22.79-6.4-4.19.02-6.83.89-9.09,1.98-1.52.77-2.88,1.63-4.44,2.38-.12.07-.24.12-.38.17v-13.65c2.45-1.19,4.4-2.62,7.29-3.55,1.8-.61,3.97-1.03,6.85-1.03.24,0,.45.02.7.03v-.03c.35.02.65.05.98.07.16,0,.33.02.49.03.45.03.87.09,1.28.14.17.02.35.03.51.07.37.05.72.14,1.07.21.17.03.35.07.51.12.31.07.61.16.89.26.17.05.35.1.52.16.26.09.51.19.75.28.17.07.35.14.52.21.21.1.42.19.63.3.19.09.37.17.56.26.16.09.31.17.49.24.21.12.44.24.66.37.02,0,.02.02.03.02.94.52,1.87,1.05,2.85,1.56.07.03.14.07.21.1.28.14.58.28.87.4.1.05.21.1.31.14.3.12.59.23.91.35.12.03.24.09.38.14.3.1.61.19.94.28.16.03.3.09.45.12.35.09.7.16,1.07.21.17.03.33.07.51.1.42.07.86.1,1.31.16.16,0,.3.03.47.05.63.03,1.29.07,1.99.07,1.38,0,2.57-.1,3.65-.26,6.66-1.08,8.55-4.86,15.33-5.87,1.14-.17,2.41-.3,3.88-.3h.03c.26,0,.51.03.77.03v-.03c.4.02.77.05,1.14.07.03,0,.07.02.1.02,9.49.7,10.19,6.31,20.87,6.34,1.36-.02,2.57-.1,3.65-.28,6.62-1.08,8.53-4.84,15.29-5.85,1.14-.17,2.41-.3,3.88-.3h.1c.24,0,.45.02.68.03v-.09c6.48.16,9.14,2.45,12.67,4.26Z"/><path class="cls-5" d="M119.07,78.45v13.81c-2.29-1.12-4.18-2.46-6.87-3.37,0,0-.02-.02-.03-.02-.42-.14-.87-.26-1.35-.38-.03-.02-.09-.02-.14-.03-.44-.1-.91-.19-1.4-.28-.09-.02-.17-.02-.26-.03-.47-.07-.96-.12-1.47-.17-.14,0-.28,0-.42-.02-.54-.03-1.1-.05-1.7-.05v.05c-2.73,0-4.79.37-6.52.93-3.64,1.22-5.8,3.27-9.52,4.44-1.8.61-3.95,1.03-6.85,1.03-11.43,0-11.43-6.4-22.84-6.4-4.19,0-6.85.86-9.09,1.96-1.56.77-2.94,1.63-4.51,2.39-2.29,1.14-4.98,2.05-9.28,2.05h-.12c-11.41,0-11.45-6.36-22.79-6.4-4.19.02-6.83.89-9.09,1.98-1.52.77-2.88,1.63-4.44,2.38-.12.07-.24.12-.38.17v-13.65c2.45-1.19,4.4-2.62,7.29-3.55,1.8-.61,3.97-1.03,6.85-1.03.24,0,.45.02.7.03v-.03c.35.02.65.05.98.07.16,0,.33.02.49.03.45.03.87.09,1.28.14.17.02.35.03.51.07.37.05.72.14,1.07.21.17.03.35.07.51.12.31.07.61.16.89.26.17.05.35.1.52.16.26.09.51.19.75.28.17.07.35.14.52.21.21.1.42.19.63.3.19.09.37.17.56.26.16.09.31.17.49.24.21.12.44.24.66.37.02,0,.02.02.03.02.94.52,1.87,1.05,2.85,1.56.07.03.14.07.21.1.28.14.58.28.87.4.1.05.21.1.31.14.3.12.59.23.91.35.12.03.24.09.38.14.3.1.61.19.94.28.16.03.3.09.45.12.35.09.7.16,1.07.21.17.03.33.07.51.1.42.07.86.1,1.31.16.16,0,.3.03.47.05.63.03,1.29.07,1.99.07,1.38,0,2.57-.1,3.65-.26,6.66-1.08,8.55-4.86,15.33-5.87,1.14-.17,2.41-.3,3.88-.3h.03c.26,0,.51.03.77.03v-.03c.4.02.77.05,1.14.07.03,0,.07.02.1.02,9.49.7,10.19,6.31,20.87,6.34,1.36-.02,2.57-.1,3.65-.28,6.62-1.08,8.53-4.84,15.29-5.85,1.14-.17,2.41-.3,3.88-.3h.1c.24,0,.45.02.68.03v-.09c6.48.16,9.14,2.45,12.67,4.26Z"/><path class="cls-5" d="M119.07,53.72v13.81c-2.29-1.12-4.18-2.46-6.87-3.37,0,0-.02-.02-.03-.02-.42-.14-.87-.26-1.35-.38-.03-.02-.09-.02-.14-.03-.44-.1-.91-.19-1.4-.28-.09-.02-.17-.02-.26-.03-.47-.07-.96-.12-1.47-.17-.14,0-.28,0-.42-.02-.54-.03-1.1-.05-1.7-.05v.05c-2.73,0-4.79.37-6.52.93-3.64,1.22-5.8,3.27-9.52,4.44-1.8.61-3.95,1.03-6.85,1.03-11.43,0-11.43-6.4-22.84-6.4-4.19,0-6.85.86-9.09,1.96-1.56.77-2.94,1.63-4.51,2.39-2.29,1.14-4.98,2.05-9.28,2.05h-.12c-11.41,0-11.45-6.36-22.79-6.4-4.19.02-6.83.89-9.09,1.98-1.52.77-2.88,1.63-4.44,2.38-.12.07-.24.12-.38.17v-13.65c2.45-1.19,4.4-2.62,7.29-3.55,1.8-.61,3.97-1.03,6.85-1.03.24,0,.45.02.7.03v-.03c.35.02.65.05.98.07.16,0,.33.02.49.03.45.03.87.09,1.28.14.17.02.35.03.51.07.37.05.72.14,1.07.21.17.03.35.07.51.12.31.07.61.16.89.26.17.05.35.1.52.16.26.09.51.19.75.28.17.07.35.14.52.21.21.1.42.19.63.3.19.09.37.17.56.26.16.09.31.17.49.24.21.12.44.24.66.37.02,0,.02.02.03.02.94.52,1.87,1.05,2.85,1.56.07.03.14.07.21.1.28.14.58.28.87.4.1.05.21.1.31.14.3.12.59.23.91.35.12.03.24.09.38.14.3.1.61.19.94.28.16.03.3.09.45.12.35.09.7.16,1.07.21.17.03.33.07.51.1.42.07.86.1,1.31.16.16,0,.3.03.47.05.63.03,1.29.07,1.99.07,1.38,0,2.57-.1,3.65-.26,6.66-1.08,8.55-4.86,15.33-5.87,1.14-.17,2.41-.3,3.88-.3h.03c.26,0,.51.03.77.03v-.03c.4.02.77.05,1.14.07.03,0,.07.02.1.02,9.49.7,10.19,6.31,20.87,6.34,1.36-.02,2.57-.1,3.65-.28,6.62-1.08,8.53-4.84,15.29-5.85,1.14-.17,2.41-.3,3.88-.3h.1c.24,0,.45.02.68.03v-.09c6.48.16,9.14,2.45,12.67,4.26Z"/><path class="cls-5" d="M119.07,28.99v13.81c-2.29-1.12-4.18-2.46-6.87-3.37,0,0-.02-.02-.03-.02-.42-.14-.87-.26-1.35-.38-.03-.02-.09-.02-.14-.03-.44-.1-.91-.19-1.4-.28-.09-.02-.17-.02-.26-.03-.47-.07-.96-.12-1.47-.17-.14,0-.28,0-.42-.02-.54-.03-1.1-.05-1.7-.05v.05c-2.73,0-4.79.37-6.52.93-3.64,1.22-5.8,3.27-9.52,4.44-1.8.61-3.95,1.03-6.85,1.03-11.43,0-11.43-6.4-22.84-6.4-4.19,0-6.85.86-9.09,1.96-1.56.77-2.94,1.63-4.51,2.39-2.29,1.14-4.98,2.05-9.28,2.05h-.12c-11.41,0-11.45-6.36-22.79-6.4-4.19.02-6.83.89-9.09,1.98-1.52.77-2.88,1.63-4.44,2.38C.26,42.9.14,42.96,0,43.01v-13.65c2.45-1.19,4.4-2.62,7.29-3.55,1.8-.61,3.97-1.03,6.85-1.03.24,0,.45.02.7.03v-.03c.35.02.65.05.98.07.16,0,.33.02.49.03.45.03.87.09,1.28.14.17.02.35.03.51.07.37.05.72.14,1.07.21.17.03.35.07.51.12.31.07.61.16.89.26.17.05.35.1.52.16.26.09.51.19.75.28.17.07.35.14.52.21.21.1.42.19.63.3.19.09.37.17.56.26.16.09.31.17.49.24.21.12.44.24.66.37.02,0,.02.02.03.02.94.52,1.87,1.05,2.85,1.56.07.03.14.07.21.1.28.14.58.28.87.4.1.05.21.1.31.14.3.12.59.23.91.35.12.03.24.09.38.14.3.1.61.19.94.28.16.03.3.09.45.12.35.09.7.16,1.07.21.17.03.33.07.51.1.42.07.86.1,1.31.16.16,0,.3.03.47.05.63.03,1.29.07,1.99.07,1.38,0,2.57-.1,3.65-.26,6.66-1.08,8.55-4.86,15.33-5.87,1.14-.17,2.41-.3,3.88-.3h.03c.26,0,.51.03.77.03v-.03c.4.02.77.05,1.14.07.03,0,.07.02.1.02,9.49.7,10.19,6.31,20.87,6.34,1.36-.02,2.57-.1,3.65-.28,6.62-1.08,8.53-4.84,15.29-5.85,1.14-.17,2.41-.3,3.88-.3h.1c.24,0,.45.02.68.03v-.09c6.48.16,9.14,2.45,12.67,4.26Z"/><path class="cls-5" d="M119.07,4.26v13.81c-2.29-1.12-4.18-2.46-6.87-3.37,0,0-.02-.02-.03-.02-.42-.14-.87-.26-1.35-.38-.03-.02-.09-.02-.14-.03-.44-.1-.91-.19-1.4-.28-.09-.02-.17-.02-.26-.03-.47-.07-.96-.12-1.47-.17-.14,0-.28,0-.42-.02-.54-.03-1.1-.05-1.7-.05v.05c-2.73,0-4.79.37-6.52.93-3.64,1.22-5.8,3.27-9.52,4.44-1.8.61-3.95,1.03-6.85,1.03-11.43,0-11.43-6.4-22.84-6.4-4.19,0-6.85.86-9.09,1.96-1.56.77-2.94,1.63-4.51,2.39-2.29,1.14-4.98,2.05-9.28,2.05h-.12c-11.41,0-11.45-6.36-22.79-6.4-4.19.02-6.83.89-9.09,1.98-1.52.77-2.88,1.63-4.44,2.38-.12.07-.24.12-.38.17V4.63c2.45-1.19,4.4-2.62,7.29-3.55C9.09.47,11.25.05,14.14.05c.24,0,.45.02.7.03v-.03c.35.02.65.05.98.07.16,0,.33.02.49.03.45.03.87.09,1.28.14.17.02.35.03.51.07.37.05.72.14,1.07.21.17.03.35.07.51.12.31.07.61.16.89.26.17.05.35.1.52.16.26.09.51.19.75.28.17.07.35.14.52.21.21.1.42.19.63.3.19.09.37.17.56.26.16.09.31.17.49.24.21.12.44.24.66.37.02,0,.02.02.03.02.94.52,1.87,1.05,2.85,1.56.07.03.14.07.21.1.28.14.58.28.87.4.1.05.21.1.31.14.3.12.59.23.91.35.12.03.24.09.38.14.3.1.61.19.94.28.16.03.3.09.45.12.35.09.7.16,1.07.21.17.03.33.07.51.1.42.07.86.1,1.31.16.16,0,.3.03.47.05.63.03,1.29.07,1.99.07,1.38,0,2.57-.1,3.65-.26,6.66-1.08,8.55-4.86,15.33-5.87,1.14-.17,2.41-.3,3.88-.3h.03c.26,0,.51.03.77.03v-.03c.4.02.77.05,1.14.07.03,0,.07.02.1.02,9.49.7,10.19,6.31,20.87,6.34,1.36-.02,2.57-.1,3.65-.28,6.62-1.08,8.53-4.84,15.29-5.85,1.14-.17,2.41-.3,3.88-.3h.1c.24,0,.45.02.68.03V0c6.48.16,9.14,2.45,12.67,4.26Z"/><rect class="cls-5" x="238.14" y="119.07" width="119.07" height="119.07" transform="translate(595.34 357.2) rotate(180)"/><rect class="cls-5" x="119.07" y="119.07" width="119.07" height="119.07"/><path class="cls-1" d="M333.12,225.12c0-4.98,4.03-9.01,9.01-9.01,4.98,0,9.01,4.03,9.01,9.01,0,4.98-4.03,9.01-9.01,9.01-4.98,0-9.01-4.03-9.01-9.01Z"/><path class="cls-1" d="M306.65,225.12c0-4.63,3.75-8.38,8.38-8.38,4.63,0,8.38,3.75,8.38,8.38,0,4.63-3.75,8.38-8.38,8.38-4.63,0-8.38-3.75-8.38-8.38Z"/><path class="cls-1" d="M281.44,225.12c0-4.28,3.47-7.75,7.75-7.75,4.28,0,7.75,3.47,7.75,7.75s-3.47,7.75-7.75,7.75c-4.28,0-7.75-3.47-7.75-7.75Z"/><path class="cls-1" d="M257.49,225.12c0-3.93,3.19-7.12,7.12-7.12,3.93,0,7.12,3.19,7.12,7.12,0,3.93-3.19,7.12-7.12,7.12-3.93,0-7.12-3.19-7.12-7.12Z"/><circle class="cls-1" cx="241.29" cy="225.12" r="6.49" transform="translate(-88.18 243.75) rotate(-46.25)"/><path class="cls-1" d="M213.37,225.12c0-3.24,2.62-5.86,5.86-5.86,3.24,0,5.86,2.62,5.86,5.86s-2.62,5.86-5.86,5.86c-3.24,0-5.86-2.62-5.86-5.86Z"/><path class="cls-1" d="M193.21,225.12c0-2.89,2.34-5.23,5.23-5.23,2.89,0,5.23,2.34,5.23,5.23,0,2.89-2.34,5.23-5.23,5.23-2.89,0-5.23-2.34-5.23-5.23Z"/><path class="cls-1" d="M174.3,225.12c0-2.54,2.06-4.6,4.6-4.6s4.6,2.06,4.6,4.6-2.06,4.6-4.6,4.6c-2.54,0-4.6-2.06-4.6-4.6Z"/><path class="cls-1" d="M156.65,225.12c0-2.19,1.78-3.97,3.97-3.97,2.19,0,3.97,1.78,3.97,3.97,0,2.19-1.78,3.97-3.97,3.97-2.19,0-3.97-1.78-3.97-3.97Z"/><path class="cls-1" d="M140.26,225.12c0-1.84,1.49-3.34,3.34-3.34,1.84,0,3.34,1.49,3.34,3.34,0,1.84-1.49,3.34-3.34,3.34s-3.34-1.49-3.34-3.34Z"/><path class="cls-1" d="M125.13,225.12c0-1.5,1.21-2.71,2.71-2.71,1.5,0,2.71,1.21,2.71,2.71s-1.21,2.71-2.71,2.71-2.71-1.21-2.71-2.71Z"/><path class="cls-1" d="M333.12,201.86c0-4.98,4.03-9.01,9.01-9.01,4.98,0,9.01,4.03,9.01,9.01s-4.03,9.01-9.01,9.01c-4.98,0-9.01-4.03-9.01-9.01Z"/><path class="cls-1" d="M306.65,201.86c0-4.63,3.75-8.38,8.38-8.38,4.63,0,8.38,3.75,8.38,8.38,0,4.63-3.75,8.38-8.38,8.38-4.63,0-8.38-3.75-8.38-8.38Z"/><circle class="cls-1" cx="289.19" cy="201.86" r="7.75"/><path class="cls-1" d="M257.49,201.86c0-3.93,3.19-7.12,7.12-7.12s7.12,3.19,7.12,7.12c0,3.93-3.19,7.12-7.12,7.12-3.93,0-7.12-3.19-7.12-7.12Z"/><circle class="cls-1" cx="241.29" cy="201.86" r="6.49" transform="translate(-10.61 390.32) rotate(-76.72)"/><path class="cls-1" d="M213.37,201.86c0-3.24,2.62-5.86,5.86-5.86,3.24,0,5.86,2.62,5.86,5.86,0,3.24-2.62,5.86-5.86,5.86-3.24,0-5.86-2.62-5.86-5.86Z"/><path class="cls-1" d="M193.21,201.86c0-2.89,2.34-5.23,5.23-5.23,2.89,0,5.23,2.34,5.23,5.23,0,2.89-2.34,5.23-5.23,5.23-2.89,0-5.23-2.34-5.23-5.23Z"/><path class="cls-1" d="M174.3,201.86c0-2.54,2.06-4.6,4.6-4.6,2.54,0,4.6,2.06,4.6,4.6s-2.06,4.6-4.6,4.6c-2.54,0-4.6-2.06-4.6-4.6Z"/><circle class="cls-1" cx="160.62" cy="201.86" r="3.97"/><path class="cls-1" d="M140.26,201.86c0-1.84,1.49-3.34,3.34-3.34,1.84,0,3.34,1.5,3.34,3.34s-1.49,3.34-3.34,3.34c-1.84,0-3.34-1.49-3.34-3.34Z"/><path class="cls-1" d="M125.13,201.86c0-1.5,1.21-2.71,2.71-2.71s2.71,1.21,2.71,2.71-1.21,2.71-2.71,2.71c-1.5,0-2.71-1.21-2.71-2.71Z"/><path class="cls-1" d="M333.12,178.6c0-4.98,4.03-9.01,9.01-9.01,4.98,0,9.01,4.03,9.01,9.01,0,4.98-4.03,9.01-9.01,9.01-4.98,0-9.01-4.03-9.01-9.01Z"/><path class="cls-1" d="M306.65,178.6c0-4.63,3.75-8.38,8.38-8.38,4.63,0,8.38,3.75,8.38,8.38,0,4.63-3.75,8.38-8.38,8.38-4.63,0-8.38-3.75-8.38-8.38Z"/><path class="cls-1" d="M281.44,178.6c0-4.28,3.47-7.75,7.75-7.75,4.28,0,7.75,3.47,7.75,7.75,0,4.28-3.47,7.75-7.75,7.75-4.28,0-7.75-3.47-7.75-7.75Z"/><path class="cls-1" d="M257.49,178.6c0-3.93,3.19-7.12,7.12-7.12,3.93,0,7.12,3.19,7.12,7.12,0,3.93-3.19,7.12-7.12,7.12-3.93,0-7.12-3.19-7.12-7.12Z"/><circle class="cls-1" cx="241.29" cy="178.6" r="6.49" transform="translate(-56.01 220.25) rotate(-44.48)"/><path class="cls-1" d="M213.37,178.6c0-3.24,2.62-5.86,5.86-5.86,3.24,0,5.86,2.62,5.86,5.86,0,3.24-2.62,5.86-5.86,5.86-3.24,0-5.86-2.62-5.86-5.86Z"/><path class="cls-1" d="M193.21,178.6c0-2.89,2.34-5.23,5.23-5.23,2.89,0,5.23,2.34,5.23,5.23s-2.34,5.23-5.23,5.23c-2.89,0-5.23-2.34-5.23-5.23Z"/><path class="cls-1" d="M174.3,178.6c0-2.54,2.06-4.6,4.6-4.6,2.54,0,4.6,2.06,4.6,4.6,0,2.54-2.06,4.6-4.6,4.6-2.54,0-4.6-2.06-4.6-4.6Z"/><path class="cls-1" d="M156.65,178.6c0-2.19,1.78-3.97,3.97-3.97,2.19,0,3.97,1.78,3.97,3.97,0,2.19-1.78,3.97-3.97,3.97-2.19,0-3.97-1.78-3.97-3.97Z"/><path class="cls-1" d="M140.26,178.6c0-1.84,1.49-3.34,3.34-3.34,1.84,0,3.34,1.49,3.34,3.34,0,1.84-1.49,3.34-3.34,3.34s-3.34-1.49-3.34-3.34Z"/><path class="cls-1" d="M125.13,178.6c0-1.5,1.21-2.71,2.71-2.71,1.5,0,2.71,1.21,2.71,2.71,0,1.5-1.21,2.71-2.71,2.71s-2.71-1.21-2.71-2.71Z"/><path class="cls-1" d="M333.12,155.34c0-4.98,4.03-9.01,9.01-9.01,4.98,0,9.01,4.03,9.01,9.01,0,4.98-4.03,9.01-9.01,9.01-4.98,0-9.01-4.03-9.01-9.01Z"/><path class="cls-1" d="M306.65,155.34c0-4.63,3.75-8.38,8.38-8.38,4.63,0,8.38,3.75,8.38,8.38,0,4.63-3.75,8.38-8.38,8.38-4.63,0-8.38-3.75-8.38-8.38Z"/><path class="cls-1" d="M281.44,155.34c0-4.28,3.47-7.75,7.75-7.75,4.28,0,7.75,3.47,7.75,7.75,0,4.28-3.47,7.75-7.75,7.75-4.28,0-7.75-3.47-7.75-7.75Z"/><path class="cls-1" d="M257.49,155.34c0-3.93,3.19-7.12,7.12-7.12,3.93,0,7.12,3.19,7.12,7.12,0,3.93-3.19,7.12-7.12,7.12-3.93,0-7.12-3.19-7.12-7.12Z"/><circle class="cls-1" cx="241.29" cy="155.34" r="6.49"/><path class="cls-1" d="M213.37,155.34c0-3.24,2.62-5.86,5.86-5.86,3.24,0,5.86,2.62,5.86,5.86s-2.62,5.86-5.86,5.86c-3.24,0-5.86-2.62-5.86-5.86Z"/><path class="cls-1" d="M193.21,155.34c0-2.89,2.34-5.23,5.23-5.23,2.89,0,5.23,2.34,5.23,5.23,0,2.89-2.34,5.23-5.23,5.23-2.89,0-5.23-2.34-5.23-5.23Z"/><path class="cls-1" d="M174.3,155.34c0-2.54,2.06-4.6,4.6-4.6s4.6,2.06,4.6,4.6c0,2.54-2.06,4.6-4.6,4.6-2.54,0-4.6-2.06-4.6-4.6Z"/><path class="cls-1" d="M156.65,155.34c0-2.19,1.78-3.97,3.97-3.97,2.19,0,3.97,1.78,3.97,3.97,0,2.19-1.78,3.97-3.97,3.97-2.19,0-3.97-1.78-3.97-3.97Z"/><path class="cls-1" d="M140.26,155.34c0-1.84,1.49-3.34,3.34-3.34,1.84,0,3.34,1.49,3.34,3.34,0,1.84-1.49,3.34-3.34,3.34s-3.34-1.49-3.34-3.34Z"/><path class="cls-1" d="M125.13,155.34c0-1.5,1.21-2.71,2.71-2.71s2.71,1.21,2.71,2.71c0,1.5-1.21,2.71-2.71,2.71-1.5,0-2.71-1.21-2.71-2.71Z"/><path class="cls-1" d="M333.12,132.09c0-4.98,4.03-9.01,9.01-9.01,4.98,0,9.01,4.03,9.01,9.01,0,4.98-4.03,9.01-9.01,9.01-4.98,0-9.01-4.03-9.01-9.01Z"/><path class="cls-1" d="M306.65,132.09c0-4.63,3.75-8.38,8.38-8.38,4.63,0,8.38,3.75,8.38,8.38,0,4.63-3.75,8.38-8.38,8.38-4.63,0-8.38-3.75-8.38-8.38Z"/><circle class="cls-1" cx="289.19" cy="132.09" r="7.75"/><path class="cls-1" d="M257.49,132.09c0-3.93,3.19-7.12,7.12-7.12,3.93,0,7.12,3.19,7.12,7.12,0,3.93-3.19,7.12-7.12,7.12-3.93,0-7.12-3.19-7.12-7.12Z"/><circle class="cls-1" cx="241.29" cy="132.09" r="6.49" transform="translate(-22.73 209.31) rotate(-45)"/><path class="cls-1" d="M213.37,132.09c0-3.24,2.62-5.86,5.86-5.86,3.24,0,5.86,2.62,5.86,5.86,0,3.24-2.62,5.86-5.86,5.86-3.24,0-5.86-2.62-5.86-5.86Z"/><path class="cls-1" d="M193.21,132.09c0-2.89,2.34-5.23,5.23-5.23,2.89,0,5.23,2.34,5.23,5.23,0,2.89-2.34,5.23-5.23,5.23-2.89,0-5.23-2.34-5.23-5.23Z"/><path class="cls-1" d="M174.3,132.09c0-2.54,2.06-4.6,4.6-4.6,2.54,0,4.6,2.06,4.6,4.6,0,2.54-2.06,4.6-4.6,4.6s-4.6-2.06-4.6-4.6Z"/><circle class="cls-1" cx="160.62" cy="132.09" r="3.97"/><path class="cls-1" d="M140.26,132.09c0-1.84,1.49-3.34,3.34-3.34s3.34,1.49,3.34,3.34c0,1.84-1.49,3.34-3.34,3.34s-3.34-1.5-3.34-3.34Z"/><path class="cls-1" d="M125.13,132.09c0-1.5,1.21-2.71,2.71-2.71,1.5,0,2.71,1.21,2.71,2.71s-1.21,2.71-2.71,2.71-2.71-1.21-2.71-2.71Z"/><rect class="cls-3" x="0" y="119.07" width="119.07" height="119.07"/><circle class="cls-4" cx="59.53" cy="178.6" r="43.77"/><path class="cls-5" d="M91.3,178.6c-.97,1.39-11.97,16.56-31.78,16.56-5.13,0-9.66-1.02-13.59-2.55-11.23-4.38-17.45-12.98-18.17-14.01.76-1.09,7.65-10.6,20.09-14.69,3.47-1.15,7.37-1.87,11.68-1.87,19.79,0,30.79,15.17,31.77,16.56Z"/><path class="cls-1" d="M56.31,177.84c0,6.8-4.32,12.59-10.37,14.77-11.23-4.38-17.45-12.98-18.17-14.01.76-1.09,7.65-10.6,20.09-14.69,5.02,2.61,8.46,7.87,8.46,13.93Z"/><rect class="cls-5" y="238.14" width="119.07" height="119.07" transform="translate(119.07 595.34) rotate(180)"/><path class="cls-1" d="M119.07,238.14h0c-32.88,0-59.53,26.65-59.53,59.53v-59.53H0C0,271.01,26.65,297.67,59.53,297.67H0v59.53h0c32.88,0,59.53-26.65,59.53-59.53v59.53h59.53c0-32.88-26.65-59.53-59.53-59.53h59.53v-59.53Z"/><rect class="cls-3" x="238.14" y="0" width="119.07" height="119.07" transform="translate(238.13 357.2) rotate(-90)"/><path class="cls-5" d="M357.2,59.54l-6.44,1.98c-24.22,7.45-43.23,26.34-50.86,50.5l-2.22,7.05-2.23-7.05c-7.63-24.16-26.64-43.05-50.86-50.5l-6.44-1.98,6.44-1.98c24.22-7.45,43.23-26.34,50.86-50.5L297.68,0l2.22,7.05c7.63,24.16,26.64,43.05,50.86,50.5l6.44,2Z"/><rect class="cls-1" x="238.14" y="357.2" width="119.07" height="119.07"/><path class="cls-5" d="M339.72,415.78c-.74.7-.75,1.86-.02,2.56.78.74,1.57,1.45,2.41,2.14l5.58,4.57c1.11.9.75,2.66-.63,3.07l-6.94,2.09c-1.13.35-2.25.73-3.35,1.17-.94.37-1.39,1.44-.99,2.35.47,1.07.97,2.11,1.53,3.14l3.55,6.59c.68,1.25-.34,2.75-1.79,2.6l-7.56-.72c-1.18-.11-2.37-.17-3.54-.2-1.01-.01-1.85.8-1.84,1.8.01,1.16.06,2.31.17,3.48l.66,7.11c.13,1.41-1.38,2.4-2.66,1.74l-6.41-3.35c-.96-.5-1.93-.96-2.92-1.37-.95-.4-2.05.07-2.42,1.01-.31.76-.59,1.54-.84,2.33l-2.64,8.19c-.44,1.35-2.22,1.69-3.14.6l-5.03-6.02c-.69-.83-1.41-1.62-2.16-2.38-.71-.73-1.9-.72-2.6,0-.59.6-1.16,1.21-1.7,1.85l-5.65,6.56c-.93,1.07-2.69.73-3.12-.61l-2.64-8.19c-.23-.7-.47-1.38-.74-2.07-.37-.95-1.48-1.41-2.43-.99-.68.29-1.34.61-2.01.95l-8.05,4.11c-1.27.65-2.78-.34-2.65-1.74l.82-8.87c.07-.73.11-1.46.13-2.19.03-1.01-.82-1.85-1.85-1.83-.74.02-1.48.05-2.23.12l-8.71.72c-1.43.12-2.42-1.35-1.77-2.6l4.03-7.62c.39-.74.75-1.49,1.09-2.26.41-.91-.04-2.01-.99-2.38-1-.38-2.02-.74-3.05-1.06l-7.57-2.29c-1.37-.41-1.73-2.17-.63-3.07l6.71-5.5c.65-.53,1.27-1.09,1.9-1.66.74-.7.75-1.86.02-2.56-.76-.73-1.57-1.45-2.4-2.12l-5.58-4.57c-1.11-.9-.75-2.66.63-3.07l6.94-2.1c1.14-.35,2.25-.73,3.33-1.17.94-.37,1.4-1.44.99-2.36-.46-1.07-.97-2.11-1.53-3.14l-3.55-6.59c-.68-1.25.34-2.75,1.79-2.61l7.56.72c1.18.12,2.37.19,3.53.2,1.01.01,1.85-.8,1.84-1.8-.01-1.16-.06-2.31-.17-3.48l-.67-7.1c-.13-1.4,1.38-2.4,2.66-1.74l6.43,3.33c.96.5,1.93.96,2.92,1.38.94.4,2.04-.05,2.41-.99.31-.78.59-1.56.85-2.36l2.63-8.17c.44-1.35,2.22-1.69,3.14-.6l5.03,6.02c.69.82,1.41,1.61,2.15,2.38.72.73,1.91.72,2.63-.01.58-.59,1.15-1.2,1.69-1.84l5.65-6.56c.93-1.07,2.69-.73,3.12.61l2.65,8.2c.22.7.47,1.39.73,2.07.37.95,1.48,1.4,2.43.98.68-.3,1.35-.61,2.02-.95l8.05-4.11c1.27-.66,2.78.34,2.65,1.74l-.82,8.87c-.06.73-.11,1.46-.14,2.19-.03,1.01.82,1.85,1.85,1.83.74-.02,1.48-.05,2.23-.12l8.72-.72c1.43-.12,2.42,1.35,1.77,2.6l-4.03,7.62c-.39.73-.75,1.47-1.09,2.22-.41.93.02,2.02.98,2.4,1,.39,2.02.74,3.06,1.06l7.57,2.29c1.37.41,1.73,2.17.63,3.07l-6.71,5.5c-.67.52-1.3,1.08-1.91,1.66Z"/><rect class="cls-3" x="476.27" y="476.27" width="119.07" height="119.07" transform="translate(1071.61 0) rotate(90)"/><path class="cls-5" d="M524.63,536.78c-.15,0-17.24-.11-17.39-.11s-17.24-.11-17.39-.11c2.91-8.69,15.07-49.44,17.88-60.29h63.75c-10.23,13.36-20.45,26.71-30.68,40.07,6.49-.08,13.02-.17,19.56-.28,7.17-.12,14.31-.26,21.42-.41-26.8,26.56-53.6,53.12-80.4,79.68,3.07-9.01,6.47-18.33,10.23-27.9,4.23-10.76,8.6-20.98,13-30.66Z"/><rect class="cls-5" x="476.27" y="357.2" width="119.07" height="119.07"/><rect class="cls-5" x="357.2" y="119.07" width="119.07" height="119.07" transform="translate(833.47 357.2) rotate(180)"/><path class="cls-3" d="M416.74,238.14c-1.55-34.73-27.61-62.37-59.53-62.42,1.55,34.73,27.61,62.37,59.53,62.42Z"/><path class="cls-3" d="M416.74,238.14c1.55-34.73,27.61-62.37,59.53-62.42-1.55,34.73-27.61,62.37-59.53,62.42Z"/><path class="cls-4" d="M446.5,133.93h-59.53v19.73c0,16.44,13.33,29.77,29.76,29.77s29.77-13.33,29.77-29.77h0v-19.73Z"/><polygon class="cls-2" points="259.1 595.35 281.2 595.35 281.2 595.35 259.1 595.35 259.1 595.35"/><rect class="cls-5" x="476.27" y="595.34" width="119.07" height="119.07" transform="translate(1190.67 119.07) rotate(90)"/><path class="cls-4" d="M486.03,642.24v-5.64c.14-.89.27-1.78.43-2.66,1-5.42,3.13-10.32,6.82-14.47,2.02-2.27,4.36-4.14,7.05-5.56,2.57-1.36,5.28-2.25,8.16-2.68,3.54-.53,7.03-.39,10.48.58,4.51,1.28,8.26,3.78,11.48,7.15,2.76,2.89,4.55,6,4.75,6.37.23.41.4.77.53,1.02.12-.19.29-.46.49-.79.19-.3.32-.52.33-.54,1.33-2.19,2.83-4.26,4.61-6.11,2.54-2.65,5.44-4.78,8.84-6.19,4.62-1.92,9.41-2.23,14.29-1.27,3.24.64,6.24,1.87,9,3.71,4.2,2.81,7.29,6.55,9.42,11.11,1.59,3.41,2.47,7.01,2.76,10.75.33,4.18-.13,8.27-1.43,12.26-1.44,4.42-3.77,8.36-6.57,12.04-3.91,5.11-8.43,9.67-13.25,13.91-8.56,7.53-27.78,23.62-28.41,23.62-.65,0-18.82-15.2-26.88-22.21-4.38-3.81-8.54-7.84-12.33-12.25-3.1-3.6-5.83-7.44-7.78-11.79-1.04-2.31-1.83-4.7-2.26-7.2-.18-1.05-.35-2.1-.53-3.15Z"/><rect class="cls-5" x="119.07" y="0" width="119.07" height="119.07"/><path class="cls-3" d="M224.11,59.53c0,.44,0,.86-.01,1.29-.08,2.84-.42,5.63-1.01,8.32-1.49,6.97-4.59,13.36-8.89,18.75-8.31,10.41-21.09,17.1-35.43,17.15h-.15c-6.92,0-13.45-1.53-19.32-4.3-9.79-4.59-17.68-12.57-22.15-22.43-2.6-5.72-4.05-12.07-4.05-18.78,0-9.43,2.87-18.19,7.8-25.44.9-1.36,1.89-2.66,2.94-3.91,4.32-5.12,9.76-9.28,15.93-12.08,4.25-1.93,8.83-3.23,13.65-3.78,1.7-.2,3.43-.3,5.19-.3s3.38.09,5.03.28c7.61.83,14.67,3.55,20.68,7.67,11.95,8.2,19.79,21.96,19.79,37.55Z"/><path class="cls-1" d="M179.3,26.47c-1.24,1.66-3.82,1.56-5.7.66-1.86-.9-3.42-2.38-5.36-3.12-2.91-1.1-6.47-.18-8.49,2.21-2.01,2.37-2.32,6.03-.76,8.72.8,1.38,2.16,2.54,3.75,2.68,1.59.14,3.32-1.03,3.41-2.62.11-1.89-1.89-3.66-1.18-5.4.46-1.17,1.97-1.59,3.19-1.26,1.2.33,2.17,1.2,3.08,2.07,1.66,1.55,3.39,3.19,4.15,5.32.78,2.15.26,4.93-1.75,6.02-2.1,1.13-5.15.13-6.77,1.89-1.42,1.55-.64,4,.22,5.91.85,1.9,1.65,4.34.27,5.9-1.18,1.33-3.34,1.19-4.94.42-1.6-.76-2.95-2.02-4.58-2.71-1.64-.7-3.85-.64-4.85.83-1.2,1.77.19,4.27,2.07,5.31,1.86,1.04,4.1,1.23,6.04,2.14,1.94.9,3.65,3.08,2.84,5.06-.58,1.45-2.32,2.15-3.89,2.02-1.56-.13-2.99-.91-4.35-1.68-3.12-1.75-6.28-3.5-8.91-5.94-2.62-2.43-4.71-5.63-5.1-9.18-.38-3.52.89-6.99,1.12-10.5.19-2.69-1.1-4.84-1.92-7.12.9-1.36,1.89-2.66,2.94-3.91,4.32-5.12,9.76-9.28,15.93-12.08,4.25-1.93,8.83-3.23,13.65-3.78.31,1.98,2.14,3.73,3.71,5.2,1.94,1.83,3.76,4.81,2.17,6.94Z"/><path class="cls-1" d="M224.11,59.53c0,.44,0,.86-.01,1.29-.08,2.84-.42,5.63-1.01,8.32-.38-.24-.78-.41-1.2-.52-1.23-.31-2.53-.07-3.79-.18-3.84-.34-6.9-4.4-6.18-8.19.46-2.47,2.18-5.26.59-7.21-2.03-2.5-6.59.09-9.18-1.82-1.24-.92-1.62-2.63-1.5-4.17.12-1.53.64-3.02.83-4.54.53-4.53-1.89-8.83-4.21-12.75-.97-1.63-2.37-3.48-4.24-3.25-1.22.15-2.22,1.19-3.45,1.19-1.73.01-2.73-1.92-3.32-3.54-.74-2.05-1.49-4.1-2.23-6.14-.46-1.26-.92-2.55-1.56-3.73,7.61.83,14.67,3.55,20.68,7.67,11.95,8.2,19.79,21.96,19.79,37.55Z"/><path class="cls-1" d="M166.39,73.27c1.81-2.77,4.84-4.85,7.45-6.78,1.2-.89,2.49-1.81,3.98-1.92,1.35-.1,2.64.49,3.87,1.07,2.27,1.06,4.54,2.13,6.85,3.08,1.49.61,3.01,1.18,4.6,1.38,1.81.22,3.65-.05,5.46.13,1.81.19,3.74.99,4.51,2.64.75,1.61.17,3.56-.9,4.98-1.07,1.41-2.56,2.44-3.91,3.58-1.35,1.15-2.63,2.53-3.03,4.26-.22.98-.15,2.03-.52,2.97-.49,1.24-1.68,2.06-2.79,2.79-3,1.98-6,3.96-9,5.93-.98.65-2.11,1.33-3.26,1.1-1.76-.35-2.45-2.52-2.43-4.32.02-1.8.38-3.75-.58-5.28-1.14-1.81-3.58-2.16-5.55-3-2.77-1.17-4.95-3.66-5.75-6.56-.64-2.31-.31-4.07,1-6.08Z"/><rect class="cls-1" x="0" y="714.41" width="119.07" height="119.07" transform="translate(119.07 1547.88) rotate(180)"/><rect class="cls-3" x="238.14" y="714.41" width="119.07" height="119.07" transform="translate(595.34 1547.88) rotate(180)"/><rect class="cls-1" x="476.27" y="714.41" width="119.07" height="119.07" transform="translate(1071.61 1547.88) rotate(180)"/><rect class="cls-3" x="357.2" y="714.41" width="119.07" height="119.07" transform="translate(833.47 1547.88) rotate(180)"/><path class="cls-5" d="M442.16,765.61c-3.32-5.45-7.33-10.61-10.65-15.64-4.91-7.41-9.82-14.82-14.73-22.23-6.42,9.67-12.81,19.36-19.23,29.03-5.98,9.02-12.82,17.35-12.82,28.71,0,17.58,14.47,32.05,32.05,32.05s32.05-14.47,32.05-32.05c0-7.12-2.89-13.68-6.66-19.87Z"/><path class="cls-1" d="M357.34,262.9h-.14c.06-.01.09,0,.14,0Z"/><path class="cls-1" d="M368.6,238.13h0s-.09,0-.14,0h.14Z"/><path class="cls-1" d="M119.07,573.99v21.35h-20.12c-.14-.14-.3-.28-.44-.41-3.33-3.02-6.68-2.94-12.59-2.5-6.46.48-15.33,1.13-23.2-6.67-7.88-7.79-7.3-16.61-6.86-23.07.4-6.14.45-9.5-3.03-12.94l-.18-.18c-.11-.09-.21-.19-.32-.28-3.32-2.96-6.66-2.88-12.51-2.45-6.48.48-15.34,1.14-23.22-6.65-.98-.97-1.84-1.97-2.56-2.96-.04-.05-.07-.09-.09-.14-.02-.04-.05-.06-.07-.09-.22-.31-.44-.6-.64-.91-.08-.12-.14-.24-.21-.34-.09-.15-.18-.29-.27-.45-.04-.06-.08-.12-.12-.19-.05-.09-.09-.18-.14-.27-3.6-6.31-3.19-12.79-2.84-17.82.41-6.12.47-9.47-3.02-12.91-2.01-1.99-3.98-2.81-6.49-3.06-.05,0-.08-.01-.14-.01v-24.76h11.26s.09.01.14.01c5.03.29,10.57,1.78,15.71,6.84.02.04.06.06.08.09h.01l.02-.02c7.87,7.79,7.28,16.61,6.84,23.06-.35,5.33-.44,8.57,1.81,11.58.11.14.21.27.33.41.08.09.17.19.25.29.17.17.33.34.51.52,3.48,3.43,6.84,3.35,12.99,2.9,5.84-.42,13.63-.98,20.89,4.67.09.06.18.12.26.19.09.07.18.14.27.21.14.13.28.25.42.37.14.12.28.22.41.34.38.33.76.67,1.12,1.04,7.88,7.78,7.28,16.61,6.86,23.06-.41,6.14-.47,9.5,3.01,12.94,3.48,3.43,6.86,3.36,13.03,2.91,5.43-.4,12.54-.92,19.35,3.52,1.17.77,2.35,1.69,3.49,2.78Z"/><path class="cls-1" d="M456.15,357.21h-.44v-.41c.14.13.3.27.44.41Z"/><rect class="cls-3" x="0" y="595.34" width="119.07" height="119.07"/><path class="cls-5" d="M15.68,651.35c4.27-3.59,11.2-7.82,20.25-7.82,9.05,0,15.98,4.23,20.24,7.82-3.59-4.27-7.82-11.2-7.82-20.25,0-9.05,4.23-15.98,7.82-20.24-4.27,3.59-11.2,7.82-20.25,7.82-9.05,0-15.98-4.23-20.24-7.82,3.59,4.27,7.82,11.2,7.82,20.25,0,9.05-4.23,15.98-7.82,20.24Z"/><path class="cls-5" d="M62.88,651.35c4.27-3.59,11.2-7.82,20.25-7.82,9.05,0,15.98,4.23,20.24,7.82-3.59-4.27-7.82-11.2-7.82-20.25,0-9.05,4.23-15.98,7.82-20.24-4.27,3.59-11.2,7.82-20.25,7.82-9.05,0-15.98-4.23-20.24-7.82,3.59,4.27,7.82,11.2,7.82,20.25,0,9.05-4.23,15.98-7.82,20.24Z"/><path class="cls-5" d="M15.68,699.01c4.27-3.59,11.2-7.82,20.25-7.82,9.05,0,15.98,4.23,20.24,7.82-3.59-4.27-7.82-11.2-7.82-20.25,0-9.05,4.23-15.98,7.82-20.24-4.27,3.59-11.2,7.82-20.25,7.82-9.05,0-15.98-4.23-20.24-7.82,3.59,4.27,7.82,11.2,7.82,20.25,0,9.05-4.23,15.98-7.82,20.24Z"/><path class="cls-5" d="M62.88,699.01c4.27-3.59,11.2-7.82,20.25-7.82,9.05,0,15.98,4.23,20.24,7.82-3.59-4.27-7.82-11.2-7.82-20.25,0-9.05,4.23-15.98,7.82-20.24-4.27,3.59-11.2,7.82-20.25,7.82-9.05,0-15.98-4.23-20.24-7.82,3.59,4.27,7.82,11.2,7.82,20.25,0,9.05-4.23,15.98-7.82,20.24Z"/><rect class="cls-5" x="119.07" y="714.41" width="119.07" height="119.07"/><polygon class="cls-4" points="178.6 749.37 197.4 728.54 195.97 756.57 224 755.14 203.17 773.94 224 792.74 195.97 791.31 197.4 819.33 178.6 798.51 159.8 819.33 161.23 791.31 133.21 792.74 154.03 773.94 133.21 755.14 161.23 756.57 159.8 728.54 178.6 749.37"/><rect class="cls-1" x="476.27" y="238.14" width="119.07" height="119.07"/><circle class="cls-5" cx="535.8" cy="297.93" r="15.5"/><circle class="cls-5" cx="563.68" cy="325.55" r="15.5"/><circle class="cls-5" cx="507.93" cy="269.79" r="15.5"/><rect class="cls-5" x="357.2" y="238.14" width="119.07" height="119.07" transform="translate(119.06 714.41) rotate(-90)"/><path class="cls-1" d="M416.74,287.16c-5.8,0-10.52,4.72-10.52,10.52s4.72,10.52,10.52,10.52,10.52-4.72,10.52-10.52-4.72-10.52-10.52-10.52Z"/><path class="cls-1" d="M416.74,268.34c-7.84,0-15.2,3.05-20.74,8.59-5.54,5.54-8.59,12.91-8.59,20.74s3.05,15.2,8.59,20.74c5.54,5.54,12.91,8.59,20.74,8.59s15.2-3.05,20.74-8.59c5.54-5.54,8.59-12.91,8.59-20.74s-3.05-15.2-8.59-20.74c-5.54-5.54-12.91-8.59-20.74-8.59ZM416.74,315.18c-9.65,0-17.51-7.85-17.51-17.51s7.85-17.51,17.51-17.51,17.51,7.85,17.51,17.51-7.85,17.51-17.51,17.51Z"/><path class="cls-1" d="M461.09,278.94c-2.42-5.73-5.89-10.88-10.31-15.3-4.42-4.42-9.57-7.89-15.3-10.31-5.94-2.51-12.24-3.79-18.74-3.79s-12.8,1.27-18.74,3.79c-5.73,2.42-10.88,5.89-15.3,10.31-4.42,4.42-7.89,9.57-10.31,15.3-2.51,5.94-3.79,12.24-3.79,18.74s1.27,12.8,3.79,18.74c2.42,5.73,5.89,10.88,10.31,15.3,4.42,4.42,9.57,7.89,15.3,10.31,5.94,2.51,12.24,3.79,18.74,3.79s12.8-1.27,18.74-3.79c5.73-2.42,10.88-5.89,15.3-10.31,4.42-4.42,7.89-9.57,10.31-15.3,2.51-5.94,3.79-12.24,3.79-18.74s-1.27-12.8-3.79-18.74ZM453.04,297.67c0,20.02-16.29,36.31-36.31,36.31s-36.31-16.29-36.31-36.31,16.29-36.31,36.31-36.31,36.31,16.29,36.31,36.31Z"/><polygon class="cls-1" points="238.14 595.34 238.14 476.27 119.07 476.27 119.07 595.34 119.07 595.34 119.07 714.41 238.14 714.41 238.14 595.34 238.14 595.34"/><path class="cls-5" d="M119.07,476.27c39.69,39.69,79.38,79.38,119.07,119.07-39.69,39.69-79.38,79.38-119.07,119.07v-238.14Z"/><rect class="cls-5" x="237.84" y="476.27" width="119.07" height="119.07"/><path class="cls-4" d="M356.1,519.72c-41.54,0-75.21,33.67-75.21,75.21,0,.13,0,.27.01.4h21.36c0-.13-.01-.27-.01-.4,0-29.7,24.16-53.86,53.85-53.86.27,0,.54.02.81.02v-21.36c-.27,0-.54-.02-.81-.02Z"/><path class="cls-5" d="M258.79,594.94c0,.13,0,.27.01.4h22.1c0-.13-.01-.27-.01-.4,0-41.54,33.67-75.21,75.21-75.21.27,0,.54.02.81.02v-22.1c-.27,0-.54-.02-.81-.02-53.66,0-97.31,43.65-97.31,97.31Z"/><path class="cls-3" d="M355.9,476.27h0c-62.15.26-113,48.3-117.77,109.29v9.78h20.96c0-.13-.01-.27-.01-.4,0-53.66,43.65-97.31,97.31-97.31.27,0,.54.02.81.02v-21.38h-1.3Z"/><rect class="cls-1" x="381.41" y="595.34" width="70.64" height="119.07" transform="translate(833.47 1309.74) rotate(180)"/><rect class="cls-1" x="357.2" y="595.34" width="20.78" height="119.07" transform="translate(735.18 1309.74) rotate(180)"/><rect class="cls-5" x="362.1" y="602.53" width="10.99" height="9.46" rx="1.45" ry="1.45"/><rect class="cls-5" x="362.1" y="626.37" width="10.99" height="9.46" rx="1.45" ry="1.45"/><rect class="cls-5" x="362.1" y="650.21" width="10.99" height="9.46" rx="1.45" ry="1.45"/><rect class="cls-5" x="362.1" y="674.05" width="10.99" height="9.46" rx="1.45" ry="1.45"/><rect class="cls-5" x="362.1" y="697.88" width="10.99" height="9.46" rx="1.45" ry="1.45"/><rect class="cls-1" x="455.49" y="595.34" width="20.78" height="119.07" transform="translate(931.76 1309.74) rotate(180)"/><rect class="cls-5" x="460.39" y="602.53" width="10.99" height="9.46" rx="1.45" ry="1.45"/><rect class="cls-5" x="460.39" y="626.37" width="10.99" height="9.46" rx="1.45" ry="1.45"/><rect class="cls-5" x="460.39" y="650.21" width="10.99" height="9.46" rx="1.45" ry="1.45"/><rect class="cls-5" x="460.39" y="674.05" width="10.99" height="9.46" rx="1.45" ry="1.45"/><rect class="cls-5" x="460.39" y="697.88" width="10.99" height="9.46" rx="1.45" ry="1.45"/><rect class="cls-1" x="381.43" y="476.24" width="70.64" height="119.07" transform="translate(833.51 1071.56) rotate(180)"/><rect class="cls-1" x="357.22" y="476.24" width="20.78" height="119.07" transform="translate(735.22 1071.56) rotate(180)"/><rect class="cls-5" x="362.11" y="483.44" width="10.99" height="9.46" rx="1.45" ry="1.45"/><rect class="cls-5" x="362.11" y="507.28" width="10.99" height="9.46" rx="1.45" ry="1.45"/><rect class="cls-5" x="362.11" y="531.11" width="10.99" height="9.46" rx="1.45" ry="1.45"/><rect class="cls-5" x="362.11" y="554.95" width="10.99" height="9.46" rx="1.45" ry="1.45"/><rect class="cls-5" x="362.11" y="578.79" width="10.99" height="9.46" rx="1.45" ry="1.45"/><rect class="cls-1" x="455.51" y="476.24" width="20.78" height="119.07" transform="translate(931.8 1071.56) rotate(180)"/><rect class="cls-5" x="460.4" y="483.44" width="10.99" height="9.46" rx="1.45" ry="1.45"/><rect class="cls-5" x="460.4" y="507.28" width="10.99" height="9.46" rx="1.45" ry="1.45"/><rect class="cls-5" x="460.4" y="531.11" width="10.99" height="9.46" rx="1.45" ry="1.45"/><rect class="cls-5" x="460.4" y="554.95" width="10.99" height="9.46" rx="1.45" ry="1.45"/><rect class="cls-5" x="460.4" y="578.79" width="10.99" height="9.46" rx="1.45" ry="1.45"/><rect class="cls-3" x="476.27" y="0" width="119.07" height="119.07"/><polygon class="cls-5" points="595.34 59.53 476.27 0 476.27 119.07 595.34 59.53"/></g></svg>