<?xml version="1.0" encoding="UTF-8"?><svg id="Layer_2" xmlns="http://www.w3.org/2000/svg" viewBox="0 0 119.07 119.07"><defs><style>.cls-1,.cls-2{stroke-width:0px;}.cls-2{fill:#fff;}</style></defs><g id="GUIDELINES"><rect class="cls-1" x="24.21" y="0" width="70.64" height="119.07" transform="translate(119.07 119.07) rotate(180)"/><rect class="cls-1" width="20.78" height="119.07" transform="translate(20.78 119.07) rotate(180)"/><rect class="cls-2" x="4.89" y="7.19" width="10.99" height="9.46" rx="1.45" ry="1.45"/><rect class="cls-2" x="4.89" y="31.03" width="10.99" height="9.46" rx="1.45" ry="1.45"/><rect class="cls-2" x="4.89" y="54.87" width="10.99" height="9.46" rx="1.45" ry="1.45"/><rect class="cls-2" x="4.89" y="78.71" width="10.99" height="9.46" rx="1.45" ry="1.45"/><rect class="cls-2" x="4.89" y="102.55" width="10.99" height="9.46" rx="1.45" ry="1.45"/><rect class="cls-1" x="98.29" width="20.78" height="119.07" transform="translate(217.36 119.07) rotate(180)"/><rect class="cls-2" x="103.18" y="7.19" width="10.99" height="9.46" rx="1.45" ry="1.45"/><rect class="cls-2" x="103.18" y="31.03" width="10.99" height="9.46" rx="1.45" ry="1.45"/><rect class="cls-2" x="103.18" y="54.87" width="10.99" height="9.46" rx="1.45" ry="1.45"/><rect class="cls-2" x="103.18" y="78.71" width="10.99" height="9.46" rx="1.45" ry="1.45"/><rect class="cls-2" x="103.18" y="102.55" width="10.99" height="9.46" rx="1.45" ry="1.45"/></g></svg>