<?xml version="1.0" encoding="UTF-8"?><svg id="Layer_2" xmlns="http://www.w3.org/2000/svg" viewBox="0 0 119.07 119.07"><defs><style>.cls-1{fill:#26d37c;}.cls-1,.cls-2{stroke-width:0px;}.cls-2{fill:#fff;}</style></defs><g id="GUIDELINES"><rect class="cls-1" x="0" width="119.07" height="119.07"/><path class="cls-2" d="M119.07,103.18v13.81c-2.29-1.12-4.18-2.46-6.87-3.37,0,0-.02-.02-.03-.02-.42-.14-.87-.26-1.35-.38-.03-.02-.09-.02-.14-.03-.44-.1-.91-.19-1.4-.28-.09-.02-.17-.02-.26-.03-.47-.07-.96-.12-1.47-.17-.14,0-.28,0-.42-.02-.54-.03-1.1-.05-1.7-.05v.05c-2.73,0-4.79.37-6.52.93-3.64,1.22-5.8,3.27-9.52,4.44-1.8.61-3.95,1.03-6.85,1.03-11.43,0-11.43-6.4-22.84-6.4-4.19,0-6.85.86-9.09,1.96-1.56.77-2.94,1.63-4.51,2.39-2.29,1.14-4.98,2.05-9.28,2.05h-.12c-11.41,0-11.45-6.36-22.79-6.4-4.19.02-6.83.89-9.09,1.98-1.52.77-2.88,1.63-4.44,2.38-.12.07-.24.12-.38.17v-13.65c2.45-1.19,4.4-2.62,7.29-3.55,1.8-.61,3.97-1.03,6.85-1.03.24,0,.45.02.7.03v-.03c.35.02.65.05.98.07.16,0,.33.02.49.03.45.03.87.09,1.28.14.17.02.35.03.51.07.37.05.72.14,1.07.21.17.03.35.07.51.12.31.07.61.16.89.26.17.05.35.1.52.16.26.09.51.19.75.28.17.07.35.14.52.21.21.1.42.19.63.3.19.09.37.17.56.26.16.09.31.17.49.24.21.12.44.24.66.37.02,0,.02.02.03.02.94.52,1.87,1.05,2.85,1.56.07.03.14.07.21.1.28.14.58.28.87.4.1.05.21.1.31.14.3.12.59.23.91.35.12.03.24.09.38.14.3.1.61.19.94.28.16.03.3.09.45.12.35.09.7.16,1.07.21.17.03.33.07.51.1.42.07.86.1,1.31.16.16,0,.3.03.47.05.63.03,1.29.07,1.99.07,1.38,0,2.57-.1,3.65-.26,6.66-1.08,8.55-4.86,15.33-5.87,1.14-.17,2.41-.3,3.88-.3h.03c.26,0,.51.03.77.03v-.03c.4.02.77.05,1.14.07.03,0,.07.02.1.02,9.49.7,10.19,6.31,20.87,6.34,1.36-.02,2.57-.1,3.65-.28,6.62-1.08,8.53-4.84,15.29-5.85,1.14-.17,2.41-.3,3.88-.3h.1c.24,0,.45.02.68.03v-.09c6.48.16,9.14,2.45,12.67,4.26Z"/><path class="cls-2" d="M119.07,78.45v13.81c-2.29-1.12-4.18-2.46-6.87-3.37,0,0-.02-.02-.03-.02-.42-.14-.87-.26-1.35-.38-.03-.02-.09-.02-.14-.03-.44-.1-.91-.19-1.4-.28-.09-.02-.17-.02-.26-.03-.47-.07-.96-.12-1.47-.17-.14,0-.28,0-.42-.02-.54-.03-1.1-.05-1.7-.05v.05c-2.73,0-4.79.37-6.52.93-3.64,1.22-5.8,3.27-9.52,4.44-1.8.61-3.95,1.03-6.85,1.03-11.43,0-11.43-6.4-22.84-6.4-4.19,0-6.85.86-9.09,1.96-1.56.77-2.94,1.63-4.51,2.39-2.29,1.14-4.98,2.05-9.28,2.05h-.12c-11.41,0-11.45-6.36-22.79-6.4-4.19.02-6.83.89-9.09,1.98-1.52.77-2.88,1.63-4.44,2.38-.12.07-.24.12-.38.17v-13.65c2.45-1.19,4.4-2.62,7.29-3.55,1.8-.61,3.97-1.03,6.85-1.03.24,0,.45.02.7.03v-.03c.35.02.65.05.98.07.16,0,.33.02.49.03.45.03.87.09,1.28.14.17.02.35.03.51.07.37.05.72.14,1.07.21.17.03.35.07.51.12.31.07.61.16.89.26.17.05.35.1.52.16.26.09.51.19.75.28.17.07.35.14.52.21.21.1.42.19.63.3.19.09.37.17.56.26.16.09.31.17.49.24.21.12.44.24.66.37.02,0,.02.02.03.02.94.52,1.87,1.05,2.85,1.56.07.03.14.07.21.1.28.14.58.28.87.4.1.05.21.1.31.14.3.12.59.23.91.35.12.03.24.09.38.14.3.1.61.19.94.28.16.03.3.09.45.12.35.09.7.16,1.07.21.17.03.33.07.51.1.42.07.86.1,1.31.16.16,0,.3.03.47.05.63.03,1.29.07,1.99.07,1.38,0,2.57-.1,3.65-.26,6.66-1.08,8.55-4.86,15.33-5.87,1.14-.17,2.41-.3,3.88-.3h.03c.26,0,.51.03.77.03v-.03c.4.02.77.05,1.14.07.03,0,.07.02.1.02,9.49.7,10.19,6.31,20.87,6.34,1.36-.02,2.57-.1,3.65-.28,6.62-1.08,8.53-4.84,15.29-5.85,1.14-.17,2.41-.3,3.88-.3h.1c.24,0,.45.02.68.03v-.09c6.48.16,9.14,2.45,12.67,4.26Z"/><path class="cls-2" d="M119.07,53.72v13.81c-2.29-1.12-4.18-2.46-6.87-3.37,0,0-.02-.02-.03-.02-.42-.14-.87-.26-1.35-.38-.03-.02-.09-.02-.14-.03-.44-.1-.91-.19-1.4-.28-.09-.02-.17-.02-.26-.03-.47-.07-.96-.12-1.47-.17-.14,0-.28,0-.42-.02-.54-.03-1.1-.05-1.7-.05v.05c-2.73,0-4.79.37-6.52.93-3.64,1.22-5.8,3.27-9.52,4.44-1.8.61-3.95,1.03-6.85,1.03-11.43,0-11.43-6.4-22.84-6.4-4.19,0-6.85.86-9.09,1.96-1.56.77-2.94,1.63-4.51,2.39-2.29,1.14-4.98,2.05-9.28,2.05h-.12c-11.41,0-11.45-6.36-22.79-6.4-4.19.02-6.83.89-9.09,1.98-1.52.77-2.88,1.63-4.44,2.38-.12.07-.24.12-.38.17v-13.65c2.45-1.19,4.4-2.62,7.29-3.55,1.8-.61,3.97-1.03,6.85-1.03.24,0,.45.02.7.03v-.03c.35.02.65.05.98.07.16,0,.33.02.49.03.45.03.87.09,1.28.14.17.02.35.03.51.07.37.05.72.14,1.07.21.17.03.35.07.51.12.31.07.61.16.89.26.17.05.35.1.52.16.26.09.51.19.75.28.17.07.35.14.52.21.21.1.42.19.63.3.19.09.37.17.56.26.16.09.31.17.49.24.21.12.44.24.66.37.02,0,.02.02.03.02.94.52,1.87,1.05,2.85,1.56.07.03.14.07.21.1.28.14.58.28.87.4.1.05.21.1.31.14.3.12.59.23.91.35.12.03.24.09.38.14.3.1.61.19.94.28.16.03.3.09.45.12.35.09.7.16,1.07.21.17.03.33.07.51.1.42.07.86.1,1.31.16.16,0,.3.03.47.05.63.03,1.29.07,1.99.07,1.38,0,2.57-.1,3.65-.26,6.66-1.08,8.55-4.86,15.33-5.87,1.14-.17,2.41-.3,3.88-.3h.03c.26,0,.51.03.77.03v-.03c.4.02.77.05,1.14.07.03,0,.07.02.1.02,9.49.7,10.19,6.31,20.87,6.34,1.36-.02,2.57-.1,3.65-.28,6.62-1.08,8.53-4.84,15.29-5.85,1.14-.17,2.41-.3,3.88-.3h.1c.24,0,.45.02.68.03v-.09c6.48.16,9.14,2.45,12.67,4.26Z"/><path class="cls-2" d="M119.07,28.99v13.81c-2.29-1.12-4.18-2.46-6.87-3.37,0,0-.02-.02-.03-.02-.42-.14-.87-.26-1.35-.38-.03-.02-.09-.02-.14-.03-.44-.1-.91-.19-1.4-.28-.09-.02-.17-.02-.26-.03-.47-.07-.96-.12-1.47-.17-.14,0-.28,0-.42-.02-.54-.03-1.1-.05-1.7-.05v.05c-2.73,0-4.79.37-6.52.93-3.64,1.22-5.8,3.27-9.52,4.44-1.8.61-3.95,1.03-6.85,1.03-11.43,0-11.43-6.4-22.84-6.4-4.19,0-6.85.86-9.09,1.96-1.56.77-2.94,1.63-4.51,2.39-2.29,1.14-4.98,2.05-9.28,2.05h-.12c-11.41,0-11.45-6.36-22.79-6.4-4.19.02-6.83.89-9.09,1.98-1.52.77-2.88,1.63-4.44,2.38-.12.07-.24.12-.38.17v-13.65c2.45-1.19,4.4-2.62,7.29-3.55,1.8-.61,3.97-1.03,6.85-1.03.24,0,.45.02.7.03v-.03c.35.02.65.05.98.07.16,0,.33.02.49.03.45.03.87.09,1.28.14.17.02.35.03.51.07.37.05.72.14,1.07.21.17.03.35.07.51.12.31.07.61.16.89.26.17.05.35.1.52.16.26.09.51.19.75.28.17.07.35.14.52.21.21.1.42.19.63.3.19.09.37.17.56.26.16.09.31.17.49.24.21.12.44.24.66.37.02,0,.02.02.03.02.94.52,1.87,1.05,2.85,1.56.07.03.14.07.21.1.28.14.58.28.87.4.1.05.21.1.31.14.3.12.59.23.91.35.12.03.24.09.38.14.3.1.61.19.94.28.16.03.3.09.45.12.35.09.7.16,1.07.21.17.03.33.07.51.1.42.07.86.1,1.31.16.16,0,.3.03.47.05.63.03,1.29.07,1.99.07,1.38,0,2.57-.1,3.65-.26,6.66-1.08,8.55-4.86,15.33-5.87,1.14-.17,2.41-.3,3.88-.3h.03c.26,0,.51.03.77.03v-.03c.4.02.77.05,1.14.07.03,0,.07.02.1.02,9.49.7,10.19,6.31,20.87,6.34,1.36-.02,2.57-.1,3.65-.28,6.62-1.08,8.53-4.84,15.29-5.85,1.14-.17,2.41-.3,3.88-.3h.1c.24,0,.45.02.68.03v-.09c6.48.16,9.14,2.45,12.67,4.26Z"/><path class="cls-2" d="M119.07,4.26v13.81c-2.29-1.12-4.18-2.46-6.87-3.37,0,0-.02-.02-.03-.02-.42-.14-.87-.26-1.35-.38-.03-.02-.09-.02-.14-.03-.44-.1-.91-.19-1.4-.28-.09-.02-.17-.02-.26-.03-.47-.07-.96-.12-1.47-.17-.14,0-.28,0-.42-.02-.54-.03-1.1-.05-1.7-.05v.05c-2.73,0-4.79.37-6.52.93-3.64,1.22-5.8,3.27-9.52,4.44-1.8.61-3.95,1.03-6.85,1.03-11.43,0-11.43-6.4-22.84-6.4-4.19,0-6.85.86-9.09,1.96-1.56.77-2.94,1.63-4.51,2.39-2.29,1.14-4.98,2.05-9.28,2.05h-.12c-11.41,0-11.45-6.36-22.79-6.4-4.19.02-6.83.89-9.09,1.98-1.52.77-2.88,1.63-4.44,2.38-.12.07-.24.12-.38.17V4.63c2.45-1.19,4.4-2.62,7.29-3.55C9.09.47,11.25.05,14.14.05c.24,0,.45.02.7.03v-.03c.35.02.65.05.98.07.16,0,.33.02.49.03.45.03.87.09,1.28.14.17.02.35.03.51.07.37.05.72.14,1.07.21.17.03.35.07.51.12.31.07.61.16.89.26.17.05.35.1.52.16.26.09.51.19.75.28.17.07.35.14.52.21.21.1.42.19.63.3.19.09.37.17.56.26.16.09.31.17.49.24.21.12.44.24.66.37.02,0,.02.02.03.02.94.52,1.87,1.05,2.85,1.56.07.03.14.07.21.1.28.14.58.28.87.4.1.05.21.1.31.14.3.12.59.23.91.35.12.03.24.09.38.14.3.1.61.19.94.28.16.03.3.09.45.12.35.09.7.16,1.07.21.17.03.33.07.51.1.42.07.86.1,1.31.16.16,0,.3.03.47.05.63.03,1.29.07,1.99.07,1.38,0,2.57-.1,3.65-.26,6.66-1.08,8.55-4.86,15.33-5.87,1.14-.17,2.41-.3,3.88-.3h.03c.26,0,.51.03.77.03v-.03c.4.02.77.05,1.14.07.03,0,.07.02.1.02,9.49.7,10.19,6.31,20.87,6.34,1.36-.02,2.57-.1,3.65-.28,6.62-1.08,8.53-4.84,15.29-5.85,1.14-.17,2.41-.3,3.88-.3h.1c.24,0,.45.02.68.03v-.09c6.48.16,9.14,2.45,12.67,4.26Z"/></g></svg>