<?xml version="1.0" encoding="UTF-8"?><svg id="Layer_2" xmlns="http://www.w3.org/2000/svg" viewBox="0 0 119.07 119.07"><defs><style>.cls-1{fill:#26d37c;}.cls-1,.cls-2{stroke-width:0px;}.cls-2{fill:#fff;}</style></defs><g id="GUIDELINES"><rect class="cls-1" width="119.07" height="119.07"/><path class="cls-2" d="M15.68,56.01c4.27-3.59,11.2-7.82,20.25-7.82,9.05,0,15.98,4.23,20.24,7.82-3.59-4.27-7.82-11.2-7.82-20.25,0-9.05,4.23-15.98,7.82-20.24-4.27,3.59-11.2,7.82-20.25,7.82-9.05,0-15.98-4.23-20.24-7.82,3.59,4.27,7.82,11.2,7.82,20.25,0,9.05-4.23,15.98-7.82,20.24Z"/><path class="cls-2" d="M62.88,56.01c4.27-3.59,11.2-7.82,20.25-7.82,9.05,0,15.98,4.23,20.24,7.82-3.59-4.27-7.82-11.2-7.82-20.25,0-9.05,4.23-15.98,7.82-20.24-4.27,3.59-11.2,7.82-20.25,7.82-9.05,0-15.98-4.23-20.24-7.82,3.59,4.27,7.82,11.2,7.82,20.25,0,9.05-4.23,15.98-7.82,20.24Z"/><path class="cls-2" d="M15.68,103.68c4.27-3.59,11.2-7.82,20.25-7.82,9.05,0,15.98,4.23,20.24,7.82-3.59-4.27-7.82-11.2-7.82-20.25,0-9.05,4.23-15.98,7.82-20.24-4.27,3.59-11.2,7.82-20.25,7.82-9.05,0-15.98-4.23-20.24-7.82,3.59,4.27,7.82,11.2,7.82,20.25,0,9.05-4.23,15.98-7.82,20.24Z"/><path class="cls-2" d="M62.88,103.68c4.27-3.59,11.2-7.82,20.25-7.82,9.05,0,15.98,4.23,20.24,7.82-3.59-4.27-7.82-11.2-7.82-20.25,0-9.05,4.23-15.98,7.82-20.24-4.27,3.59-11.2,7.82-20.25,7.82-9.05,0-15.98-4.23-20.24-7.82,3.59,4.27,7.82,11.2,7.82,20.25,0,9.05-4.23,15.98-7.82,20.24Z"/></g></svg>