<?xml version="1.0" encoding="UTF-8"?><svg id="Layer_2" xmlns="http://www.w3.org/2000/svg" viewBox="0 0 119.07 119.07"><defs><style>.cls-1,.cls-2,.cls-3,.cls-4{stroke-width:0px;}.cls-2{fill:#26d37c;}.cls-3{fill:#d81ab4;}.cls-4{fill:#fff;}</style></defs><g id="GUIDELINES"><rect class="cls-2" x="0" y="0" width="119.07" height="119.07"/><circle class="cls-3" cx="59.53" cy="59.53" r="43.77"/><path class="cls-4" d="M91.3,59.53c-.97,1.39-11.97,16.56-31.78,16.56-5.13,0-9.66-1.02-13.59-2.55-11.23-4.38-17.45-12.98-18.17-14.01.76-1.09,7.65-10.6,20.09-14.69,3.47-1.15,7.37-1.87,11.68-1.87,19.79,0,30.79,15.17,31.77,16.56Z"/><path class="cls-1" d="M56.31,58.77c0,6.8-4.32,12.59-10.37,14.77-11.23-4.38-17.45-12.98-18.17-14.01.76-1.09,7.65-10.6,20.09-14.69,5.02,2.61,8.46,7.87,8.46,13.93Z"/></g></svg>