<?xml version="1.0" encoding="UTF-8"?><svg id="Layer_2" xmlns="http://www.w3.org/2000/svg" viewBox="0 0 119.07 119.09"><defs><style>.cls-1,.cls-2{stroke-width:0px;}.cls-2{fill:#fff;}</style></defs><g id="GUIDELINES"><rect class="cls-2" x="0" width="119.07" height="119.07"/><path class="cls-1" d="M119.07,97.75v21.35h-20.12c-.14-.14-.3-.28-.44-.41-3.33-3.02-6.68-2.94-12.59-2.5-6.46.48-15.33,1.13-23.2-6.67-7.88-7.79-7.3-16.61-6.86-23.07.4-6.14.45-9.5-3.03-12.94l-.18-.18c-.11-.09-.21-.19-.32-.28-3.32-2.96-6.66-2.88-12.51-2.45-6.48.48-15.34,1.14-23.22-6.65-.98-.97-1.84-1.97-2.56-2.96-.04-.05-.07-.09-.09-.14-.02-.04-.05-.06-.07-.09-.22-.31-.44-.6-.64-.91-.08-.12-.14-.24-.21-.34-.09-.15-.18-.29-.27-.45-.04-.06-.08-.12-.12-.19-.05-.09-.09-.18-.14-.27-3.6-6.31-3.19-12.79-2.84-17.82.41-6.12.47-9.47-3.02-12.91-2.01-1.99-3.98-2.81-6.49-3.06-.05,0-.08-.01-.14-.01V.03h11.26s.09.01.14.01c5.03.29,10.57,1.78,15.71,6.84.02.04.06.06.08.09h.01l.02-.02c7.87,7.79,7.28,16.61,6.84,23.06-.35,5.33-.44,8.57,1.81,11.58.11.14.21.27.33.41.08.09.17.19.25.29.17.17.33.34.51.52,3.48,3.43,6.84,3.35,12.99,2.9,5.84-.42,13.63-.98,20.89,4.67.09.06.18.12.26.19.09.07.18.14.27.21.14.13.28.25.42.37.14.12.28.22.41.34.38.33.76.67,1.12,1.04,7.88,7.78,7.28,16.61,6.86,23.06-.41,6.14-.47,9.5,3.01,12.94,3.48,3.43,6.86,3.36,13.03,2.91,5.43-.4,12.54-.92,19.35,3.52,1.17.77,2.35,1.69,3.49,2.78Z"/></g></svg>