<?xml version="1.0" encoding="UTF-8"?><svg id="Layer_2" xmlns="http://www.w3.org/2000/svg" viewBox="0 0 119.07 119.07"><defs><style>.cls-1,.cls-2,.cls-3{stroke-width:0px;}.cls-2{fill:#26d37c;}.cls-3{fill:#fff;}</style></defs><g id="GUIDELINES"><rect class="cls-3" width="119.07" height="119.07"/><path class="cls-2" d="M105.04,59.53c0,.44,0,.86-.01,1.29-.08,2.84-.42,5.63-1.01,8.32-1.49,6.97-4.59,13.36-8.89,18.75-8.31,10.41-21.09,17.1-35.43,17.15h-.15c-6.92,0-13.45-1.53-19.32-4.3-9.79-4.59-17.68-12.57-22.15-22.43-2.6-5.72-4.05-12.07-4.05-18.78,0-9.43,2.87-18.19,7.8-25.44.9-1.36,1.89-2.66,2.94-3.91,4.32-5.12,9.76-9.28,15.93-12.08,4.25-1.93,8.83-3.23,13.65-3.78,1.7-.2,3.43-.3,5.19-.3s3.38.09,5.03.28c7.61.83,14.67,3.55,20.68,7.67,11.95,8.2,19.79,21.96,19.79,37.55Z"/><path class="cls-1" d="M60.23,26.47c-1.24,1.66-3.82,1.56-5.7.66-1.86-.9-3.42-2.38-5.36-3.12-2.91-1.1-6.47-.18-8.49,2.21-2.01,2.37-2.32,6.03-.76,8.72.8,1.38,2.16,2.54,3.75,2.68,1.59.14,3.32-1.03,3.41-2.62.11-1.89-1.89-3.66-1.18-5.4.46-1.17,1.97-1.59,3.19-1.26,1.2.33,2.17,1.2,3.08,2.07,1.66,1.55,3.39,3.19,4.15,5.32.78,2.15.26,4.93-1.75,6.02-2.1,1.13-5.15.13-6.77,1.89-1.42,1.55-.64,4,.22,5.91.85,1.9,1.65,4.34.27,5.9-1.18,1.33-3.34,1.19-4.94.42-1.6-.76-2.95-2.02-4.58-2.71-1.64-.7-3.85-.64-4.85.83-1.2,1.77.19,4.27,2.07,5.31,1.86,1.04,4.1,1.23,6.04,2.14,1.94.9,3.65,3.08,2.84,5.06-.58,1.45-2.32,2.15-3.89,2.02-1.56-.13-2.99-.91-4.35-1.68-3.12-1.75-6.28-3.5-8.91-5.94-2.62-2.43-4.71-5.63-5.1-9.18-.38-3.52.89-6.99,1.12-10.5.19-2.69-1.1-4.84-1.92-7.12.9-1.36,1.89-2.66,2.94-3.91,4.32-5.12,9.76-9.28,15.93-12.08,4.25-1.93,8.83-3.23,13.65-3.78.31,1.98,2.14,3.73,3.71,5.2,1.94,1.83,3.76,4.81,2.17,6.94Z"/><path class="cls-1" d="M105.04,59.53c0,.44,0,.86-.01,1.29-.08,2.84-.42,5.63-1.01,8.32-.38-.24-.78-.41-1.2-.52-1.23-.31-2.53-.07-3.79-.18-3.84-.34-6.9-4.4-6.18-8.19.46-2.47,2.18-5.26.59-7.21-2.03-2.5-6.59.09-9.18-1.82-1.24-.92-1.62-2.63-1.5-4.17.12-1.53.64-3.02.83-4.54.53-4.53-1.89-8.83-4.21-12.75-.97-1.63-2.37-3.48-4.24-3.25-1.22.15-2.22,1.19-3.45,1.19-1.73.01-2.73-1.92-3.32-3.54-.74-2.05-1.49-4.1-2.23-6.14-.46-1.26-.92-2.55-1.56-3.73,7.61.83,14.67,3.55,20.68,7.67,11.95,8.2,19.79,21.96,19.79,37.55Z"/><path class="cls-1" d="M47.32,73.27c1.81-2.77,4.84-4.85,7.45-6.78,1.2-.89,2.49-1.81,3.98-1.92,1.35-.1,2.64.49,3.87,1.07,2.27,1.06,4.54,2.13,6.85,3.08,1.49.61,3.01,1.18,4.6,1.38,1.81.22,3.65-.05,5.46.13,1.81.19,3.74.99,4.51,2.64.75,1.61.17,3.56-.9,4.98s-2.56,2.44-3.91,3.58c-1.35,1.15-2.63,2.53-3.03,4.26-.22.98-.15,2.03-.52,2.97-.49,1.24-1.68,2.06-2.79,2.79-3,1.98-6,3.96-9,5.93-.98.65-2.11,1.33-3.26,1.1-1.76-.35-2.45-2.52-2.43-4.32s.38-3.75-.58-5.28c-1.14-1.81-3.58-2.16-5.55-3-2.77-1.17-4.95-3.66-5.75-6.56-.64-2.31-.31-4.07,1-6.08Z"/></g></svg>