<?xml version="1.0" encoding="UTF-8"?><svg id="Layer_2" xmlns="http://www.w3.org/2000/svg" viewBox="0 0 119.07 119.07"><defs><style>.cls-1{fill:#d81ab4;}.cls-1,.cls-2{stroke-width:0px;}.cls-2{fill:#fff;}</style></defs><g id="GUIDELINES"><rect class="cls-2" x="0" y="0" width="119.07" height="119.07" transform="translate(119.07 0) rotate(90)"/><path class="cls-1" d="M9.76,46.9v-5.64c.14-.89.27-1.78.43-2.66,1-5.42,3.13-10.32,6.82-14.47,2.02-2.27,4.36-4.14,7.05-5.56,2.57-1.36,5.28-2.25,8.16-2.68,3.54-.53,7.03-.39,10.48.58,4.51,1.28,8.26,3.78,11.48,7.15,2.76,2.89,4.55,6,4.75,6.37.23.41.4.77.53,1.02.12-.19.29-.46.49-.79.19-.3.32-.52.33-.54,1.33-2.19,2.83-4.26,4.61-6.11,2.54-2.65,5.44-4.78,8.84-6.19,4.62-1.92,9.41-2.23,14.29-1.27,3.24.64,6.24,1.87,9,3.71,4.2,2.81,7.29,6.55,9.42,11.11,1.59,3.41,2.47,7.01,2.76,10.75.33,4.18-.13,8.27-1.43,12.26-1.44,4.42-3.77,8.36-6.57,12.04-3.91,5.11-8.43,9.67-13.25,13.91-8.56,7.53-27.78,23.62-28.41,23.62-.65,0-18.82-15.2-26.88-22.21-4.38-3.81-8.54-7.84-12.33-12.25-3.1-3.6-5.83-7.44-7.78-11.79-1.04-2.31-1.83-4.7-2.26-7.2-.18-1.05-.35-2.1-.53-3.15Z"/></g></svg>