<?xml version="1.0" encoding="UTF-8"?><svg id="Layer_2" xmlns="http://www.w3.org/2000/svg" viewBox="0 0 238.14 119.07"><defs><style>.cls-1{fill:#d81ab4;}.cls-1,.cls-2{stroke-width:0px;}.cls-2{fill:#fff;}</style></defs><g id="GUIDELINES"><rect class="cls-2" y="0" width="119.07" height="119.07" transform="translate(119.07 119.07) rotate(180)"/><polygon class="cls-1" points="22.98 102.53 12.97 92.52 45.95 59.53 12.97 26.55 22.98 16.54 65.98 59.53 22.98 102.53"/><polygon class="cls-1" points="62.54 102.53 52.53 92.52 85.51 59.53 52.53 26.55 62.54 16.54 105.54 59.53 62.54 102.53"/><rect class="cls-2" x="119.07" width="119.07" height="119.07" transform="translate(357.2 119.07) rotate(180)"/><polygon class="cls-1" points="142.05 102.53 132.04 92.52 165.02 59.53 132.04 26.55 142.05 16.54 185.05 59.53 142.05 102.53"/><polygon class="cls-1" points="102.3 102.53 92.28 92.52 125.27 59.53 92.28 26.55 102.3 16.54 145.29 59.53 102.3 102.53"/><polygon class="cls-1" points="181.61 102.53 171.6 92.52 204.58 59.53 171.6 26.55 181.61 16.54 224.61 59.53 181.61 102.53"/></g></svg>