<?xml version="1.0" encoding="UTF-8"?><svg id="Layer_2" xmlns="http://www.w3.org/2000/svg" viewBox="0 0 119.07 119.07"><defs><style>.cls-1,.cls-2{stroke-width:0px;}.cls-2{fill:#fff;}</style></defs><g id="GUIDELINES"><rect class="cls-2" x="0" y="0" width="119.07" height="119.07" transform="translate(0 119.07) rotate(-90)"/><path class="cls-1" d="M59.53,49.01c-5.8,0-10.52,4.72-10.52,10.52s4.72,10.52,10.52,10.52,10.52-4.72,10.52-10.52-4.72-10.52-10.52-10.52Z"/><path class="cls-1" d="M59.53,30.2c-7.84,0-15.2,3.05-20.74,8.59-5.54,5.54-8.59,12.91-8.59,20.74s3.05,15.2,8.59,20.74c5.54,5.54,12.91,8.59,20.74,8.59s15.2-3.05,20.74-8.59c5.54-5.54,8.59-12.91,8.59-20.74s-3.05-15.2-8.59-20.74c-5.54-5.54-12.91-8.59-20.74-8.59ZM59.53,77.04c-9.65,0-17.51-7.85-17.51-17.51s7.85-17.51,17.51-17.51,17.51,7.85,17.51,17.51-7.85,17.51-17.51,17.51Z"/><path class="cls-1" d="M103.89,40.8c-2.42-5.73-5.89-10.88-10.31-15.3-4.42-4.42-9.57-7.89-15.3-10.31-5.94-2.51-12.24-3.79-18.74-3.79s-12.8,1.27-18.74,3.79c-5.73,2.42-10.88,5.89-15.3,10.31-4.42,4.42-7.89,9.57-10.31,15.3-2.51,5.94-3.79,12.24-3.79,18.74s1.27,12.8,3.79,18.74c2.42,5.73,5.89,10.88,10.31,15.3s9.57,7.89,15.3,10.31c5.94,2.51,12.24,3.79,18.74,3.79s12.8-1.27,18.74-3.79c5.73-2.42,10.88-5.89,15.3-10.31,4.42-4.42,7.89-9.57,10.31-15.3,2.51-5.94,3.79-12.24,3.79-18.74s-1.27-12.8-3.79-18.74ZM95.84,59.53c0,20.02-16.29,36.31-36.31,36.31s-36.31-16.29-36.31-36.31S39.51,23.23,59.53,23.23s36.31,16.29,36.31,36.31Z"/></g></svg>