<?xml version="1.0" encoding="UTF-8"?><svg id="Layer_2" xmlns="http://www.w3.org/2000/svg" viewBox="0 0 370.96 363.8"><defs><style>.cls-1{fill:#fff;stroke-width:0px;}</style></defs><g id="DESIGN"><path class="cls-1" d="M162.92,186.58c-3.94.95-14.33,3.4-18.45,11.57-.59,1.2-1.95,3.94-1.57,7.51,0,0,.38,3.78,3.22,7.18,5.94,7.18,19.51,6.02,21.59,5.81,20.49-1.74,33-22.44,34.99-25.84-12.64-6.26-23.16-7.3-29.05-7.34-4.16-.04-7.51.33-10.73,1.12Z"/><path class="cls-1" d="M344.51,172.52l24.12-19.78c3.96-3.25,2.66-9.56-2.27-11.05l-27.22-8.23c-3.76-1.14-7.4-2.39-11.01-3.8-3.45-1.37-5.01-5.29-3.52-8.62,1.21-2.71,2.5-5.37,3.91-7.99l14.49-27.38c2.35-4.5-1.21-9.79-6.35-9.36l-31.33,2.58c-2.71.24-5.37.36-8.03.44-3.72.07-6.78-2.94-6.66-6.58.12-2.63.28-5.25.51-7.88l2.94-31.89c.47-5.05-4.94-8.62-9.52-6.26l-28.94,14.76c-2.39,1.21-4.81,2.35-7.24,3.41-3.41,1.49-7.4-.12-8.73-3.53-.95-2.43-1.84-4.94-2.62-7.44l-9.52-29.46c-1.53-4.81-7.87-6.03-11.2-2.2l-20.29,23.58c-1.96,2.31-3.99,4.51-6.07,6.62-2.58,2.62-6.85,2.67-9.44.04-2.66-2.74-5.25-5.6-7.72-8.54l-18.09-21.63c-3.29-3.91-9.72-2.7-11.28,2.16l-9.44,29.37c-.94,2.87-1.96,5.68-3.05,8.47-1.33,3.37-5.29,5.01-8.66,3.56-3.56-1.53-7.05-3.17-10.49-4.97l-23.11-11.98c-4.58-2.36-10.02,1.21-9.56,6.26l2.39,25.5c.39,4.19.59,8.34.63,12.49.04,3.61-2.97,6.5-6.62,6.47-4.19-.04-8.46-.28-12.69-.71l-27.18-2.58c-5.21-.47-8.85,4.89-6.42,9.4l12.77,23.7c1.99,3.68,3.83,7.44,5.48,11.28,1.45,3.29-.2,7.13-3.57,8.46-3.91,1.56-7.91,2.94-11.98,4.19l-24.94,7.56c-4.97,1.48-6.27,7.8-2.28,11.05l20.06,16.41c2.97,2.43,5.88,5.01,8.62,7.64,2.63,2.51,2.58,6.7-.08,9.21-2.23,2.04-4.47,4.04-6.81,5.96l-24.13,19.78c-3.96,3.25-2.66,9.56,2.28,11.05l27.22,8.22c3.72,1.13,7.36,2.43,10.97,3.8,3.4,1.33,5.05,5.25,3.56,8.54-1.21,2.75-2.51,5.45-3.92,8.11l-14.49,27.39c-2.35,4.5,1.21,9.79,6.35,9.36l31.29-2.59c2.71-.23,5.37-.35,8.03-.43,3.72-.08,6.78,2.94,6.66,6.58-.08,2.63-.23,5.25-.47,7.88l-2.94,31.88c-.47,5.05,4.94,8.62,9.52,6.27l28.94-14.77c2.39-1.21,4.78-2.35,7.21-3.4,3.41-1.49,7.4.15,8.73,3.56.98,2.47,1.84,4.94,2.66,7.44l9.48,29.42c1.53,4.81,7.87,6.03,11.2,2.19l20.29-23.58c1.96-2.31,3.99-4.51,6.11-6.66,2.55-2.59,6.81-2.63,9.36,0,2.71,2.71,5.29,5.56,7.76,8.54l18.09,21.62c3.29,3.92,9.72,2.71,11.28-2.15l9.48-29.42c.89-2.86,1.91-5.64,3.01-8.38,1.33-3.4,5.29-5.09,8.7-3.64,3.56,1.49,7.05,3.13,10.49,4.94l23.03,12.03c4.58,2.35,10.03-1.21,9.56-6.27l-2.39-25.54c-.39-4.19-.59-8.34-.63-12.49-.04-3.61,2.97-6.5,6.62-6.47,4.23.08,8.49.31,12.73.71l27.18,2.58c5.21.51,8.85-4.86,6.42-9.36l-12.77-23.7c-1.99-3.68-3.8-7.44-5.48-11.28-1.45-3.29.2-7.13,3.56-8.46,3.96-1.57,7.96-2.94,12.03-4.2l24.95-7.52c4.97-1.49,6.26-7.8,2.27-11.05l-20.05-16.41c-3.02-2.47-5.88-5.01-8.66-7.68-2.63-2.5-2.58-6.7.08-9.2,2.2-2.08,4.47-4.08,6.86-5.96ZM255.32,251.41c-11.12-.05-22.23-.1-33.35-.15.03-4.9-.22-10.41-.95-16.39-.59-4.85-1.41-9.3-2.33-13.32-4.11,6.06-12.55,16.59-27.02,23.77-2.76,1.37-8.53,3.82-15.86,5.56-22.56,5.39-51.15-1.95-62.17-26.51-6.02-13.44-5.43-27.63,1.7-39.91,8.69-14.93,26.97-26.14,46.61-28.54,19.38-2.37,37.87.91,52.42,9.12-.23-2.03-.84-5.13-2.62-8.41-.64-1.18-3.11-5.5-9.56-9.49-7.47-4.62-14.68-5.34-22.95-6.08-9.97-.88-17.85.07-23.73.79-4.86.59-8.69,1.32-14.67,2.46-7.19,1.37-13.16,2.72-17.46,3.75-1.54-10.24-3.08-20.49-4.62-30.73,21.85-4.64,40.23-5.87,53.33-6.06,29.43-.43,40.81,4.23,47.41,7.79,4.83,2.6,12.56,6.89,18.39,15.71,6.97,10.54,8.08,21.47,8.36,25.13.25,3.28.13,5.79.02,7.93-.52,10.22-2.83,18.39-4.81,23.85,4.12,7.64,8.98,18.68,11.74,32.65,2.08,10.5,2.39,19.78,2.11,27.08Z"/></g></svg>