<?xml version="1.0" encoding="UTF-8"?><svg id="Layer_2" xmlns="http://www.w3.org/2000/svg" viewBox="0 0 389.01 146.22"><defs><style>.cls-1{stroke-width:0px;}</style></defs><g id="DESIGN"><path class="cls-1" d="M74.73,132.84c0,2.13-.72,3.78-2.17,4.96-1.45,1.17-3.39,1.76-5.82,1.76h-8.58v-23.43h8.12c2.37,0,4.23.53,5.56,1.58,1.34,1.06,2.01,2.57,2.01,4.55,0,1.11-.32,2.11-.95,3s-1.51,1.59-2.64,2.09c1.46.41,2.57,1.09,3.33,2.04.76.95,1.14,2.09,1.14,3.44ZM66.05,119h-4.6v7.05h4.6c1.41,0,2.5-.31,3.25-.95.75-.63,1.13-1.49,1.13-2.58s-.38-1.95-1.13-2.58c-.75-.63-1.83-.95-3.25-.95ZM66.5,128.92h-5.06v7.77h5.06c1.52,0,2.7-.35,3.54-1.04.84-.7,1.26-1.66,1.26-2.9s-.42-2.13-1.26-2.81c-.84-.67-2.02-1.01-3.54-1.01Z"/><path class="cls-1" d="M85.72,139.89c-1.68,0-3.14-.38-4.39-1.13s-2.22-1.81-2.92-3.18c-.7-1.37-1.04-2.96-1.04-4.76s.36-3.24,1.08-4.57c.72-1.33,1.7-2.38,2.94-3.15,1.24-.77,2.65-1.16,4.24-1.16,1.31,0,2.47.24,3.51.73s1.91,1.17,2.64,2.06c.73.88,1.26,1.91,1.58,3.1.33,1.19.41,2.49.26,3.9h-14.32v-2.19h10.83c-.06-1.61-.51-2.87-1.32-3.77-.82-.9-1.9-1.35-3.25-1.35-.98,0-1.83.26-2.56.77-.73.51-1.29,1.24-1.7,2.19-.4.95-.6,2.09-.6,3.44s.2,2.51.59,3.47c.39.97.96,1.71,1.7,2.24.74.52,1.63.78,2.68.78,1.24,0,2.27-.31,3.08-.95.82-.63,1.35-1.51,1.62-2.64h3.26c-.41,1.91-1.32,3.42-2.72,4.52-1.4,1.1-3.13,1.65-5.17,1.65Z"/><path class="cls-1" d="M111.01,139.56l-3.92-12.86-3.95,12.86h-3.33l-4.99-17.29h3.23l3.49,12.59,3.92-12.59h3.26l3.85,12.63,3.49-12.63h3.26l-5.02,17.29h-3.3Z"/><path class="cls-1" d="M128.73,139.89c-1.68,0-3.14-.38-4.39-1.13s-2.22-1.81-2.92-3.18c-.7-1.37-1.04-2.96-1.04-4.76s.36-3.24,1.08-4.57c.72-1.33,1.7-2.38,2.94-3.15,1.24-.77,2.65-1.16,4.24-1.16,1.31,0,2.47.24,3.51.73s1.91,1.17,2.64,2.06c.73.88,1.26,1.91,1.58,3.1.33,1.19.41,2.49.26,3.9h-14.32v-2.19h10.83c-.06-1.61-.51-2.87-1.32-3.77-.82-.9-1.9-1.35-3.25-1.35-.98,0-1.83.26-2.56.77-.73.51-1.29,1.24-1.7,2.19-.4.95-.6,2.09-.6,3.44s.2,2.51.59,3.47c.39.97.96,1.71,1.7,2.24.74.52,1.63.78,2.68.78,1.24,0,2.27-.31,3.08-.95.82-.63,1.35-1.51,1.62-2.64h3.26c-.41,1.91-1.32,3.42-2.72,4.52-1.4,1.1-3.13,1.65-5.17,1.65Z"/><path class="cls-1" d="M146.7,146.22c-1.5,0-2.82-.26-3.95-.77-1.13-.51-2.02-1.25-2.66-2.2-.64-.96-1-2.08-1.06-3.36h3.2c.11,1.2.54,2.12,1.29,2.76s1.8.96,3.15.96c1.5,0,2.63-.39,3.39-1.16.76-.77,1.14-1.91,1.14-3.41v-3.13c-.5,1.02-1.21,1.83-2.14,2.41-.92.59-1.97.88-3.15.88-1.44,0-2.71-.37-3.82-1.11-1.11-.74-1.98-1.76-2.61-3.07s-.95-2.79-.95-4.47.3-3.22.91-4.52c.61-1.29,1.46-2.3,2.56-3.02,1.1-.72,2.37-1.08,3.8-1.08,1.24,0,2.34.29,3.3.88.96.59,1.73,1.42,2.32,2.51v-3.07h3.07v16.71c0,2.28-.69,4.06-2.06,5.33-1.37,1.27-3.28,1.91-5.74,1.91ZM141.88,130.55c0,1.78.41,3.19,1.24,4.23.83,1.03,1.96,1.55,3.39,1.55.94,0,1.76-.23,2.46-.7.71-.47,1.26-1.13,1.65-1.99s.59-1.85.59-2.99c0-1.78-.42-3.21-1.27-4.27-.85-1.07-1.99-1.6-3.43-1.6s-2.54.52-3.38,1.55c-.84,1.03-1.26,2.44-1.26,4.23Z"/><path class="cls-1" d="M163.08,118.25c0,.61-.22,1.13-.67,1.55-.45.42-1.02.64-1.71.64s-1.3-.21-1.75-.64c-.45-.42-.67-.94-.67-1.55,0-.65.22-1.18.67-1.58.45-.4,1.03-.6,1.75-.6s1.27.2,1.71.6c.45.4.67.93.67,1.58ZM162.37,139.56h-3.3v-17.29h3.3v17.29Z"/><path class="cls-1" d="M170.23,129.8v9.76h-3.3v-17.29h3.07v2.87c.59-.96,1.35-1.73,2.3-2.32s2.02-.88,3.21-.88c1.78,0,3.21.55,4.29,1.66,1.08,1.11,1.61,2.7,1.61,4.76v11.19h-3.3v-10.08c0-1.48-.32-2.62-.95-3.43-.63-.8-1.57-1.21-2.81-1.21-.76,0-1.46.2-2.09.6-.63.4-1.13.97-1.5,1.71-.37.74-.55,1.62-.55,2.64Z"/><path class="cls-1" d="M192.71,146.22c-1.5,0-2.82-.26-3.95-.77-1.13-.51-2.02-1.25-2.66-2.2-.64-.96-1-2.08-1.06-3.36h3.2c.11,1.2.54,2.12,1.29,2.76s1.8.96,3.15.96c1.5,0,2.63-.39,3.39-1.16.76-.77,1.14-1.91,1.14-3.41v-3.13c-.5,1.02-1.21,1.83-2.14,2.41-.92.59-1.97.88-3.15.88-1.44,0-2.71-.37-3.82-1.11-1.11-.74-1.98-1.76-2.61-3.07s-.95-2.79-.95-4.47.3-3.22.91-4.52c.61-1.29,1.46-2.3,2.56-3.02,1.1-.72,2.37-1.08,3.8-1.08,1.24,0,2.34.29,3.3.88.96.59,1.73,1.42,2.32,2.51v-3.07h3.07v16.71c0,2.28-.69,4.06-2.06,5.33-1.37,1.27-3.28,1.91-5.74,1.91ZM187.88,130.55c0,1.78.41,3.19,1.24,4.23.83,1.03,1.96,1.55,3.39,1.55.94,0,1.76-.23,2.46-.7.71-.47,1.26-1.13,1.65-1.99s.59-1.85.59-2.99c0-1.78-.42-3.21-1.27-4.27-.85-1.07-1.99-1.6-3.43-1.6s-2.54.52-3.38,1.55c-.84,1.03-1.26,2.44-1.26,4.23Z"/><path class="cls-1" d="M218.78,134.4c0,1.7-.63,3.03-1.89,4.01-1.26.98-3.05,1.47-5.35,1.47s-4.05-.53-5.37-1.6c-1.32-1.07-2.06-2.52-2.23-4.37h3.17c.04,1.09.47,1.94,1.29,2.56.82.62,1.89.93,3.21.93,1.15,0,2.08-.21,2.79-.62.71-.41,1.06-1.02,1.06-1.83,0-.72-.23-1.26-.7-1.63-.47-.37-1.25-.65-2.33-.85l-2.81-.52c-1.59-.3-2.82-.86-3.69-1.68-.87-.82-1.31-1.88-1.31-3.18,0-1.02.28-1.92.83-2.69.55-.77,1.33-1.38,2.33-1.81,1-.44,2.16-.65,3.49-.65,1.39,0,2.61.23,3.65.7,1.04.47,1.88,1.13,2.51,1.99.63.86.99,1.89,1.08,3.08h-3.17c-.11-1.02-.52-1.83-1.24-2.41-.72-.59-1.65-.88-2.81-.88-1.04,0-1.89.21-2.53.64s-.96,1.01-.96,1.75c0,.7.23,1.22.7,1.58.47.36,1.22.65,2.27.86l2.94.55c1.72.3,2.99.84,3.82,1.6.83.76,1.24,1.76,1.24,3Z"/><path class="cls-1" d="M238.88,130.91c0,1.72-.32,3.26-.95,4.62s-1.52,2.43-2.66,3.2c-1.14.77-2.5,1.16-4.06,1.16-1.22,0-2.33-.3-3.33-.9-1-.6-1.82-1.44-2.45-2.53v3.1h-3.07v-23.43h3.3v9.1c.61-1.07,1.39-1.88,2.35-2.45.96-.57,2.02-.85,3.2-.85,1.57,0,2.91.38,4.05,1.14,1.13.76,2.02,1.82,2.66,3.18s.96,2.91.96,4.65ZM235.45,130.91c0-1.96-.46-3.46-1.39-4.5-.92-1.04-2.09-1.57-3.51-1.57-.91,0-1.74.23-2.48.7-.74.47-1.33,1.15-1.76,2.04-.44.89-.65,1.98-.65,3.26s.21,2.35.64,3.26,1.01,1.61,1.75,2.1c.74.49,1.58.73,2.51.73,1.41,0,2.58-.52,3.51-1.57.92-1.04,1.39-2.53,1.39-4.47Z"/><path class="cls-1" d="M249.45,139.89c-1.22,0-2.34-.22-3.38-.67-1.03-.45-1.93-1.08-2.69-1.89-.76-.82-1.35-1.77-1.78-2.85-.42-1.09-.64-2.27-.64-3.56s.21-2.47.64-3.56c.42-1.09,1.02-2.04,1.78-2.85.76-.82,1.66-1.45,2.69-1.89,1.03-.45,2.16-.67,3.38-.67s2.38.22,3.41.67c1.03.45,1.92,1.08,2.68,1.89.75.82,1.34,1.77,1.76,2.85.42,1.09.64,2.27.64,3.56s-.21,2.47-.64,3.56c-.42,1.09-1.01,2.04-1.76,2.85-.75.82-1.64,1.45-2.68,1.89-1.03.45-2.17.67-3.41.67ZM249.45,136.98c.96,0,1.82-.24,2.59-.73.77-.49,1.38-1.19,1.83-2.1.45-.91.67-1.99.67-3.23s-.22-2.34-.67-3.25c-.45-.9-1.06-1.59-1.83-2.07-.77-.48-1.64-.72-2.59-.72s-1.79.24-2.56.72c-.77.48-1.38,1.17-1.83,2.07-.45.9-.67,1.99-.67,3.25s.22,2.32.67,3.23c.45.91,1.05,1.61,1.83,2.1.77.49,1.63.73,2.56.73Z"/><path class="cls-1" d="M272.09,132.45v-10.18h3.3v17.29h-3.07v-2.71c-.44.87-1.13,1.59-2.09,2.17-.96.58-2.02.86-3.2.86s-2.18-.23-3.08-.69c-.9-.46-1.6-1.17-2.09-2.14-.49-.97-.73-2.19-.73-3.67v-11.13h3.3v10.47c0,1.5.34,2.58,1.01,3.25.67.66,1.56,1,2.64,1,.74,0,1.41-.19,2.02-.57.61-.38,1.09-.91,1.45-1.6.36-.69.54-1.47.54-2.37Z"/><path class="cls-1" d="M294.25,139.56l-3.92-12.86-3.95,12.86h-3.33l-4.99-17.29h3.23l3.49,12.59,3.92-12.59h3.26l3.85,12.63,3.49-12.63h3.26l-5.02,17.29h-3.3Z"/><path class="cls-1" d="M311.97,139.89c-1.68,0-3.14-.38-4.39-1.13s-2.22-1.81-2.92-3.18c-.7-1.37-1.04-2.96-1.04-4.76s.36-3.24,1.08-4.57c.72-1.33,1.7-2.38,2.94-3.15,1.24-.77,2.65-1.16,4.24-1.16,1.31,0,2.47.24,3.51.73s1.91,1.17,2.64,2.06c.73.88,1.26,1.91,1.58,3.1.33,1.19.41,2.49.26,3.9h-14.32v-2.19h10.83c-.06-1.61-.51-2.87-1.32-3.77-.82-.9-1.9-1.35-3.25-1.35-.98,0-1.83.26-2.56.77-.73.51-1.29,1.24-1.7,2.19-.4.95-.6,2.09-.6,3.44s.2,2.51.59,3.47c.39.97.96,1.71,1.7,2.24.74.52,1.63.78,2.68.78,1.24,0,2.27-.31,3.08-.95.82-.63,1.35-1.51,1.62-2.64h3.26c-.41,1.91-1.32,3.42-2.72,4.52-1.4,1.1-3.13,1.65-5.17,1.65Z"/><path class="cls-1" d="M326.65,130.72v8.84h-3.3v-17.29h3.07v3.65c.61-1.2,1.52-2.14,2.72-2.84,1.21-.7,2.52-1.04,3.93-1.04v3.43c-1.24-.06-2.34.08-3.31.42-.97.35-1.73.92-2.28,1.71-.55.79-.83,1.83-.83,3.12Z"/><path class="cls-1" d="M104.66,33.19l-1.55-10.24h-17.06v76h18.61v-37.34c0-11.35,9.01-20.82,20.35-20.98.14,0,.29,0,.43,0h3.88v-18.46c-9.93,0-18.77,4.03-24.66,11.01Z"/><path class="cls-1" d="M136.36,98.96h18.61V22.95h-18.61v76Z"/><path class="cls-1" d="M143.15.31c-3.42.85-6.23,3.52-7.26,6.89-2.35,7.72,4.72,14.96,12.42,12.92,3.35-.89,6.06-3.59,7.02-6.92,2.2-7.65-4.48-14.81-12.18-12.9Z"/><path class="cls-1" d="M239.25,57.98c-.63-22.33-15.99-36.44-38.63-36.44s-39.25,16.28-39.25,39.09,17.53,38.93,39.25,38.93c18,0,35.37-11.48,38-28.54h-19.86c-3.26,6.66-10.38,10.38-18.14,10.38-10.08,0-18.46-6.19-20.33-16.28h58.95v-7.15ZM182.17,50.39c3.42-6.68,10.38-10.71,18.46-10.71s14.27,4.03,17.37,10.71h-35.83Z"/><path class="cls-1" d="M389.01,57.98c-.61-22.33-15.97-36.44-38.63-36.44s-39.23,16.28-39.23,39.09,17.53,38.93,39.23,38.93c18,0,35.37-11.48,38.02-28.54h-19.86c-3.26,6.66-10.38,10.38-18.16,10.38-10.08,0-18.44-6.19-20.3-16.28h58.93v-7.15ZM331.94,50.39c3.4-6.68,10.38-10.71,18.44-10.71s14.27,4.03,17.39,10.71h-35.83Z"/><path class="cls-1" d="M80.04,98.96c.16-4.01-.02-9.1-1.16-14.87-1.52-7.67-4.18-13.73-6.45-17.92,1.08-3,2.35-7.48,2.64-13.09.06-1.18.13-2.55,0-4.36-.15-2.01-.76-8.01-4.59-13.8-3.2-4.84-7.44-7.19-10.09-8.62-3.62-1.95-9.87-4.51-26.03-4.28-7.2.11-17.29.78-29.28,3.33.84,5.62,1.69,11.25,2.53,16.87,2.36-.57,5.64-1.31,9.58-2.06,3.28-.63,5.39-1.03,8.05-1.35,3.23-.39,7.55-.92,13.02-.43,4.54.4,8.5.8,12.6,3.34,3.54,2.19,4.9,4.56,5.25,5.21.98,1.8,1.31,3.5,1.44,4.62-7.99-4.51-18.14-6.31-28.78-5.01-10.78,1.32-20.81,7.47-25.59,15.67-3.91,6.74-4.24,14.53-.93,21.91,6.05,13.48,21.75,17.51,34.13,14.55,4.03-.96,7.19-2.3,8.71-3.05,7.94-3.94,12.57-9.72,14.83-13.05.51,2.2.96,4.65,1.28,7.31.4,3.29.53,6.31.52,9,6.1.03,12.21.05,18.31.08ZM31.95,80.97c-1.14.11-8.59.75-11.85-3.19-1.56-1.87-1.77-3.94-1.77-3.94-.21-1.96.54-3.46.86-4.12,2.26-4.49,7.96-5.83,10.13-6.35,1.77-.43,3.61-.64,5.89-.61,3.24.02,9.01.59,15.95,4.03-1.09,1.87-7.96,13.23-19.21,14.19Z"/><path class="cls-1" d="M310.55,96.15v2.44h-18.63v-2.44c0-3.91,0-6.5-.14-10.22-.05-1.51-.19-5.1-.3-6.43-.37-4.38-3.05-13.74-10.57-17.74-3.96-2.1-8.64-2.35-12.97-1.49-.77.16-1.51.33-2.24.56-.65.19-1.23.46-1.82.79v36.97h-18.63V.3h18.63v41.79c.09-.02.21-.05.3-.05l23.65-25.98h22.03l-24.8,27.24c1.51.56,3.05,1.21,4.59,2.03,13.62,7.24,19.49,22.09,20.37,32.62.19,2.19.37,7.15.37,7.36.14,4.05.14,6.89.14,10.85Z"/></g></svg>