<?xml version="1.0" encoding="UTF-8"?><svg id="Layer_2" xmlns="http://www.w3.org/2000/svg" viewBox="0 0 166.44 161.21"><defs><style>.cls-1{fill:#fff;stroke-width:0px;}</style></defs><g id="DESIGN"><path class="cls-1" d="M166.34,159.91c.33-8.33-.04-18.91-2.4-30.89-3.15-15.93-8.7-28.53-13.4-37.25,2.25-6.23,4.89-15.55,5.48-27.21.13-2.45.26-5.3-.02-9.05-.31-4.17-1.58-16.64-9.53-28.67-6.65-10.06-15.47-14.95-20.98-17.92C117.96,4.86,104.98-.46,71.4.03c-14.96.22-35.92,1.62-60.85,6.92,1.76,11.69,3.51,23.37,5.27,35.06,4.91-1.18,11.72-2.71,19.92-4.28,6.82-1.3,11.2-2.14,16.74-2.81,6.71-.82,15.7-1.91,27.07-.9,9.44.84,17.66,1.66,26.18,6.94,7.35,4.55,10.17,9.48,10.9,10.83,2.03,3.75,2.72,7.28,2.99,9.6-16.6-9.37-37.69-13.11-59.8-10.41-22.4,2.74-43.26,15.52-53.17,32.56-8.13,14.01-8.81,30.19-1.94,45.53,12.58,28.02,45.19,36.39,70.93,30.24,8.37-1.99,14.95-4.78,18.1-6.34,16.5-8.19,26.13-20.21,30.82-27.12,1.05,4.58,1.99,9.66,2.66,15.19.83,6.83,1.11,13.12,1.08,18.7,12.68.06,25.37.11,38.05.17ZM66.39,122.53c-2.37.24-17.85,1.56-24.63-6.63-3.24-3.88-3.68-8.19-3.68-8.19-.44-4.07,1.11-7.19,1.79-8.57,4.69-9.32,16.55-12.12,21.05-13.2,3.68-.9,7.5-1.32,12.24-1.28,6.72.05,18.72,1.23,33.14,8.38-2.27,3.88-16.55,27.5-39.92,29.48Z"/></g></svg>