<?xml version="1.0" encoding="UTF-8"?><svg id="Layer_2" xmlns="http://www.w3.org/2000/svg" viewBox="0 0 53.37 51.69"><defs><style>.cls-1{stroke-width:0px;}</style></defs><g id="DESIGN"><path class="cls-1" d="M53.33,51.27c.11-2.67-.01-6.06-.77-9.91-1.01-5.11-2.79-9.15-4.3-11.94.72-2,1.57-4.99,1.76-8.72.04-.78.08-1.7,0-2.9-.1-1.34-.51-5.34-3.06-9.19-2.13-3.23-4.96-4.79-6.73-5.75C37.82,1.56,33.66-.15,22.89.01,18.1.08,11.38.53,3.39,2.23c.56,3.75,1.13,7.49,1.69,11.24,1.57-.38,3.76-.87,6.39-1.37,2.19-.42,3.59-.68,5.37-.9,2.15-.26,5.03-.61,8.68-.29,3.03.27,5.66.53,8.39,2.22,2.36,1.46,3.26,3.04,3.5,3.47.65,1.2.87,2.33.96,3.08-5.32-3-12.09-4.2-19.17-3.34-7.18.88-13.87,4.98-17.05,10.44-2.61,4.49-2.82,9.68-.62,14.6,4.03,8.98,14.49,11.67,22.74,9.7,2.68-.64,4.79-1.53,5.8-2.03,5.29-2.62,8.38-6.48,9.88-8.69.34,1.47.64,3.1.85,4.87.27,2.19.36,4.21.35,6,4.07.02,8.13.04,12.2.05ZM21.29,39.29c-.76.08-5.72.5-7.9-2.12-1.04-1.24-1.18-2.63-1.18-2.63-.14-1.3.36-2.31.57-2.75,1.5-2.99,5.31-3.88,6.75-4.23,1.18-.29,2.41-.42,3.93-.41,2.16.02,6,.39,10.63,2.69-.73,1.24-5.31,8.82-12.8,9.45Z"/></g></svg>