<?xml version="1.0" encoding="UTF-8"?><svg id="Layer_2" xmlns="http://www.w3.org/2000/svg" viewBox="0 0 1213.27 456.03"><defs><style>.cls-1{fill:#26d37c;stroke-width:0px;}</style></defs><g id="DESIGN"><path class="cls-1" d="M233.06,414.31c0,6.65-2.26,11.8-6.77,15.47-4.51,3.66-10.57,5.49-18.17,5.49h-26.76v-73.07h25.34c7.39,0,13.18,1.65,17.35,4.94,4.17,3.29,6.26,8.02,6.26,14.2,0,3.46-.98,6.58-2.95,9.36s-4.71,4.95-8.24,6.51c4.54,1.29,8,3.41,10.38,6.36,2.37,2.95,3.56,6.53,3.56,10.74ZM205.99,371.16h-14.35v21.98h14.35c4.41,0,7.79-.98,10.12-2.95,2.34-1.97,3.51-4.64,3.51-8.04s-1.17-6.07-3.51-8.04c-2.34-1.97-5.72-2.95-10.12-2.95ZM207.42,402.09h-15.77v24.22h15.77c4.75,0,8.43-1.08,11.04-3.26,2.61-2.17,3.92-5.19,3.92-9.06s-1.31-6.65-3.92-8.75c-2.61-2.1-6.29-3.15-11.04-3.15Z"/><path class="cls-1" d="M267.36,436.28c-5.23,0-9.79-1.17-13.69-3.51-3.9-2.34-6.94-5.65-9.11-9.92-2.17-4.27-3.26-9.23-3.26-14.86s1.12-10.11,3.36-14.25c2.24-4.14,5.29-7.41,9.16-9.82,3.87-2.41,8.28-3.61,13.23-3.61,4.07,0,7.72.76,10.94,2.29,3.22,1.53,5.97,3.66,8.24,6.41,2.27,2.75,3.92,5.97,4.94,9.67,1.02,3.7,1.29,7.75.81,12.16h-44.67v-6.82h33.79c-.2-5.02-1.58-8.94-4.12-11.75-2.54-2.81-5.92-4.22-10.13-4.22-3.05,0-5.72.8-7.99,2.39-2.27,1.6-4.04,3.87-5.29,6.82-1.26,2.95-1.88,6.53-1.88,10.74s.61,7.82,1.83,10.84c1.22,3.02,2.98,5.34,5.29,6.97,2.31,1.63,5.09,2.44,8.35,2.44,3.87,0,7.07-.98,9.62-2.95,2.54-1.97,4.22-4.71,5.04-8.24h10.18c-1.29,5.97-4.12,10.67-8.5,14.09-4.38,3.43-9.75,5.14-16.13,5.14Z"/><path class="cls-1" d="M346.22,435.27l-12.21-40.09-12.31,40.09h-10.38l-15.57-53.93h10.07l10.89,39.28,12.21-39.28h10.18l12.01,39.38,10.89-39.38h10.18l-15.67,53.93h-10.28Z"/><path class="cls-1" d="M401.48,436.28c-5.23,0-9.79-1.17-13.69-3.51s-6.94-5.65-9.11-9.92c-2.17-4.27-3.26-9.23-3.26-14.86s1.12-10.11,3.36-14.25c2.24-4.14,5.29-7.41,9.16-9.82,3.87-2.41,8.28-3.61,13.23-3.61,4.07,0,7.72.76,10.94,2.29,3.22,1.53,5.97,3.66,8.24,6.41,2.27,2.75,3.92,5.97,4.94,9.67,1.02,3.7,1.29,7.75.81,12.16h-44.67v-6.82h33.79c-.2-5.02-1.58-8.94-4.12-11.75-2.54-2.81-5.92-4.22-10.13-4.22-3.05,0-5.72.8-7.99,2.39-2.27,1.6-4.04,3.87-5.29,6.82-1.26,2.95-1.88,6.53-1.88,10.74s.61,7.82,1.83,10.84c1.22,3.02,2.98,5.34,5.29,6.97,2.31,1.63,5.09,2.44,8.35,2.44,3.87,0,7.07-.98,9.62-2.95,2.54-1.97,4.22-4.71,5.04-8.24h10.18c-1.29,5.97-4.12,10.67-8.5,14.09-4.38,3.43-9.75,5.14-16.13,5.14Z"/><path class="cls-1" d="M457.55,456.03c-4.68,0-8.79-.8-12.31-2.39-3.53-1.59-6.29-3.88-8.3-6.87-2-2.99-3.1-6.48-3.31-10.48h9.97c.34,3.73,1.68,6.6,4.02,8.6,2.34,2,5.61,3,9.82,3,4.68,0,8.21-1.2,10.58-3.61,2.37-2.41,3.56-5.95,3.56-10.63v-9.77c-1.56,3.19-3.78,5.7-6.67,7.53-2.88,1.83-6.16,2.75-9.82,2.75-4.48,0-8.45-1.15-11.91-3.46-3.46-2.31-6.17-5.49-8.14-9.57-1.97-4.07-2.95-8.72-2.95-13.94s.95-10.06,2.85-14.09c1.9-4.04,4.56-7.17,7.99-9.41,3.42-2.24,7.38-3.36,11.86-3.36,3.87,0,7.29.92,10.28,2.75,2.98,1.83,5.39,4.44,7.23,7.84v-9.57h9.57v52.1c0,7.12-2.14,12.67-6.41,16.64-4.27,3.97-10.24,5.95-17.91,5.95ZM442.49,407.18c0,5.56,1.29,9.96,3.87,13.18,2.58,3.22,6.11,4.83,10.58,4.83,2.92,0,5.48-.73,7.68-2.19,2.21-1.46,3.92-3.53,5.14-6.21s1.83-5.78,1.83-9.31c0-5.56-1.32-10.01-3.97-13.33-2.65-3.32-6.21-4.99-10.69-4.99s-7.92,1.61-10.53,4.83c-2.61,3.22-3.92,7.62-3.92,13.18Z"/><path class="cls-1" d="M508.64,368.81c0,1.9-.7,3.51-2.09,4.84-1.39,1.32-3.17,1.98-5.34,1.98s-4.06-.66-5.44-1.98c-1.39-1.32-2.09-2.93-2.09-4.84,0-2.03.69-3.68,2.09-4.93,1.39-1.25,3.21-1.88,5.44-1.88s3.95.63,5.34,1.88c1.39,1.25,2.09,2.9,2.09,4.93ZM506.4,435.27h-10.28v-53.93h10.28v53.93Z"/><path class="cls-1" d="M530.92,404.84v30.43h-10.28v-53.93h9.57v8.95c1.83-2.98,4.22-5.39,7.17-7.22,2.95-1.83,6.29-2.75,10.02-2.75,5.56,0,10.02,1.73,13.38,5.19,3.36,3.46,5.04,8.41,5.04,14.86v34.9h-10.28v-31.44c0-4.61-.98-8.17-2.95-10.69-1.97-2.51-4.88-3.76-8.75-3.76-2.37,0-4.55.63-6.51,1.88-1.97,1.26-3.53,3.04-4.68,5.34-1.15,2.31-1.73,5.06-1.73,8.24Z"/><path class="cls-1" d="M601.04,456.03c-4.68,0-8.79-.8-12.31-2.39-3.53-1.59-6.29-3.88-8.3-6.87-2-2.99-3.1-6.48-3.31-10.48h9.97c.34,3.73,1.68,6.6,4.02,8.6s5.61,3,9.82,3c4.68,0,8.21-1.2,10.58-3.61,2.37-2.41,3.56-5.95,3.56-10.63v-9.77c-1.56,3.19-3.78,5.7-6.67,7.53-2.88,1.83-6.16,2.75-9.82,2.75-4.48,0-8.45-1.15-11.91-3.46-3.46-2.31-6.17-5.49-8.14-9.57-1.97-4.07-2.95-8.72-2.95-13.94s.95-10.06,2.85-14.09c1.9-4.04,4.56-7.17,7.99-9.41,3.42-2.24,7.38-3.36,11.86-3.36,3.87,0,7.29.92,10.28,2.75,2.98,1.83,5.39,4.44,7.23,7.84v-9.57h9.57v52.1c0,7.12-2.14,12.67-6.41,16.64-4.27,3.97-10.24,5.95-17.91,5.95ZM585.98,407.18c0,5.56,1.29,9.96,3.87,13.18,2.58,3.22,6.11,4.83,10.58,4.83,2.92,0,5.48-.73,7.68-2.19,2.21-1.46,3.92-3.53,5.14-6.21s1.83-5.78,1.83-9.31c0-5.56-1.32-10.01-3.97-13.33-2.65-3.32-6.21-4.99-10.69-4.99s-7.92,1.61-10.53,4.83c-2.61,3.22-3.92,7.62-3.92,13.18Z"/><path class="cls-1" d="M682.35,419.19c0,5.29-1.97,9.46-5.9,12.52-3.94,3.05-9.5,4.58-16.69,4.58s-12.64-1.66-16.74-4.99c-4.11-3.32-6.43-7.87-6.97-13.64h9.87c.13,3.39,1.48,6.06,4.02,7.99,2.54,1.93,5.89,2.9,10.02,2.9,3.6,0,6.5-.64,8.7-1.93,2.2-1.29,3.31-3.19,3.31-5.7,0-2.24-.73-3.93-2.19-5.09-1.46-1.15-3.88-2.04-7.28-2.65l-8.75-1.63c-4.95-.95-8.79-2.7-11.5-5.24-2.71-2.54-4.07-5.85-4.07-9.92,0-3.19.87-5.99,2.6-8.4,1.73-2.41,4.15-4.29,7.28-5.65,3.12-1.36,6.75-2.03,10.89-2.03,4.34,0,8.14.73,11.4,2.19,3.26,1.46,5.87,3.53,7.84,6.21,1.97,2.68,3.09,5.89,3.36,9.62h-9.87c-.34-3.19-1.63-5.7-3.87-7.53-2.24-1.83-5.16-2.75-8.75-2.75-3.26,0-5.89.66-7.89,1.98-2,1.32-3,3.14-3,5.44,0,2.17.73,3.82,2.19,4.94,1.46,1.12,3.81,2.02,7.07,2.7l9.16,1.73c5.36.95,9.33,2.61,11.91,4.99,2.58,2.38,3.87,5.5,3.87,9.36Z"/><path class="cls-1" d="M745.03,408.3c0,5.36-.98,10.16-2.95,14.4s-4.73,7.56-8.29,9.97c-3.56,2.41-7.79,3.61-12.67,3.61-3.8,0-7.26-.93-10.38-2.8-3.12-1.87-5.67-4.49-7.63-7.89v9.67h-9.57v-73.07h10.28v28.39c1.9-3.32,4.34-5.87,7.33-7.63,2.98-1.76,6.31-2.65,9.97-2.65,4.88,0,9.09,1.19,12.62,3.56,3.53,2.38,6.29,5.68,8.29,9.92,2,4.24,3,9.07,3,14.5ZM734.35,408.3c0-6.11-1.44-10.79-4.33-14.04-2.88-3.26-6.53-4.88-10.94-4.88-2.85,0-5.43.73-7.73,2.19-2.31,1.46-4.14,3.58-5.5,6.36-1.36,2.78-2.03,6.17-2.03,10.18s.66,7.33,1.98,10.18,3.14,5.04,5.44,6.56c2.31,1.53,4.92,2.29,7.84,2.29,4.41,0,8.06-1.63,10.94-4.88,2.88-3.26,4.33-7.9,4.33-13.94Z"/><path class="cls-1" d="M778,436.28c-3.8,0-7.31-.7-10.53-2.08-3.22-1.39-6.02-3.36-8.4-5.9-2.38-2.54-4.22-5.51-5.55-8.9-1.32-3.39-1.98-7.09-1.98-11.09s.66-7.7,1.98-11.09c1.32-3.39,3.17-6.36,5.55-8.9,2.37-2.54,5.17-4.51,8.4-5.9,3.22-1.39,6.73-2.08,10.53-2.08s7.41.7,10.64,2.08c3.22,1.39,6,3.36,8.34,5.9,2.34,2.54,4.17,5.51,5.5,8.9,1.32,3.39,1.98,7.09,1.98,11.09s-.66,7.7-1.98,11.09c-1.32,3.39-3.16,6.36-5.5,8.9-2.34,2.54-5.12,4.51-8.34,5.9-3.22,1.39-6.77,2.08-10.64,2.08ZM778,427.23c2.98,0,5.68-.76,8.09-2.29,2.41-1.53,4.31-3.71,5.7-6.56,1.39-2.85,2.09-6.21,2.09-10.08s-.7-7.31-2.09-10.13c-1.39-2.81-3.29-4.97-5.7-6.46-2.41-1.49-5.11-2.24-8.09-2.24s-5.58.75-7.99,2.24c-2.41,1.49-4.31,3.65-5.7,6.46-1.39,2.82-2.09,6.19-2.09,10.13s.69,7.22,2.09,10.08c1.39,2.85,3.29,5.04,5.7,6.56,2.41,1.53,5.07,2.29,7.99,2.29Z"/><path class="cls-1" d="M848.63,413.08v-31.75h10.28v53.93h-9.57v-8.45c-1.36,2.71-3.53,4.97-6.51,6.77-2.99,1.8-6.31,2.7-9.97,2.7s-6.8-.71-9.62-2.14c-2.82-1.42-4.99-3.65-6.51-6.67-1.53-3.02-2.29-6.83-2.29-11.45v-34.7h10.28v32.67c0,4.68,1.05,8.06,3.15,10.13,2.1,2.07,4.85,3.1,8.24,3.1,2.31,0,4.41-.59,6.31-1.78,1.9-1.19,3.41-2.85,4.53-4.99,1.12-2.14,1.68-4.59,1.68-7.38Z"/><path class="cls-1" d="M917.73,435.27l-12.21-40.09-12.31,40.09h-10.38l-15.57-53.93h10.07l10.89,39.28,12.21-39.28h10.18l12.01,39.38,10.89-39.38h10.18l-15.67,53.93h-10.28Z"/><path class="cls-1" d="M972.98,436.28c-5.23,0-9.79-1.17-13.69-3.51-3.9-2.34-6.94-5.65-9.11-9.92-2.17-4.27-3.26-9.23-3.26-14.86s1.12-10.11,3.36-14.25c2.24-4.14,5.29-7.41,9.16-9.82,3.87-2.41,8.28-3.61,13.23-3.61,4.07,0,7.72.76,10.94,2.29,3.22,1.53,5.97,3.66,8.24,6.41,2.27,2.75,3.92,5.97,4.94,9.67,1.02,3.7,1.29,7.75.81,12.16h-44.67v-6.82h33.79c-.2-5.02-1.58-8.94-4.12-11.75-2.54-2.81-5.92-4.22-10.13-4.22-3.05,0-5.72.8-7.99,2.39-2.27,1.6-4.04,3.87-5.29,6.82-1.26,2.95-1.88,6.53-1.88,10.74s.61,7.82,1.83,10.84c1.22,3.02,2.98,5.34,5.29,6.97,2.31,1.63,5.09,2.44,8.35,2.44,3.87,0,7.07-.98,9.62-2.95,2.54-1.97,4.22-4.71,5.04-8.24h10.18c-1.29,5.97-4.12,10.67-8.5,14.09-4.38,3.43-9.75,5.14-16.13,5.14Z"/><path class="cls-1" d="M1018.78,407.69v27.58h-10.28v-53.93h9.57v11.4c1.9-3.73,4.73-6.68,8.5-8.85,3.76-2.17,7.85-3.26,12.26-3.26v10.68c-3.87-.2-7.31.24-10.33,1.32-3.02,1.09-5.39,2.87-7.12,5.34-1.73,2.48-2.6,5.72-2.6,9.72Z"/><path class="cls-1" d="M326.42,103.52l-4.84-31.93h-53.21v237.05h58.05v-116.45c0-35.39,28.1-64.93,63.48-65.43.44,0,.89-.01,1.34-.01h12.09v-57.57c-30.96,0-58.54,12.58-76.92,34.35Z"/><path class="cls-1" d="M425.29,308.64h58.05V71.59h-58.05v237.05Z"/><path class="cls-1" d="M446.46.98c-10.66,2.65-19.44,10.99-22.64,21.49-7.33,24.08,14.72,46.65,38.74,40.3,10.46-2.77,18.9-11.18,21.88-21.58,6.85-23.86-13.97-46.18-37.98-40.22Z"/><path class="cls-1" d="M746.21,180.83c-1.96-69.64-49.89-113.64-120.47-113.64s-122.43,50.76-122.43,121.92,54.68,121.41,122.43,121.41c56.13,0,110.3-35.8,118.51-89.02h-61.94c-10.17,20.77-32.39,32.39-56.57,32.39-31.44,0-57.58-19.32-63.39-50.76h183.86v-22.29ZM568.15,157.16c10.67-20.84,32.39-33.4,57.58-33.4s44.51,12.56,54.17,33.4h-111.75Z"/><path class="cls-1" d="M1213.27,180.83c-1.89-69.64-49.81-113.64-120.47-113.64s-122.36,50.76-122.36,121.92,54.68,121.41,122.36,121.41c56.13,0,110.3-35.8,118.58-89.02h-61.94c-10.17,20.77-32.39,32.39-56.64,32.39-31.44,0-57.51-19.32-63.32-50.76h183.79v-22.29ZM1035.29,157.16c10.6-20.84,32.39-33.4,57.51-33.4s44.51,12.56,54.24,33.4h-111.75Z"/><path class="cls-1" d="M249.64,308.64c.49-12.49-.05-28.39-3.61-46.37-4.73-23.91-13.05-42.82-20.11-55.9,3.38-9.35,7.33-23.34,8.23-40.84.19-3.67.39-7.96-.03-13.58-.47-6.26-2.38-24.98-14.31-43.03-9.98-15.1-23.21-22.44-31.48-26.89-11.3-6.09-30.79-14.08-81.17-13.34-22.45.33-53.91,2.43-91.32,10.38,2.63,17.54,5.27,35.08,7.9,52.62,7.37-1.77,17.59-4.07,29.89-6.42,10.24-1.95,16.8-3.21,25.12-4.22,10.07-1.22,23.56-2.86,40.62-1.35,14.17,1.26,26.51,2.49,39.29,10.41,11.03,6.83,15.27,14.23,16.36,16.25,3.05,5.63,4.08,10.92,4.48,14.41-24.91-14.06-56.57-19.67-89.75-15.62-33.62,4.12-64.92,23.3-79.8,48.87-12.2,21.02-13.22,45.31-2.91,68.33,18.88,42.05,67.82,54.62,106.45,45.38,12.56-2.98,22.44-7.17,27.16-9.52,24.76-12.29,39.21-30.33,46.26-40.7,1.58,6.87,2.98,14.49,3.99,22.8,1.25,10.25,1.67,19.69,1.62,28.07,19.03.09,38.07.17,57.1.26ZM99.64,252.54c-3.56.36-26.79,2.34-36.96-9.94-4.86-5.82-5.52-12.29-5.52-12.29-.65-6.11,1.67-10.8,2.69-12.86,7.04-13.99,24.83-18.18,31.59-19.82,5.52-1.35,11.26-1.99,18.37-1.92,10.09.07,28.1,1.85,49.74,12.57-3.41,5.83-24.83,41.27-59.91,44.25Z"/><path class="cls-1" d="M968.55,299.89v7.62h-58.09v-7.62c0-12.2,0-20.26-.43-31.88-.15-4.72-.58-15.9-.94-20.04-1.16-13.65-9.51-42.85-32.97-55.33-12.34-6.53-26.94-7.33-40.45-4.65-2.4.51-4.72,1.02-6.97,1.74-2.04.58-3.85,1.45-5.67,2.47v115.31h-58.09V.94h58.09v130.34c.29-.07.65-.15.94-.15l73.78-81.04h68.69l-77.33,84.96c4.72,1.74,9.51,3.78,14.31,6.32,42.48,22.58,60.78,68.91,63.54,101.74.58,6.83,1.16,22.29,1.16,22.94.43,12.64.43,21.49.43,33.84Z"/></g></svg>