<?xml version="1.0" encoding="UTF-8"?><svg id="Layer_2" xmlns="http://www.w3.org/2000/svg" viewBox="0 0 118.94 116.64"><defs><style>.cls-1{stroke-width:0px;}</style></defs><g id="DESIGN"><path class="cls-1" d="M52.24,59.82c-1.26.31-4.6,1.09-5.91,3.71-.19.39-.63,1.26-.5,2.41,0,0,.12,1.21,1.03,2.3,1.9,2.3,6.26,1.93,6.92,1.86,6.57-.56,10.58-7.2,11.22-8.29-4.05-2.01-7.42-2.34-9.31-2.35-1.33-.01-2.41.11-3.44.36Z"/><path class="cls-1" d="M110.46,55.31l7.73-6.34c1.27-1.04.85-3.07-.73-3.54l-8.73-2.64c-1.21-.37-2.37-.77-3.53-1.22-1.11-.44-1.61-1.7-1.13-2.76.39-.87.8-1.72,1.25-2.56l4.65-8.78c.75-1.44-.39-3.14-2.04-3l-10.05.83c-.87.08-1.72.11-2.57.14-1.19.02-2.17-.94-2.14-2.11.04-.84.09-1.68.16-2.53l.94-10.22c.15-1.62-1.58-2.76-3.05-2.01l-9.28,4.73c-.76.39-1.54.75-2.32,1.09-1.09.48-2.37-.04-2.8-1.13-.3-.78-.59-1.58-.84-2.39l-3.05-9.45c-.49-1.54-2.52-1.93-3.59-.7l-6.51,7.56c-.63.74-1.28,1.45-1.95,2.12-.83.84-2.2.86-3.03.01-.85-.88-1.68-1.8-2.47-2.74l-5.8-6.93c-1.05-1.25-3.12-.87-3.62.69l-3.03,9.42c-.3.92-.63,1.82-.98,2.71-.43,1.08-1.7,1.61-2.78,1.14-1.14-.49-2.26-1.02-3.36-1.59l-7.41-3.84c-1.47-.76-3.21.39-3.06,2.01l.77,8.18c.13,1.34.19,2.67.2,4.01.01,1.16-.95,2.08-2.12,2.07-1.34-.01-2.71-.09-4.07-.23l-8.72-.83c-1.67-.15-2.84,1.57-2.06,3.01l4.09,7.6c.64,1.18,1.23,2.39,1.76,3.62.46,1.06-.06,2.29-1.14,2.71-1.25.5-2.53.94-3.84,1.34l-8,2.43c-1.59.48-2.01,2.5-.73,3.54l6.43,5.26c.95.78,1.88,1.61,2.76,2.45.84.8.83,2.15-.03,2.95-.72.65-1.43,1.29-2.18,1.91l-7.74,6.34c-1.27,1.04-.85,3.06.73,3.54l8.73,2.64c1.19.36,2.36.78,3.52,1.22,1.09.43,1.62,1.68,1.14,2.74-.39.88-.8,1.75-1.26,2.6l-4.65,8.78c-.75,1.44.39,3.14,2.04,3l10.03-.83c.87-.07,1.72-.11,2.57-.14,1.19-.03,2.17.94,2.14,2.11-.03.84-.07,1.68-.15,2.53l-.94,10.22c-.15,1.62,1.58,2.76,3.05,2.01l9.28-4.74c.77-.39,1.53-.75,2.31-1.09,1.09-.48,2.37.05,2.8,1.14.31.79.59,1.58.85,2.39l3.04,9.43c.49,1.54,2.52,1.93,3.59.7l6.51-7.56c.63-.74,1.28-1.45,1.96-2.14.82-.83,2.18-.84,3,0,.87.87,1.7,1.78,2.49,2.74l5.8,6.93c1.05,1.26,3.12.87,3.62-.69l3.04-9.43c.29-.92.61-1.81.97-2.69.43-1.09,1.7-1.63,2.79-1.17,1.14.48,2.26,1,3.36,1.58l7.38,3.86c1.47.75,3.22-.39,3.06-2.01l-.76-8.19c-.13-1.34-.19-2.67-.2-4.01-.01-1.16.95-2.08,2.12-2.07,1.35.03,2.72.1,4.08.23l8.72.83c1.67.16,2.84-1.56,2.06-3l-4.09-7.6c-.64-1.18-1.22-2.39-1.76-3.62-.46-1.05.06-2.29,1.14-2.71,1.27-.5,2.55-.94,3.86-1.35l8-2.41c1.6-.48,2.01-2.5.73-3.54l-6.43-5.26c-.97-.79-1.88-1.61-2.78-2.46-.84-.8-.83-2.15.03-2.95.7-.67,1.43-1.31,2.2-1.91ZM81.86,80.61c-3.56-.02-7.13-.03-10.69-.05,0-1.57-.07-3.34-.3-5.26-.19-1.55-.45-2.98-.75-4.27-1.32,1.94-4.03,5.32-8.66,7.62-.88.44-2.73,1.22-5.09,1.78-7.23,1.73-16.4-.62-19.93-8.5-1.93-4.31-1.74-8.86.54-12.8,2.79-4.79,8.65-8.38,14.94-9.15,6.21-.76,12.14.29,16.81,2.93-.07-.65-.27-1.64-.84-2.7-.2-.38-1-1.76-3.06-3.04-2.39-1.48-4.71-1.71-7.36-1.95-3.2-.28-5.72.02-7.61.25-1.56.19-2.79.42-4.7.79-2.3.44-4.22.87-5.6,1.2-.49-3.28-.99-6.57-1.48-9.85,7-1.49,12.9-1.88,17.1-1.94,9.44-.14,13.08,1.36,15.2,2.5,1.55.83,4.03,2.21,5.9,5.04,2.23,3.38,2.59,6.88,2.68,8.06.08,1.05.04,1.86,0,2.54-.17,3.28-.91,5.9-1.54,7.65,1.32,2.45,2.88,5.99,3.77,10.47.67,3.37.77,6.34.68,8.68Z"/></g></svg>